  0
SECTION
  2
HEADER
  9
$ACADVER
  1
AC1015
  9
$ACADMAINTVER
 70
     6
  9
$DWGCODEPAGE
  3
ANSI_1252
  9
$INSBASE
 10
0.0
 20
0.0
 30
0.0
  9
$EXTMIN
 10
-16.2231881058
 20
-14.1711881058
 30
0.0
  9
$EXTMAX
 10
189.2231881058
 20
84.1711881058
 30
0.0
  9
$LIMMIN
 10
0.0
 20
0.0
  9
$LIMMAX
 10
420.0
 20
297.0
  9
$ORTHOMODE
 70
     0
  9
$REGENMODE
 70
     1
  9
$FILLMODE
 70
     1
  9
$QTEXTMODE
 70
     0
  9
$MIRRTEXT
 70
     1
  9
$LTSCALE
 40
1.0
  9
$ATTMODE
 70
     1
  9
$TEXTSIZE
 40
3.5
  9
$TRACEWID
 40
1.0
  9
$TEXTSTYLE
  7
Standard
  9
$CLAYER
  8
0
  9
$CELTYPE
  6
ByLayer
  9
$CECOLOR
 62
   256
  9
$CELTSCALE
 40
1.0
  9
$DISPSILH
 70
     0
  9
$DIMSCALE
 40
1.0
  9
$DIMASZ
 40
3.302
  9
$DIMEXO
 40
1.0
  9
$DIMDLI
 40
3.75
  9
$DIMRND
 40
0.0
  9
$DIMDLE
 40
0.0
  9
$DIMEXE
 40
1.0
  9
$DIMTP
 40
0.0
  9
$DIMTM
 40
0.0
  9
$DIMTXT
 40
3.5
  9
$DIMCEN
 40
2.5
  9
$DIMTSZ
 40
0.0
  9
$DIMTOL
 70
     0
  9
$DIMLIM
 70
     0
  9
$DIMTIH
 70
     1
  9
$DIMTOH
 70
     1
  9
$DIMSE1
 70
     0
  9
$DIMSE2
 70
     0
  9
$DIMTAD
 70
     1
  9
$DIMZIN
 70
     0
  9
$DIMBLK
  1

  9
$DIMASO
 70
     1
  9
$DIMSHO
 70
     1
  9
$DIMPOST
  1

  9
$DIMAPOST
  1

  9
$DIMALT
 70
     0
  9
$DIMALTD
 70
     3
  9
$DIMALTF
 40
0.0393700787
  9
$DIMLFAC
 40
1.0
  9
$DIMTOFL
 70
     1
  9
$DIMTVP
 40
0.0
  9
$DIMTIX
 70
     0
  9
$DIMSOXD
 70
     0
  9
$DIMSAH
 70
     0
  9
$DIMBLK1
  1

  9
$DIMBLK2
  1

  9
$DIMSTYLE
  2
ISO-25
  9
$DIMCLRD
 70
     0
  9
$DIMCLRE
 70
     0
  9
$DIMCLRT
 70
     0
  9
$DIMTFAC
 40
1.0
  9
$DIMGAP
 40
1.524
  9
$DIMJUST
 70
     0
  9
$DIMSD1
 70
     0
  9
$DIMSD2
 70
     0
  9
$DIMTOLJ
 70
     0
  9
$DIMTZIN
 70
     0
  9
$DIMALTZ
 70
     0
  9
$DIMALTTZ
 70
     0
  9
$DIMUPT
 70
     0
  9
$DIMDEC
 70
     3
  9
$DIMTDEC
 70
     3
  9
$DIMALTU
 70
     2
  9
$DIMALTTD
 70
     3
  9
$DIMTXSTY
  7
Standard
  9
$DIMAUNIT
 70
     0
  9
$DIMADEC
 70
     2
  9
$DIMALTRND
 40
0.0
  9
$DIMAZIN
 70
     0
  9
$DIMDSEP
 70
    44
  9
$DIMATFIT
 70
     3
  9
$DIMFRAC
 70
     0
  9
$DIMLDRBLK
  1

  9
$DIMLUNIT
 70
     2
  9
$DIMLWD
 70
    -2
  9
$DIMLWE
 70
    -2
  9
$DIMTMOVE
 70
     0
  9
$LUNITS
 70
     2
  9
$LUPREC
 70
     2
  9
$SKETCHINC
 40
1.0
  9
$FILLETRAD
 40
10.0
  9
$AUNITS
 70
     0
  9
$AUPREC
 70
     2
  9
$MENU
  1
.
  9
$ELEVATION
 40
0.0
  9
$PELEVATION
 40
0.0
  9
$THICKNESS
 40
0.0
  9
$LIMCHECK
 70
     0
  9
$CHAMFERA
 40
10.0
  9
$CHAMFERB
 40
10.0
  9
$CHAMFERC
 40
20.0
  9
$CHAMFERD
 40
0.0
  9
$SKPOLY
 70
     0
  9
$TDCREATE
 40
2456854.604590787
  9
$TDUCREATE
 40
2456854.896257454
  9
$TDUPDATE
 40
2456854.604671007
  9
$TDUUPDATE
 40
2456854.896337674
  9
$TDINDWG
 40
0.0000000116
  9
$TDUSRTIMER
 40
0.0000000116
  9
$USRTIMER
 70
     1
  9
$ANGBASE
 50
0.0
  9
$ANGDIR
 70
     0
  9
$PDMODE
 70
     0
  9
$PDSIZE
 40
-1.0
  9
$PLINEWID
 40
0.0
  9
$SPLFRAME
 70
     0
  9
$SPLINETYPE
 70
     6
  9
$SPLINESEGS
 70
     8
  9
$HANDSEED
  5
12D
  9
$SURFTAB1
 70
     6
  9
$SURFTAB2
 70
     6
  9
$SURFTYPE
 70
     6
  9
$SURFU
 70
     6
  9
$SURFV
 70
     6
  9
$UCSBASE
  2

  9
$UCSNAME
  2

  9
$UCSORG
 10
0.0
 20
0.0
 30
0.0
  9
$UCSXDIR
 10
1.0
 20
0.0
 30
0.0
  9
$UCSYDIR
 10
0.0
 20
1.0
 30
0.0
  9
$UCSORTHOREF
  2

  9
$UCSORTHOVIEW
 70
     0
  9
$UCSORGTOP
 10
0.0
 20
0.0
 30
0.0
  9
$UCSORGBOTTOM
 10
0.0
 20
0.0
 30
0.0
  9
$UCSORGLEFT
 10
0.0
 20
0.0
 30
0.0
  9
$UCSORGRIGHT
 10
0.0
 20
0.0
 30
0.0
  9
$UCSORGFRONT
 10
0.0
 20
0.0
 30
0.0
  9
$UCSORGBACK
 10
0.0
 20
0.0
 30
0.0
  9
$PUCSBASE
  2

  9
$PUCSNAME
  2

  9
$PUCSORG
 10
0.0
 20
0.0
 30
0.0
  9
$PUCSXDIR
 10
1.0
 20
0.0
 30
0.0
  9
$PUCSYDIR
 10
0.0
 20
1.0
 30
0.0
  9
$PUCSORTHOREF
  2

  9
$PUCSORTHOVIEW
 70
     0
  9
$PUCSORGTOP
 10
0.0
 20
0.0
 30
0.0
  9
$PUCSORGBOTTOM
 10
0.0
 20
0.0
 30
0.0
  9
$PUCSORGLEFT
 10
0.0
 20
0.0
 30
0.0
  9
$PUCSORGRIGHT
 10
0.0
 20
0.0
 30
0.0
  9
$PUCSORGFRONT
 10
0.0
 20
0.0
 30
0.0
  9
$PUCSORGBACK
 10
0.0
 20
0.0
 30
0.0
  9
$USERI1
 70
     0
  9
$USERI2
 70
     0
  9
$USERI3
 70
     0
  9
$USERI4
 70
     0
  9
$USERI5
 70
     0
  9
$USERR1
 40
0.0
  9
$USERR2
 40
0.0
  9
$USERR3
 40
0.0
  9
$USERR4
 40
0.0
  9
$USERR5
 40
0.0
  9
$WORLDVIEW
 70
     1
  9
$SHADEDGE
 70
     3
  9
$SHADEDIF
 70
    70
  9
$TILEMODE
 70
     1
  9
$MAXACTVP
 70
    64
  9
$PINSBASE
 10
0.0
 20
0.0
 30
0.0
  9
$PLIMCHECK
 70
     0
  9
$PEXTMIN
 10
1.0000000000E+20
 20
1.0000000000E+20
 30
1.0000000000E+20
  9
$PEXTMAX
 10
-1.0000000000E+20
 20
-1.0000000000E+20
 30
-1.0000000000E+20
  9
$PLIMMIN
 10
0.0
 20
0.0
  9
$PLIMMAX
 10
420.0
 20
297.0
  9
$UNITMODE
 70
     0
  9
$VISRETAIN
 70
     1
  9
$PLINEGEN
 70
     0
  9
$PSLTSCALE
 70
     1
  9
$TREEDEPTH
 70
  3020
  9
$CMLSTYLE
  2
Standard
  9
$CMLJUST
 70
     0
  9
$CMLSCALE
 40
20.0
  9
$PROXYGRAPHICS
 70
     1
  9
$MEASUREMENT
 70
     1
  9
$CELWEIGHT
370
    -1
  9
$ENDCAPS
280
     0
  9
$JOINSTYLE
280
     0
  9
$LWDISPLAY
290
     1
  9
$INSUNITS
 70
     4
  9
$HYPERLINKBASE
  1

  9
$STYLESHEET
  1

  9
$XEDIT
290
     1
  9
$CEPSNTYPE
380
     0
  9
$PSTYLEMODE
290
     1
  9
$FINGERPRINTGUID
  2
{54970F36-BC62-480D-9264-D56F4758BC5A}
  9
$VERSIONGUID
  2
{FAEB1C32-E019-11D5-929B-00C0DF256EC4}
  9
$EXTNAMES
290
     1
  9
$PSVPSCALE
 40
0.0
  9
$OLESTARTUP
290
     0
  0
ENDSEC
  0
SECTION
  2
CLASSES
  0
CLASS
  1
ACDBDICTIONARYWDFLT
  2
AcDbDictionaryWithDefault
  3
ObjectDBX Classes
 90
        0
280
     0
281
     0
  0
CLASS
  1
VISUALSTYLE
  2
AcDbVisualStyle
  3
ObjectDBX Classes
 90
     4095
280
     0
281
     0
  0
CLASS
  1
MATERIAL
  2
AcDbMaterial
  3
ObjectDBX Classes
 90
     1153
280
     0
281
     0
  0
CLASS
  1
SCALE
  2
AcDbScale
  3
ObjectDBX Classes
 90
     1153
280
     0
281
     0
  0
CLASS
  1
DICTIONARYVAR
  2
AcDbDictionaryVar
  3
ObjectDBX Classes
 90
        0
280
     0
281
     0
  0
CLASS
  1
ACDBPLACEHOLDER
  2
AcDbPlaceHolder
  3
ObjectDBX Classes
 90
        0
280
     0
281
     0
  0
CLASS
  1
LAYOUT
  2
AcDbLayout
  3
ObjectDBX Classes
 90
        0
280
     0
281
     0
  0
ENDSEC
  0
SECTION
  2
TABLES
  0
TABLE
  2
VPORT
  5
8
330
0
100
AcDbSymbolTable
 70
     1
  0
VPORT
  5
29
330
8
100
AcDbSymbolTableRecord
100
AcDbViewportTableRecord
  2
*Active
 70
     0
 10
0.0
 20
0.0
 11
1.0
 21
1.0
 12
86.5
 22
35.0
 13
0.0
 23
0.0
 14
10.0
 24
10.0
 15
10.0
 25
10.0
 16
0.0
 26
0.0
 36
1.0
 17
0.0
 27
0.0
 37
0.0
 40
100.3092237358
 41
2.0890930657
 42
50.0
 43
0.0
 44
0.0
 50
0.0
 51
0.0
 71
     0
 72
   100
 73
     1
 74
     3
 75
     0
 76
     0
 77
     0
 78
     0
281
     0
 65
     1
110
0.0
120
0.0
130
0.0
111
1.0
121
0.0
131
0.0
112
0.0
122
1.0
132
0.0
 79
     0
146
0.0
  0
ENDTAB
  0
TABLE
  2
LTYPE
  5
5
330
0
100
AcDbSymbolTable
 70
     6
  0
LTYPE
  5
14
330
5
100
AcDbSymbolTableRecord
100
AcDbLinetypeTableRecord
  2
ByBlock
 70
     0
  3

 72
    65
 73
     0
 40
0.0
  0
LTYPE
  5
15
330
5
100
AcDbSymbolTableRecord
100
AcDbLinetypeTableRecord
  2
ByLayer
 70
     0
  3

 72
    65
 73
     0
 40
0.0
  0
LTYPE
  5
16
330
5
100
AcDbSymbolTableRecord
100
AcDbLinetypeTableRecord
  2
Continuous
 70
     0
  3
Solid line
 72
    65
 73
     0
 40
0.0
  0
LTYPE
  5
3F
330
5
100
AcDbSymbolTableRecord
100
AcDbLinetypeTableRecord
  2
HIDDEN
 70
     0
  3
Hidden __ __ __ __ __ __ __ __ __ __ __ __ __ __
 72
    65
 73
     2
 40
1.905
 49
1.27
 74
     0
 49
-0.635
 74
     0
  0
LTYPE
  5
40
330
5
100
AcDbSymbolTableRecord
100
AcDbLinetypeTableRecord
  2
PHANTOM
 70
     0
  3
Phantom ______  __  __  ______  __  __  ______
 72
    65
 73
     6
 40
12.7
 49
6.35
 74
     0
 49
-1.27
 74
     0
 49
1.27
 74
     0
 49
-1.27
 74
     0
 49
1.27
 74
     0
 49
-1.27
 74
     0
  0
LTYPE
  5
41
330
5
100
AcDbSymbolTableRecord
100
AcDbLinetypeTableRecord
  2
CENTER
 70
     0
  3
Center ____ _ ____ _ ____ _ ____ _ ____ _ ____
 72
    65
 73
     4
 40
10.16
 49
6.35
 74
     0
 49
-1.27
 74
     0
 49
1.27
 74
     0
 49
-1.27
 74
     0
  0
LTYPE
  5
42
330
5
100
AcDbSymbolTableRecord
100
AcDbLinetypeTableRecord
  2
CENTERX2
 70
     0
  3
Center (2x) ________  __  ________  __  _____
 72
    65
 73
     4
 40
20.32
 49
12.7
 74
     0
 49
-2.54
 74
     0
 49
2.54
 74
     0
 49
-2.54
 74
     0
  0
LTYPE
  5
43
330
5
100
AcDbSymbolTableRecord
100
AcDbLinetypeTableRecord
  2
DOT2
 70
     0
  3
Dot (.5x) ........................................
 72
    65
 73
     2
 40
0.635
 49
0.0
 74
     0
 49
-0.635
 74
     0
  0
ENDTAB
  0
TABLE
  2
LAYER
  5
2
330
0
100
AcDbSymbolTable
 70
     1
  0
LAYER
  5
10
330
2
100
AcDbSymbolTableRecord
100
AcDbLayerTableRecord
  2
0
 70
     0
 62
     7
  6
Continuous
370
    -3
390
F
  0
ENDTAB
  0
TABLE
  2
STYLE
  5
3
330
0
100
AcDbSymbolTable
 70
     2
  0
STYLE
  5
11
330
3
100
AcDbSymbolTableRecord
100
AcDbTextStyleTableRecord
  2
Standard
 70
     0
 40
0.0
 41
1.0
 50
0.0
 71
     0
 42
3.5
  3
txt
  4

  0
STYLE
  5
128
330
3
100
AcDbSymbolTableRecord
100
AcDbTextStyleTableRecord
  2
SLDTEXTSTYLE0
 70
     0
 40
0.0
 41
0.7
 50
0.0
 71
     0
 42
0.2
  3
TXT
  4

  0
ENDTAB
  0
TABLE
  2
VIEW
  5
6
330
0
100
AcDbSymbolTable
 70
     0
  0
ENDTAB
  0
TABLE
  2
UCS
  5
7
330
0
100
AcDbSymbolTable
 70
     0
  0
ENDTAB
  0
TABLE
  2
APPID
  5
9
330
0
100
AcDbSymbolTable
 70
     1
  0
APPID
  5
12
330
9
100
AcDbSymbolTableRecord
100
AcDbRegAppTableRecord
  2
ACAD
 70
     0
  0
ENDTAB
  0
TABLE
  2
DIMSTYLE
  5
A
330
0
100
AcDbSymbolTable
 70
     1
100
AcDbDimStyleTable
  0
DIMSTYLE
105
27
330
A
100
AcDbSymbolTableRecord
100
AcDbDimStyleTableRecord
  2
ISO-25
 70
     0
 41
2.5
 42
0.625
 43
3.75
 44
1.25
 73
     0
 74
     0
 77
     1
 78
     8
140
2.5
141
2.5
143
0.0393700787
147
0.625
171
     3
172
     1
178
     0
271
     2
272
     2
274
     3
278
    44
283
     0
284
     8
340
11
  0
ENDTAB
  0
TABLE
  2
BLOCK_RECORD
  5
1
330
0
100
AcDbSymbolTable
 70
     1
  0
BLOCK_RECORD
  5
1F
330
1
100
AcDbSymbolTableRecord
100
AcDbBlockTableRecord
  2
*Model_Space
340
22
  0
BLOCK_RECORD
  5
1B
330
1
100
AcDbSymbolTableRecord
100
AcDbBlockTableRecord
  2
*Paper_Space
340
1E
  0
BLOCK_RECORD
  5
23
330
1
100
AcDbSymbolTableRecord
100
AcDbBlockTableRecord
  2
*Paper_Space0
340
26
  0
ENDTAB
  0
ENDSEC
  0
SECTION
  2
BLOCKS
  0
BLOCK
  5
20
330
1F
100
AcDbEntity
  8
0
100
AcDbBlockBegin
  2
*Model_Space
 70
     0
 10
0.0
 20
0.0
 30
0.0
  3
*Model_Space
  1

  0
ENDBLK
  5
21
330
1F
100
AcDbEntity
  8
0
100
AcDbBlockEnd
  0
BLOCK
  5
1C
330
1B
100
AcDbEntity
 67
     1
  8
0
100
AcDbBlockBegin
  2
*Paper_Space
 70
     0
 10
0.0
 20
0.0
 30
0.0
  3
*Paper_Space
  1

  0
ENDBLK
  5
1D
330
1B
100
AcDbEntity
 67
     1
  8
0
100
AcDbBlockEnd
  0
BLOCK
  5
24
330
23
100
AcDbEntity
  8
0
100
AcDbBlockBegin
  2
*Paper_Space0
 70
     0
 10
0.0
 20
0.0
 30
0.0
  3
*Paper_Space0
  1

  0
ENDBLK
  5
25
330
23
100
AcDbEntity
  8
0
100
AcDbBlockEnd
  0
ENDSEC
  0
SECTION
  2
ENTITIES
  0
LINE
  5
44
330
1F
100
AcDbEntity
  8
0
  6
CENTERX2
 62
     7
100
AcDbLine
 10
1.0594059471
 20
67.948
 30
0.0
 11
1.0594059471
 21
2.052
 31
0.0
  0
LINE
  5
45
330
1F
100
AcDbEntity
  8
0
  6
CENTERX2
 62
     7
100
AcDbLine
 10
0.0
 20
1.0594059471
 30
0.0
 11
173.0
 21
1.0594059471
 31
0.0
  0
LINE
  5
46
330
1F
100
AcDbEntity
  8
0
  6
CENTERX2
 62
     7
100
AcDbLine
 10
173.0
 20
68.9405940529
 30
0.0
 11
0.0
 21
68.9405940529
 31
0.0
  0
LINE
  5
47
330
1F
100
AcDbEntity
  8
0
  6
CENTERX2
 62
     7
100
AcDbLine
 10
171.9405940529
 20
2.052
 30
0.0
 11
171.9405940529
 21
67.948
 31
0.0
  0
LINE
  5
48
330
1F
100
AcDbEntity
  8
0
  6
CENTERX2
 62
     7
100
AcDbLine
 10
173.9331881058
 20
3.1114059471
 30
0.0
 11
187.1711881058
 21
3.1114059471
 31
0.0
  0
LINE
  5
49
330
1F
100
AcDbEntity
  8
0
  6
CENTERX2
 62
     7
100
AcDbLine
 10
-14.1711881058
 20
3.1114059471
 30
0.0
 11
-0.9331881058
 21
3.1114059471
 31
0.0
  0
LINE
  5
4A
330
1F
100
AcDbEntity
  8
0
  6
CENTERX2
 62
     7
100
AcDbLine
 10
-0.9925940529
 20
84.1711881058
 30
0.0
 11
-0.9925940529
 21
69.9331881058
 31
0.0
  0
LINE
  5
4B
330
1F
100
AcDbEntity
  8
0
  6
CENTERX2
 62
     7
100
AcDbLine
 10
173.9925940529
 20
69.9331881058
 30
0.0
 11
173.9925940529
 21
84.1711881058
 31
0.0
  0
CIRCLE
  5
4C
330
1F
100
AcDbEntity
  8
0
  6
Continuous
 62
     7
370
    15
100
AcDbCircle
 10
-7.0521881058
 20
60.829
 30
0.0
 40
1.69999999999999
  0
SPLINE
  5
64
330
1F
100
AcDbEntity
  8
0
  6
Continuous
 62
     7
370
    15
100
AcDbSpline
210
0.0
220
0.0
230
1.0
 70
     8
 71
     3
 72
    15
 73
    11
 74
     0
 42
0.00000001
 43
0.00000001
 12
1.0
 22
0.0
 32
0.0
 13
1.0
 23
0.0
 33
0.0
 40
0.0
 40
0.0
 40
0.0
 40
0.0
 40
0.1211980066629607
 40
0.2424108529896695
 40
0.3633711774366313
 40
0.4865709705108875
 40
0.6113951913771185
 40
0.7379841030784379
 40
0.8675733569322184
 40
1.0
 40
1.0
 40
1.0
 40
1.0
 10
109.845594523112
 20
37.3332578125
 30
0.0
 10
109.8233597160407
 20
37.40406190038684
 30
0.0
 10
109.7788873794354
 20
37.54567874551807
 30
0.0
 10
109.6903176848896
 20
37.74992600367685
 30
0.0
 10
109.5924780406263
 20
37.95110692589795
 30
0.0
 10
109.4765520610729
 20
38.14509703462233
 30
0.0
 10
109.3506113098724
 20
38.33672511260631
 30
0.0
 10
109.2094110054838
 20
38.52253266797066
 30
0.0
 10
109.051937150984
 20
38.70095338457556
 30
0.0
 10
108.9395197707105
 20
38.81529249007247
 30
0.0
 10
108.8827023925781
 20
38.87308113606771
 30
0.0
  0
SPLINE
  5
65
330
1F
100
AcDbEntity
  8
0
  6
Continuous
 62
     7
370
    15
100
AcDbSpline
210
0.0
220
0.0
230
1.0
 70
     8
 71
     3
 72
    15
 73
    11
 74
     0
 42
0.00000001
 43
0.00000001
 12
1.0
 22
0.0
 32
0.0
 13
1.0
 23
0.0
 33
0.0
 40
0.0
 40
0.0
 40
0.0
 40
0.0
 40
0.1438802801033688
 40
0.2809271154982882
 40
0.4106744872766485
 40
0.5362411272536849
 40
0.6548650356186148
 40
0.7712648559194457
 40
0.8858270773685928
 40
0.9999999999999999
 40
0.9999999999999999
 40
0.9999999999999999
 40
0.9999999999999999
 10
108.8827023925781
 20
38.87308113606771
 30
0.0
 10
108.8171770602272
 20
38.93429860390525
 30
0.0
 10
108.6892384532396
 20
39.05382607942418
 30
0.0
 10
108.4886399926301
 20
39.21332562842251
 30
0.0
 10
108.2835855220844
 20
39.34702212782697
 30
0.0
 10
108.0781655068159
 20
39.45762320923724
 30
0.0
 10
107.8702204255485
 20
39.54398345390494
 30
0.0
 10
107.6604872561944
 20
39.60409507578291
 30
0.0
 10
107.4481161902335
 20
39.64206869829101
 30
0.0
 10
107.30550952987
 20
39.6467078229703
 30
0.0
 10
107.2343275553385
 20
39.6490234375
 30
0.0
  0
CIRCLE
  5
66
330
1F
100
AcDbEntity
  8
0
  6
Continuous
 62
     7
370
    15
100
AcDbCircle
 10
86.5
 20
7.881
 30
0.0
 40
1.699999999999974
  0
SPLINE
  5
6A
330
1F
100
AcDbEntity
  8
0
  6
Continuous
 62
     7
370
    15
100
AcDbSpline
210
0.0
220
0.0
230
1.0
 70
     8
 71
     3
 72
    23
 73
    19
 74
     0
 42
0.00000001
 43
0.00000001
 12
1.0
 22
0.0
 32
0.0
 13
1.0
 23
0.0
 33
0.0
 40
0.0
 40
0.0
 40
0.0
 40
0.0
 40
0.0803206523470531
 40
0.1572952055240898
 40
0.2306009021222561
 40
0.3008825859259305
 40
0.3683067850469583
 40
0.4328271419703816
 40
0.4944259677121785
 40
0.5541430476467071
 40
0.6120527207327267
 40
0.6682929057003538
 40
0.7237803200251816
 40
0.7785259513472165
 40
0.8329812339381846
 40
0.8879853518335435
 40
0.943667907133001
 40
1.0
 40
1.0
 40
1.0
 40
1.0
 10
107.9399123942057
 20
30.0
 30
0.0
 10
108.0330656254485
 20
30.0013655527086
 30
0.0
 10
108.2154913929865
 20
30.00403977020653
 30
0.0
 10
108.4827094636714
 20
30.01883390234445
 30
0.0
 10
108.7367811893694
 20
30.05000752695443
 30
0.0
 10
108.9782312321242
 20
30.09015283854835
 30
0.0
 10
109.2079482079981
 20
30.13862430175615
 30
0.0
 10
109.4228605776541
 20
30.20414092026324
 30
0.0
 10
109.6255850804712
 20
30.27787008607062
 30
0.0
 10
109.8144708240196
 20
30.36509679895705
 30
0.0
 10
109.9923508408387
 20
30.46056928518001
 30
0.0
 10
110.155978955232
 20
30.57030992075996
 30
0.0
 10
110.3075127145091
 20
30.69043421624382
 30
0.0
 10
110.4441278866695
 20
30.82433041909552
 30
0.0
 10
110.569926504832
 20
30.96759274869357
 30
0.0
 10
110.6827580233141
 20
31.12269893941749
 30
0.0
 10
110.7818312048389
 20
31.28963451861162
 30
0.0
 10
110.8356812554554
 20
31.40795324042829
 30
0.0
 10
110.8627624104818
 20
31.46745564778646
 30
0.0
  0
SPLINE
  5
6B
330
1F
100
AcDbEntity
  8
0
  6
Continuous
 62
     7
370
    15
100
AcDbSpline
210
0.0
220
0.0
230
1.0
 70
     8
 71
     3
 72
    11
 73
     7
 74
     0
 42
0.00000001
 43
0.00000001
 12
1.0
 22
0.0
 32
0.0
 13
1.0
 23
0.0
 33
0.0
 40
0.0
 40
0.0
 40
0.0
 40
0.0
 40
0.2043168671374327
 40
0.4375141176595543
 40
0.7016982687865131
 40
1.0
 40
1.0
 40
1.0
 40
1.0
 10
110.8627624104818
 20
31.46745564778646
 30
0.0
 10
110.8913674261692
 20
31.54719368653242
 30
0.0
 10
110.9526208037022
 20
31.7179408115966
 30
0.0
 10
110.9963168566577
 20
32.00658287648145
 30
0.0
 10
111.0096133176051
 20
32.33603248464889
 30
0.0
 10
110.9937814770651
 20
32.56842915268173
 30
0.0
 10
110.9853854166667
 20
32.69167549641928
 30
0.0
  0
SPLINE
  5
6C
330
1F
100
AcDbEntity
  8
0
  6
Continuous
 62
     7
370
    15
100
AcDbSpline
210
0.0
220
0.0
230
1.0
 70
     8
 71
     3
 72
    11
 73
     7
 74
     0
 42
0.00000001
 43
0.00000001
 12
1.0
 22
0.0
 32
0.0
 13
1.0
 23
0.0
 33
0.0
 40
0.0
 40
0.0
 40
0.0
 40
0.0
 40
0.1666619471060429
 40
0.3910211976019993
 40
0.6666761057879238
 40
1.0
 40
1.0
 40
1.0
 40
1.0
 10
110.9853854166666
 20
32.69167549641927
 30
0.0
 10
110.9819120260961
 20
32.72248591118727
 30
0.0
 10
110.9737627792873
 20
32.79477310985734
 30
0.0
 10
110.9633327470948
 20
32.91838193032198
 30
0.0
 10
110.9431582917675
 20
33.0721247238624
 30
0.0
 10
110.9314742615745
 20
33.18481399332325
 30
0.0
 10
110.9250790201823
 20
33.24649434407552
 30
0.0
  0
SPLINE
  5
70
330
1F
100
AcDbEntity
  8
0
  6
Continuous
 62
     7
370
    15
100
AcDbSpline
210
0.0
220
0.0
230
1.0
 70
     8
 71
     3
 72
     9
 73
     5
 74
     0
 42
0.00000001
 43
0.00000001
 12
1.0
 22
0.0
 32
0.0
 13
1.0
 23
0.0
 33
0.0
 40
0.0
 40
0.0
 40
0.0
 40
0.0
 40
0.5012548561812914
 40
1.0
 40
1.0
 40
1.0
 40
1.0
 10
107.668533610026
 20
33.27865775553386
 30
0.0
 10
107.6528038455439
 20
33.21775818971079
 30
0.0
 10
107.6214230732918
 20
33.09626397360081
 30
0.0
 10
107.5938407688909
 20
32.97385155134064
 30
0.0
 10
107.5800842285156
 20
32.91279895019531
 30
0.0
  0
SPLINE
  5
71
330
1F
100
AcDbEntity
  8
0
  6
Continuous
 62
     7
370
    15
100
AcDbSpline
210
0.0
220
0.0
230
1.0
 70
     8
 71
     3
 72
    11
 73
     7
 74
     0
 42
0.00000001
 43
0.00000001
 12
1.0
 22
0.0
 32
0.0
 13
1.0
 23
0.0
 33
0.0
 40
0.0
 40
0.0
 40
0.0
 40
0.0
 40
0.2246515004513331
 40
0.4571039761843098
 40
0.7108050054034409
 40
0.9999999999999999
 40
0.9999999999999999
 40
0.9999999999999999
 40
0.9999999999999999
 10
107.5800842285156
 20
32.91279895019531
 30
0.0
 10
107.5553837576925
 20
32.8715726464897
 30
0.0
 10
107.5051250974825
 20
32.78768846450403
 30
0.0
 10
107.386367139221
 20
32.68992814379774
 30
0.0
 10
107.2371988672673
 20
32.61716303347447
 30
0.0
 10
107.1251544997884
 20
32.58839653008136
 30
0.0
 10
107.0654696451823
 20
32.57307291666667
 30
0.0
  0
SPLINE
  5
78
330
1F
100
AcDbEntity
  8
0
  6
Continuous
 62
     7
370
    15
100
AcDbSpline
210
0.0
220
0.0
230
1.0
 70
     8
 71
     3
 72
    15
 73
    11
 74
     0
 42
0.00000001
 43
0.00000001
 12
1.0
 22
0.0
 32
0.0
 13
1.0
 23
0.0
 33
0.0
 40
0.0
 40
0.0
 40
0.0
 40
0.0
 40
0.1119037012634201
 40
0.2258686540657842
 40
0.3418582336754961
 40
0.4610147469650627
 40
0.5858588864055939
 40
0.7173793137609855
 40
0.8549288251388263
 40
1.0
 40
1.0
 40
1.0
 40
1.0
 10
70.59819169108073
 20
36.30402864583333
 30
0.0
 10
70.60994390822327
 20
36.23396379136103
 30
0.0
 10
70.63366481681076
 20
36.09254349696234
 30
0.0
 10
70.7000746992345
 20
35.88548257286531
 30
0.0
 10
70.78669251220332
 20
35.68148078519928
 30
0.0
 10
70.89649124192502
 20
35.48088451539681
 30
0.0
 10
71.03010952335686
 20
35.28336669078196
 30
0.0
 10
71.18746551789276
 20
35.08908538319006
 30
0.0
 10
71.36660435166468
 20
34.89656105753617
 30
0.0
 10
71.50043068276189
 20
34.7772192100534
 30
0.0
 10
71.56912467447917
 20
34.71596020507813
 30
0.0
  0
SPLINE
  5
79
330
1F
100
AcDbEntity
  8
0
  6
Continuous
 62
     7
370
    15
100
AcDbSpline
210
0.0
220
0.0
230
1.0
 70
     8
 71
     3
 72
    11
 73
     7
 74
     0
 42
0.00000001
 43
0.00000001
 12
1.0
 22
0.0
 32
0.0
 13
1.0
 23
0.0
 33
0.0
 40
0.0
 40
0.0
 40
0.0
 40
0.0
 40
0.3134377355450786
 40
0.5817173133363093
 40
0.8117514361679875
 40
0.9999999999999999
 40
0.9999999999999999
 40
0.9999999999999999
 40
0.9999999999999999
 10
71.56912467447916
 20
34.71596020507813
 30
0.0
 10
71.63215893642003
 20
34.66289563846566
 30
0.0
 10
71.74914587623638
 20
34.56441171766561
 30
0.0
 10
71.92137016350017
 20
34.43850495039871
 30
0.0
 10
72.07406220899318
 20
34.34132035795309
 30
0.0
 10
72.17500454971606
 20
34.29746905089926
 30
0.0
 10
72.22043375651042
 20
34.27773372395833
 30
0.0
  0
SPLINE
  5
7A
330
1F
100
AcDbEntity
  8
0
  6
Continuous
 62
     7
370
    15
100
AcDbSpline
210
0.0
220
0.0
230
1.0
 70
     8
 71
     3
 72
    11
 73
     7
 74
     0
 42
0.00000001
 43
0.00000001
 12
1.0
 22
0.0
 32
0.0
 13
1.0
 23
0.0
 33
0.0
 40
0.0
 40
0.0
 40
0.0
 40
0.0
 40
0.2608957663281097
 40
0.5087881356539018
 40
0.7552987308678996
 40
1.0
 40
1.0
 40
1.0
 40
1.0
 10
72.22043375651042
 20
34.27773372395833
 30
0.0
 10
72.17085592353064
 20
34.19530879379207
 30
0.0
 10
72.07417128365873
 20
34.03456710318923
 30
0.0
 10
71.97591328000314
 20
33.77335168581902
 30
0.0
 10
71.91237769584997
 20
33.50754586223722
 30
0.0
 10
71.90465632176172
 20
33.32658862723672
 30
0.0
 10
71.90080985514322
 20
33.23644327799479
 30
0.0
  0
SPLINE
  5
7B
330
1F
100
AcDbEntity
  8
0
  6
Continuous
 62
     7
370
    15
100
AcDbSpline
210
0.0
220
0.0
230
1.0
 70
     8
 71
     3
 72
    11
 73
     7
 74
     0
 42
0.00000001
 43
0.00000001
 12
1.0
 22
0.0
 32
0.0
 13
1.0
 23
0.0
 33
0.0
 40
0.0
 40
0.0
 40
0.0
 40
0.0
 40
0.1944376424331018
 40
0.4271525952102161
 40
0.6939381936879906
 40
1.0
 40
1.0
 40
1.0
 40
1.0
 10
71.90080985514322
 20
33.23644327799479
 30
0.0
 10
71.90216012416062
 20
33.1774397929198
 30
0.0
 10
71.905126478349
 20
33.04781730078892
 30
0.0
 10
71.92546837635453
 20
32.8381125434104
 30
0.0
 10
71.95252078612593
 20
32.59514805003781
 30
0.0
 10
71.98039643244202
 20
32.42353631604976
 30
0.0
 10
71.99528987630208
 20
32.33184733072917
 30
0.0
  0
SPLINE
  5
7C
330
1F
100
AcDbEntity
  8
0
  6
Continuous
 62
     7
370
    15
100
AcDbSpline
210
0.0
220
0.0
230
1.0
 70
     8
 71
     3
 72
    15
 73
    11
 74
     0
 42
0.00000001
 43
0.00000001
 12
1.0
 22
0.0
 32
0.0
 13
1.0
 23
0.0
 33
0.0
 40
0.0
 40
0.0
 40
0.0
 40
0.0
 40
0.0486840555791132
 40
0.1192636363099809
 40
0.211063580755576
 40
0.3254624594294785
 40
0.4608983837228279
 40
0.6191978750022403
 40
0.7985498023097719
 40
1.0
 40
1.0
 40
1.0
 40
1.0
 10
71.99528987630208
 20
32.33184733072917
 30
0.0
 10
72.00292273491962
 20
32.29288964550037
 30
0.0
 10
72.02162131011715
 20
32.19745315921469
 30
0.0
 10
72.06771200074634
 20
32.03153810891647
 30
0.0
 10
72.13319720356724
 20
31.81566172603575
 30
0.0
 10
72.21497694082525
 20
31.54942091866307
 30
0.0
 10
72.31611544734298
 20
31.23245237917494
 30
0.0
 10
72.43671081597603
 20
30.86612853481021
 30
0.0
 10
72.57530955605502
 20
30.44907760413175
 30
0.0
 10
72.67583708619497
 20
30.15537382781567
 30
0.0
 10
72.7290177001953
 20
30.0
 30
0.0
  0
SPLINE
  5
8B
330
1F
100
AcDbEntity
  8
0
  6
Continuous
 62
     7
370
    15
100
AcDbSpline
210
0.0
220
0.0
230
1.0
 70
     8
 71
     3
 72
    15
 73
    11
 74
     0
 42
0.00000001
 43
0.00000001
 12
1.0
 22
0.0
 32
0.0
 13
1.0
 23
0.0
 33
0.0
 40
0.0
 40
0.0
 40
0.0
 40
0.0
 40
0.0860165100326725
 40
0.1833995945071828
 40
0.2897735031960883
 40
0.4088143079306732
 40
0.5380332366822308
 40
0.6793420547264043
 40
0.8340983154364866
 40
1.0
 40
1.0
 40
1.0
 40
1.0
 10
70.68664107259113
 20
38.89921390787761
 30
0.0
 10
70.66641713834936
 20
38.85801661729599
 30
0.0
 10
70.62329679624442
 20
38.7701780571801
 30
0.0
 10
70.57222973665996
 20
38.62391231977821
 30
0.0
 10
70.5310526421323
 20
38.4567092291353
 30
0.0
 10
70.49426662114132
 20
38.27108854253049
 30
0.0
 10
70.46995434969088
 20
38.06467000855076
 30
0.0
 10
70.44919686884565
 20
37.83884515673598
 30
0.0
 10
70.43755959181271
 20
37.59269568362647
 30
0.0
 10
70.43611290561824
 20
37.4217180488617
 30
0.0
 10
70.43536442057291
 20
37.3332578125
 30
0.0
  0
SPLINE
  5
8F
330
1F
100
AcDbEntity
  8
0
  6
Continuous
 62
     7
370
    15
100
AcDbSpline
210
0.0
220
0.0
230
1.0
 70
     8
 71
     3
 72
    11
 73
     7
 74
     0
 42
0.00000001
 43
0.00000001
 12
1.0
 22
0.0
 32
0.0
 13
1.0
 23
0.0
 33
0.0
 40
0.0
 40
0.0
 40
0.0
 40
0.0
 40
0.2283954419752207
 40
0.4671115596802492
 40
0.7244179581332796
 40
1.0
 40
1.0
 40
1.0
 40
1.0
 10
71.82643196614583
 20
39.64902343750001
 30
0.0
 10
71.77250665394567
 20
39.64640814662433
 30
0.0
 10
71.66221926611419
 20
39.64105938576733
 30
0.0
 10
71.49740066592601
 20
39.59237951809939
 30
0.0
 10
71.32961930122606
 20
39.52104128527844
 30
0.0
 10
71.2238108458888
 20
39.45302393516652
 30
0.0
 10
71.16909224446613
 20
39.41784891764323
 30
0.0
  0
SPLINE
  5
90
330
1F
100
AcDbEntity
  8
0
  6
Continuous
 62
     7
370
    15
100
AcDbSpline
210
0.0
220
0.0
230
1.0
 70
     8
 71
     3
 72
    11
 73
     7
 74
     0
 42
0.00000001
 43
0.00000001
 12
1.0
 22
0.0
 32
0.0
 13
1.0
 23
0.0
 33
0.0
 40
0.0
 40
0.0
 40
0.0
 40
0.0
 40
0.264895841173793
 40
0.5174911528564918
 40
0.7612447442384582
 40
1.0
 40
1.0
 40
1.0
 40
1.0
 10
71.16909224446613
 20
39.41784891764323
 30
0.0
 10
71.11787602776882
 20
39.38082843418886
 30
0.0
 10
71.01782183701144
 20
39.30850652616188
 30
0.0
 10
70.88682258872318
 20
39.18235343361795
 30
0.0
 10
70.77382517140866
 20
39.04763907145016
 30
0.0
 10
70.71550104458707
 20
38.94834610196224
 30
0.0
 10
70.68664107259113
 20
38.89921390787761
 30
0.0
  0
CIRCLE
  5
95
330
1F
100
AcDbEntity
  8
0
  6
Continuous
 62
     7
370
    15
100
AcDbCircle
 10
180.0521881058
 20
60.829
 30
0.0
 40
1.69999999999996
  0
CIRCLE
  5
96
330
1F
100
AcDbEntity
  8
0
  6
Continuous
 62
     7
370
    15
100
AcDbCircle
 10
180.5521881058
 20
-5.0001881058
 30
0.0
 40
1.699999999999989
  0
CIRCLE
  5
97
330
1F
100
AcDbEntity
  8
0
  6
Continuous
 62
     7
370
    15
100
AcDbCircle
 10
163.829
 20
-7.5521881058
 30
0.0
 40
1.700000000000016
  0
CIRCLE
  5
98
330
1F
100
AcDbEntity
  8
0
  6
Continuous
 62
     7
370
    15
100
AcDbCircle
 10
9.171
 20
-7.5521881058
 30
0.0
 40
1.699999999999992
  0
CIRCLE
  5
99
330
1F
100
AcDbEntity
  8
0
  6
Continuous
 62
     7
370
    15
100
AcDbCircle
 10
-7.5521881058
 20
-5.0001881058
 30
0.0
 40
1.699999999999986
  0
CIRCLE
  5
9A
330
1F
100
AcDbEntity
  8
0
  6
Continuous
 62
     7
370
    15
100
AcDbCircle
 10
182.1041881058
 20
77.0521881058
 30
0.0
 40
1.699999999999989
  0
CIRCLE
  5
9B
330
1F
100
AcDbEntity
  8
0
  6
Continuous
 62
     7
370
    15
100
AcDbCircle
 10
-9.1041881058
 20
77.0521881058
 30
0.0
 40
1.69999999999999
  0
CIRCLE
  5
B4
330
1F
100
AcDbEntity
  8
0
  6
Continuous
 62
     7
370
    15
100
AcDbCircle
 10
143.0
 20
77.0521881058
 30
0.0
 40
1.650000000000063
  0
CIRCLE
  5
B5
330
1F
100
AcDbEntity
  8
0
  6
Continuous
 62
     7
370
    15
100
AcDbCircle
 10
30.0
 20
77.0521881058
 30
0.0
 40
1.649999999999991
  0
LINE
  5
B6
330
1F
100
AcDbEntity
  8
0
  6
Continuous
 62
     7
370
    15
100
AcDbLine
 10
61.0758116862
 20
30.0
 30
0.0
 11
63.3674547526
 21
34.4727244059
 31
0.0
  0
LINE
  5
B7
330
1F
100
AcDbEntity
  8
0
  6
Continuous
 62
     7
370
    15
100
AcDbLine
 10
64.543429484
 20
30.0
 30
0.0
 11
61.0758116862
 21
30.0
 31
0.0
  0
LINE
  5
B8
330
1F
100
AcDbEntity
  8
0
  6
Continuous
 62
     7
370
    15
100
AcDbLine
 10
66.5033873698
 20
33.8817217204
 30
0.0
 11
64.543429484
 21
30.0
 31
0.0
  0
LINE
  5
B9
330
1F
100
AcDbEntity
  8
0
  6
Continuous
 62
     7
370
    15
100
AcDbLine
 10
67.6150352783
 20
30.0
 30
0.0
 11
66.5033873698
 21
33.8817217204
 31
0.0
  0
LINE
  5
BA
330
1F
100
AcDbEntity
  8
0
  6
Continuous
 62
     7
370
    15
100
AcDbLine
 10
70.9741015625
 20
30.0
 30
0.0
 11
67.6150352783
 21
30.0
 31
0.0
  0
LINE
  5
BB
330
1F
100
AcDbEntity
  8
0
  6
Continuous
 62
     7
370
    15
100
AcDbLine
 10
69.1427973226
 20
36.3502635498
 30
0.0
 11
70.9741015625
 21
30.0
 31
0.0
  0
LINE
  5
BC
330
1F
100
AcDbEntity
  8
0
  6
Continuous
 62
     7
370
    15
100
AcDbLine
 10
61.5100177409
 20
36.3502635498
 30
0.0
 11
69.1427973226
 21
36.3502635498
 31
0.0
  0
LINE
  5
BD
330
1F
100
AcDbEntity
  8
0
  6
Continuous
 62
     7
370
    15
100
AcDbLine
 10
63.3674547526
 20
34.4727244059
 30
0.0
 11
61.5100177409
 21
36.3502635498
 31
0.0
  0
LINE
  5
BE
330
1F
100
AcDbEntity
  8
0
  6
Continuous
 62
     7
370
    15
100
AcDbLine
 10
58.4484630127
 20
39.6490234375
 30
0.0
 11
62.4306953939
 21
39.6490234375
 31
0.0
  0
LINE
  5
BF
330
1F
100
AcDbEntity
  8
0
  6
Continuous
 62
     7
370
    15
100
AcDbLine
 10
60.6677384033
 20
37.3332578125
 30
0.0
 11
58.4484630127
 21
39.6490234375
 31
0.0
  0
LINE
  5
C0
330
1F
100
AcDbEntity
  8
0
  6
Continuous
 62
     7
370
    15
100
AcDbLine
 10
64.6901750488
 20
37.3332578125
 30
0.0
 11
60.6677384033
 21
37.3332578125
 31
0.0
  0
LINE
  5
C1
330
1F
100
AcDbEntity
  8
0
  6
Continuous
 62
     7
370
    15
100
AcDbLine
 10
62.4306953939
 20
39.6490234375
 30
0.0
 11
64.6901750488
 21
37.3332578125
 31
0.0
  0
LINE
  5
C2
330
1F
100
AcDbEntity
  8
0
  6
Continuous
 62
     7
370
    15
100
AcDbLine
 10
83.3168107096
 20
37.3332578125
 30
0.0
 11
83.8113231608
 21
39.6490234375
 31
0.0
  0
LINE
  5
C3
330
1F
100
AcDbEntity
  8
0
  6
Continuous
 62
     7
370
    15
100
AcDbLine
 10
89.3132767334
 20
37.3332578125
 30
0.0
 11
83.3168107096
 21
37.3332578125
 31
0.0
  0
LINE
  5
C4
330
1F
100
AcDbEntity
  8
0
  6
Continuous
 62
     7
370
    15
100
AcDbLine
 10
87.319145223
 20
39.6490234375
 30
0.0
 11
89.3132767334
 21
37.3332578125
 31
0.0
  0
LINE
  5
C5
330
1F
100
AcDbEntity
  8
0
  6
Continuous
 62
     7
370
    15
100
AcDbLine
 10
83.8113231608
 20
39.6490234375
 30
0.0
 11
87.319145223
 21
39.6490234375
 31
0.0
  0
LINE
  5
C6
330
1F
100
AcDbEntity
  8
0
  6
Continuous
 62
     7
370
    15
100
AcDbLine
 10
95.3861308594
 20
39.6490234375
 30
0.0
 11
98.7994729004
 21
39.6289213053
 31
0.0
  0
LINE
  5
C7
330
1F
100
AcDbEntity
  8
0
  6
Continuous
 62
     7
370
    15
100
AcDbLine
 10
96.0716135661
 20
37.3332578125
 30
0.0
 11
95.3861308594
 21
39.6490234375
 31
0.0
  0
LINE
  5
C8
330
1F
100
AcDbEntity
  8
0
  6
Continuous
 62
     7
370
    15
100
AcDbLine
 10
99.4367104899
 20
37.3332578125
 30
0.0
 11
96.0716135661
 21
37.3332578125
 31
0.0
  0
LINE
  5
C9
330
1F
100
AcDbEntity
  8
0
  6
Continuous
 62
     7
370
    15
100
AcDbLine
 10
98.7994729004
 20
39.6289213053
 30
0.0
 11
99.4367104899
 21
37.3332578125
 31
0.0
  0
LINE
  5
CA
330
1F
100
AcDbEntity
  8
0
  6
Continuous
 62
     7
370
    15
100
AcDbLine
 10
100.8438597412
 20
39.6490234375
 30
0.0
 11
107.2343275553
 21
39.6490234375
 31
0.0
  0
LINE
  5
CB
330
1F
100
AcDbEntity
  8
0
  6
Continuous
 62
     7
370
    15
100
AcDbLine
 10
101.5293424479
 20
37.3332578125
 30
0.0
 11
100.8438597412
 21
39.6490234375
 31
0.0
  0
LINE
  5
CC
330
1F
100
AcDbEntity
  8
0
  6
Continuous
 62
     7
370
    15
100
AcDbLine
 10
109.8455945231
 20
37.3332578125
 30
0.0
 11
101.5293424479
 21
37.3332578125
 31
0.0
  0
LINE
  5
CD
330
1F
100
AcDbEntity
  8
0
  6
Continuous
 62
     7
370
    15
100
AcDbLine
 10
102.8118584798
 20
32.5730729167
 30
0.0
 11
107.0654696452
 21
32.5730729167
 31
0.0
  0
LINE
  5
CE
330
1F
100
AcDbEntity
  8
0
  6
Continuous
 62
     7
370
    15
100
AcDbLine
 10
103.5375454508
 20
30.0
 30
0.0
 11
102.8118584798
 21
32.5730729167
 31
0.0
  0
LINE
  5
CF
330
1F
100
AcDbEntity
  8
0
  6
Continuous
 62
     7
370
    15
100
AcDbLine
 10
107.9399123942
 20
30.0
 30
0.0
 11
103.5375454508
 21
30.0
 31
0.0
  0
LINE
  5
D0
330
1F
100
AcDbEntity
  8
0
  6
Continuous
 62
     7
370
    15
100
AcDbLine
 10
110.1169733073
 20
36.3301614176
 30
0.0
 11
110.9250790202
 21
33.2464943441
 31
0.0
  0
LINE
  5
D1
330
1F
100
AcDbEntity
  8
0
  6
Continuous
 62
     7
370
    15
100
AcDbLine
 10
106.6714678548
 20
36.3502635498
 30
0.0
 11
110.1169733073
 21
36.3301614176
 31
0.0
  0
LINE
  5
D2
330
1F
100
AcDbEntity
  8
0
  6
Continuous
 62
     7
370
    15
100
AcDbLine
 10
107.66853361
 20
33.2786577555
 30
0.0
 11
106.6714678548
 21
36.3502635498
 31
0.0
  0
LINE
  5
D3
330
1F
100
AcDbEntity
  8
0
  6
Continuous
 62
     7
370
    15
100
AcDbLine
 10
93.2449437951
 20
32.315765625
 30
0.0
 11
97.4164462077
 21
32.315765625
 31
0.0
  0
LINE
  5
D4
330
1F
100
AcDbEntity
  8
0
  6
Continuous
 62
     7
370
    15
100
AcDbLine
 10
90.0590658366
 20
36.4326822917
 30
0.0
 11
93.2449437951
 21
32.315765625
 31
0.0
  0
LINE
  5
D5
330
1F
100
AcDbEntity
  8
0
  6
Continuous
 62
     7
370
    15
100
AcDbLine
 10
83.1258404541
 20
36.4326822917
 30
0.0
 11
90.0590658366
 21
36.4326822917
 31
0.0
  0
LINE
  5
D6
330
1F
100
AcDbEntity
  8
0
  6
Continuous
 62
     7
370
    15
100
AcDbLine
 10
82.0416741015
 20
31.2929306943
 30
0.0
 11
83.1258404541
 21
36.4326822917
 31
0.0
  0
LINE
  5
D7
330
1F
100
AcDbEntity
  8
0
  6
Continuous
 62
     7
370
    15
100
AcDbLine
 10
80.5587981771
 20
36.3040286458
 30
0.0
 11
82.0416741015
 21
31.2929306943
 31
0.0
  0
LINE
  5
D8
330
1F
100
AcDbEntity
  8
0
  6
Continuous
 62
     7
370
    15
100
AcDbLine
 10
70.5981916911
 20
36.3040286458
 30
0.0
 11
80.5587981771
 21
36.3040286458
 31
0.0
  0
LINE
  5
D9
330
1F
100
AcDbEntity
  8
0
  6
Continuous
 62
     7
370
    15
100
AcDbLine
 10
75.842837972
 20
30.0
 30
0.0
 11
72.7290177002
 21
30.0
 31
0.0
  0
LINE
  5
DA
330
1F
100
AcDbEntity
  8
0
  6
Continuous
 62
     7
370
    15
100
AcDbLine
 10
74.7311900635
 20
33.7309557292
 30
0.0
 11
75.842837972
 21
30.0
 31
0.0
  0
LINE
  5
DB
330
1F
100
AcDbEntity
  8
0
  6
Continuous
 62
     7
370
    15
100
AcDbLine
 10
78.0078376058
 20
33.7309557292
 30
0.0
 11
74.7311900635
 21
33.7309557292
 31
0.0
  0
LINE
  5
DC
330
1F
100
AcDbEntity
  8
0
  6
Continuous
 62
     7
370
    15
100
AcDbLine
 10
79.1878327637
 20
30.0
 30
0.0
 11
78.0078376058
 21
33.7309557292
 31
0.0
  0
LINE
  5
DD
330
1F
100
AcDbEntity
  8
0
  6
Continuous
 62
     7
370
    15
100
AcDbLine
 10
85.2566664632
 20
30.0
 30
0.0
 11
79.1878327637
 21
30.0
 31
0.0
  0
LINE
  5
DE
330
1F
100
AcDbEntity
  8
0
  6
Continuous
 62
     7
370
    15
100
AcDbLine
 10
86.1994564616
 20
33.859609375
 30
0.0
 11
85.2566664632
 21
30.0
 31
0.0
  0
LINE
  5
DF
330
1F
100
AcDbEntity
  8
0
  6
Continuous
 62
     7
370
    15
100
AcDbLine
 10
88.1674552002
 20
33.859609375
 30
0.0
 11
86.1994564616
 21
33.859609375
 31
0.0
  0
LINE
  5
E0
330
1F
100
AcDbEntity
  8
0
  6
Continuous
 62
     7
370
    15
100
AcDbLine
 10
90.9616515706
 20
30.0
 30
0.0
 11
88.1674552002
 21
33.859609375
 31
0.0
  0
LINE
  5
E1
330
1F
100
AcDbEntity
  8
0
  6
Continuous
 62
     7
370
    15
100
AcDbLine
 10
94.7040447034
 20
30.0055442861
 30
0.0
 11
90.9616515706
 21
30.0
 31
0.0
  0
LINE
  5
E2
330
1F
100
AcDbEntity
  8
0
  6
Continuous
 62
     7
370
    15
100
AcDbLine
 10
94.7086890055
 20
30.0
 30
0.0
 11
94.7040447034
 21
30.0055442861
 31
0.0
  0
LINE
  5
E3
330
1F
100
AcDbEntity
  8
0
  6
Continuous
 62
     7
370
    15
100
AcDbLine
 10
101.465015625
 20
30.0
 30
0.0
 11
94.7086890055
 21
30.0
 31
0.0
  0
LINE
  5
E4
330
1F
100
AcDbEntity
  8
0
  6
Continuous
 62
     7
370
    15
100
AcDbLine
 10
99.6739156494
 20
36.3502635498
 30
0.0
 11
101.465015625
 21
30.0
 31
0.0
  0
LINE
  5
E5
330
1F
100
AcDbEntity
  8
0
  6
Continuous
 62
     7
370
    15
100
AcDbLine
 10
96.3027880859
 20
36.3502635498
 30
0.0
 11
99.6739156494
 21
36.3502635498
 31
0.0
  0
LINE
  5
E6
330
1F
100
AcDbEntity
  8
0
  6
Continuous
 62
     7
370
    15
100
AcDbLine
 10
97.4164462077
 20
32.315765625
 30
0.0
 11
96.3027880859
 21
36.3502635498
 31
0.0
  0
LINE
  5
E7
330
1F
100
AcDbEntity
  8
0
  6
Continuous
 62
     7
370
    15
100
AcDbLine
 10
81.2040766195
 20
37.3332578125
 30
0.0
 11
70.4353644206
 21
37.3332578125
 31
0.0
  0
LINE
  5
E8
330
1F
100
AcDbEntity
  8
0
  6
Continuous
 62
     7
370
    15
100
AcDbLine
 10
79.7326005452
 20
39.6490234375
 30
0.0
 11
81.2040766195
 21
37.3332578125
 31
0.0
  0
LINE
  5
E9
330
1F
100
AcDbEntity
  8
0
  6
Continuous
 62
     7
370
    15
100
AcDbLine
 10
71.8264319661
 20
39.6490234375
 30
0.0
 11
79.7326005452
 21
39.6490234375
 31
0.0
  0
LINE
  5
EA
330
1F
100
AcDbEntity
  8
0
  6
Continuous
 62
     7
370
    15
100
AcDbLine
 10
64.9213495687
 20
39.6490234375
 30
0.0
 11
68.2180992432
 21
39.6490234375
 31
0.0
  0
LINE
  5
EB
330
1F
100
AcDbEntity
  8
0
  6
Continuous
 62
     7
370
    15
100
AcDbLine
 10
65.5867301432
 20
37.3332578125
 30
0.0
 11
64.9213495687
 21
39.6490234375
 31
0.0
  0
LINE
  5
EC
330
1F
100
AcDbEntity
  8
0
  6
Continuous
 62
     7
370
    15
100
AcDbLine
 10
68.8834798177
 20
37.3332578125
 30
0.0
 11
65.5867301432
 21
37.3332578125
 31
0.0
  0
LINE
  5
ED
330
1F
100
AcDbEntity
  8
0
  6
Continuous
 62
     7
370
    15
100
AcDbLine
 10
68.2180992432
 20
39.6490234375
 30
0.0
 11
68.8834798177
 21
37.3332578125
 31
0.0
  0
LINE
  5
EE
330
1F
100
AcDbEntity
  8
0
  6
Continuous
 62
     7
370
    15
100
AcDbLine
 10
189.2231881058
 20
84.1711881058
 30
0.0
 11
189.2231881058
 21
69.9331881058
 31
0.0
  0
LINE
  5
EF
330
1F
100
AcDbEntity
  8
0
  6
Continuous
 62
     7
370
    15
100
AcDbLine
 10
189.2231881058
 20
69.9331881058
 30
0.0
 11
173.0
 21
69.9331881058
 31
0.0
  0
LINE
  5
F0
330
1F
100
AcDbEntity
  8
0
  6
Continuous
 62
     7
370
    15
100
AcDbLine
 10
173.0
 20
69.9331881058
 30
0.0
 11
173.0
 21
67.948
 31
0.0
  0
LINE
  5
F1
330
1F
100
AcDbEntity
  8
0
  6
Continuous
 62
     7
370
    15
100
AcDbLine
 10
173.0
 20
67.948
 30
0.0
 11
187.1711881058
 21
67.948
 31
0.0
  0
LINE
  5
F2
330
1F
100
AcDbEntity
  8
0
  6
Continuous
 62
     7
370
    15
100
AcDbLine
 10
187.1711881058
 20
67.948
 30
0.0
 11
187.1711881058
 21
-12.1191881058
 31
0.0
  0
LINE
  5
F3
330
1F
100
AcDbEntity
  8
0
  6
Continuous
 62
     7
370
    15
100
AcDbLine
 10
187.1711881058
 20
-12.1191881058
 30
0.0
 11
173.9331881058
 21
-12.1191881058
 31
0.0
  0
LINE
  5
F4
330
1F
100
AcDbEntity
  8
0
  6
Continuous
 62
     7
370
    15
100
AcDbLine
 10
173.9331881058
 20
-12.1191881058
 30
0.0
 11
173.9331881058
 21
4.749
 31
0.0
  0
LINE
  5
F5
330
1F
100
AcDbEntity
  8
0
  6
Continuous
 62
     7
370
    15
100
AcDbLine
 10
173.9331881058
 20
4.749
 30
0.0
 11
173.2881881058
 21
4.749
 31
0.0
  0
LINE
  5
F6
330
1F
100
AcDbEntity
  8
0
  6
Continuous
 62
     7
370
    15
100
AcDbLine
 10
173.2881881058
 20
4.749
 30
0.0
 11
173.2881881058
 21
2.052
 31
0.0
  0
LINE
  5
F7
330
1F
100
AcDbEntity
  8
0
  6
Continuous
 62
     7
370
    15
100
AcDbLine
 10
173.2881881058
 20
2.052
 30
0.0
 11
172.9331881058
 21
2.052
 31
0.0
  0
LINE
  5
F8
330
1F
100
AcDbEntity
  8
0
  6
Continuous
 62
     7
370
    15
100
AcDbLine
 10
173.0
 20
2.052
 30
0.0
 11
173.0
 21
-14.1711881058
 31
0.0
  0
LINE
  5
F9
330
1F
100
AcDbEntity
  8
0
  6
Continuous
 62
     7
370
    15
100
AcDbLine
 10
173.0
 20
-14.1711881058
 30
0.0
 11
0.0
 21
-14.1711881058
 31
0.0
  0
LINE
  5
FA
330
1F
100
AcDbEntity
  8
0
  6
Continuous
 62
     7
370
    15
100
AcDbLine
 10
0.0
 20
-14.1711881058
 30
0.0
 11
0.0
 21
2.052
 31
0.0
  0
LINE
  5
FB
330
1F
100
AcDbEntity
  8
0
  6
Continuous
 62
     7
370
    15
100
AcDbLine
 10
0.0668118942
 20
2.052
 30
0.0
 11
-0.2881881058
 21
2.052
 31
0.0
  0
LINE
  5
FC
330
1F
100
AcDbEntity
  8
0
  6
Continuous
 62
     7
370
    15
100
AcDbLine
 10
-0.2881881058
 20
2.052
 30
0.0
 11
-0.2881881058
 21
4.749
 31
0.0
  0
LINE
  5
FD
330
1F
100
AcDbEntity
  8
0
  6
Continuous
 62
     7
370
    15
100
AcDbLine
 10
-0.2881881058
 20
4.749
 30
0.0
 11
-0.9331881058
 21
4.749
 31
0.0
  0
LINE
  5
FE
330
1F
100
AcDbEntity
  8
0
  6
Continuous
 62
     7
370
    15
100
AcDbLine
 10
-0.9331881058
 20
4.749
 30
0.0
 11
-0.9331881058
 21
-12.1191881058
 31
0.0
  0
LINE
  5
FF
330
1F
100
AcDbEntity
  8
0
  6
Continuous
 62
     7
370
    15
100
AcDbLine
 10
-0.9331881058
 20
-12.1191881058
 30
0.0
 11
-14.1711881058
 21
-12.1191881058
 31
0.0
  0
LINE
  5
100
330
1F
100
AcDbEntity
  8
0
  6
Continuous
 62
     7
370
    15
100
AcDbLine
 10
-14.1711881058
 20
-12.1191881058
 30
0.0
 11
-14.1711881058
 21
67.948
 31
0.0
  0
LINE
  5
101
330
1F
100
AcDbEntity
  8
0
  6
Continuous
 62
     7
370
    15
100
AcDbLine
 10
-14.1711881058
 20
67.948
 30
0.0
 11
0.0
 21
67.948
 31
0.0
  0
LINE
  5
102
330
1F
100
AcDbEntity
  8
0
  6
Continuous
 62
     7
370
    15
100
AcDbLine
 10
0.0
 20
67.948
 30
0.0
 11
0.0
 21
69.9331881058
 31
0.0
  0
LINE
  5
103
330
1F
100
AcDbEntity
  8
0
  6
Continuous
 62
     7
370
    15
100
AcDbLine
 10
0.0
 20
69.9331881058
 30
0.0
 11
-16.2231881058
 21
69.9331881058
 31
0.0
  0
LINE
  5
104
330
1F
100
AcDbEntity
  8
0
  6
Continuous
 62
     7
370
    15
100
AcDbLine
 10
-16.2231881058
 20
69.9331881058
 30
0.0
 11
-16.2231881058
 21
84.1711881058
 31
0.0
  0
LINE
  5
105
330
1F
100
AcDbEntity
  8
0
  6
Continuous
 62
     7
370
    15
100
AcDbLine
 10
-16.2231881058
 20
84.1711881058
 30
0.0
 11
189.2231881058
 21
84.1711881058
 31
0.0
  0
MTEXT
  5
129
330
1F
100
AcDbEntity
  8
0
  6
Continuous
 62
     7
100
AcDbMText
 10
-16.2231881058
 20
-15.1907544974
 30
0.0
 40
4.83362
 41
0.0
 71
     1
 72
     1
  1
SolidWorks Student Edition.
  7
SLDTEXTSTYLE0
 73
     1
 44
1.0
  0
MTEXT
  5
12A
330
1F
100
AcDbEntity
  8
0
  6
Continuous
 62
     7
100
AcDbMText
 10
-16.2231881058
 20
-22.4411844974
 30
0.0
 40
4.83362
 41
0.0
 71
     1
 72
     1
  1
For Academic Use Only.
  7
SLDTEXTSTYLE0
 73
     1
 44
1.0
  0
ENDSEC
  0
SECTION
  2
OBJECTS
  0
DICTIONARY
  5
C
330
0
100
AcDbDictionary
281
     1
  3
ACAD_GROUP
350
D
  3
ACAD_LAYOUT
350
1A
  3
ACAD_MLINESTYLE
350
17
  3
ACAD_PLOTSETTINGS
350
19
  3
ACAD_PLOTSTYLENAME
350
E
  3
ACAD_SCALELIST
350
106
  3
AcDbVariableDictionary
350
12B
  0
DICTIONARY
  5
D
102
{ACAD_REACTORS
330
C
102
}
330
C
100
AcDbDictionary
281
     1
  0
DICTIONARY
  5
1A
102
{ACAD_REACTORS
330
C
102
}
330
C
100
AcDbDictionary
281
     1
  3
Layout1
350
1E
  3
Layout2
350
26
  3
Model
350
22
  0
DICTIONARY
  5
17
102
{ACAD_REACTORS
330
C
102
}
330
C
100
AcDbDictionary
281
     1
  3
Standard
350
18
  0
DICTIONARY
  5
19
102
{ACAD_REACTORS
330
C
102
}
330
C
100
AcDbDictionary
281
     1
  0
ACDBDICTIONARYWDFLT
  5
E
102
{ACAD_REACTORS
330
C
102
}
330
C
100
AcDbDictionary
281
     1
  3
Normal
350
F
100
AcDbDictionaryWithDefault
340
F
  0
DICTIONARY
  5
106
102
{ACAD_REACTORS
330
C
102
}
330
C
100
AcDbDictionary
281
     1
  3
A0
350
107
  3
A1
350
108
  3
A2
350
109
  3
A3
350
10A
  3
A4
350
10B
  3
A5
350
10C
  3
A6
350
10D
  3
A7
350
10E
  3
A8
350
10F
  3
A9
350
110
  3
B0
350
111
  3
B1
350
112
  3
B2
350
113
  3
B3
350
114
  3
B4
350
115
  3
B5
350
116
  3
B6
350
117
  3
B7
350
118
  3
B8
350
119
  3
B9
350
11A
  3
C0
350
11B
  3
C1
350
11C
  3
C2
350
11D
  3
C3
350
11E
  3
C4
350
11F
  3
C5
350
120
  3
C6
350
121
  3
C7
350
122
  3
C8
350
123
  3
C9
350
124
  3
D0
350
125
  3
D1
350
126
  3
D2
350
127
  0
DICTIONARY
  5
12B
102
{ACAD_REACTORS
330
C
102
}
330
C
100
AcDbDictionary
281
     1
  3
CANNOSCALE
350
12C
  0
LAYOUT
  5
1E
102
{ACAD_REACTORS
330
1A
102
}
330
1A
100
AcDbPlotSettings
  1

  2
none_device
  4

  6

 40
0.0
 41
0.0
 42
0.0
 43
0.0
 44
0.0
 45
0.0
 46
0.0
 47
0.0
 48
0.0
 49
0.0
140
0.0
141
0.0
142
1.0
143
1.0
 70
   688
 72
     0
 73
     0
 74
     5
  7

 75
    16
147
1.0
148
0.0
149
0.0
100
AcDbLayout
  1
Layout1
 70
     1
 71
     1
 10
0.0
 20
0.0
 11
420.0
 21
297.0
 12
0.0
 22
0.0
 32
0.0
 14
1.0000000000E+20
 24
1.0000000000E+20
 34
1.0000000000E+20
 15
-1.0000000000E+20
 25
-1.0000000000E+20
 35
-1.0000000000E+20
146
0.0
 13
0.0
 23
0.0
 33
0.0
 16
1.0
 26
0.0
 36
0.0
 17
0.0
 27
1.0
 37
0.0
 76
     0
330
1B
  0
LAYOUT
  5
26
102
{ACAD_REACTORS
330
1A
102
}
330
1A
100
AcDbPlotSettings
  1

  2
none_device
  4

  6

 40
0.0
 41
0.0
 42
0.0
 43
0.0
 44
0.0
 45
0.0
 46
0.0
 47
0.0
 48
0.0
 49
0.0
140
0.0
141
0.0
142
1.0
143
1.0
 70
   688
 72
     0
 73
     0
 74
     5
  7

 75
    16
147
1.0
148
0.0
149
0.0
100
AcDbLayout
  1
Layout2
 70
     1
 71
     2
 10
0.0
 20
0.0
 11
0.0
 21
0.0
 12
0.0
 22
0.0
 32
0.0
 14
0.0
 24
0.0
 34
0.0
 15
0.0
 25
0.0
 35
0.0
146
0.0
 13
0.0
 23
0.0
 33
0.0
 16
1.0
 26
0.0
 36
0.0
 17
0.0
 27
1.0
 37
0.0
 76
     0
330
23
  0
LAYOUT
  5
22
102
{ACAD_REACTORS
330
1A
102
}
330
1A
100
AcDbPlotSettings
  1

  2
none_device
  4
ANSI_A_(11.00_x_8.50_Inches)
  6

 40
6.35
 41
19.05
 42
6.35000508
 43
19.05000254
 44
279.4
 45
215.9
 46
16.8893450932
 47
41.7771914139
 48
0.0
 49
0.0
140
0.0
141
0.0
142
0.0530065324
143
1.0
 70
  1696
 72
     0
 73
     0
 74
     0
  7

 75
     0
147
0.0179189148
148
0.0
149
0.0
100
AcDbLayout
  1
Model
 70
     1
 71
     0
 10
0.0
 20
0.0
 11
420.0
 21
297.0
 12
0.0
 22
0.0
 32
0.0
 14
-16.2231881058
 24
-14.1711881058
 34
0.0
 15
189.2231881058
 25
84.1711881058
 35
0.0
146
0.0
 13
0.0
 23
0.0
 33
0.0
 16
1.0
 26
0.0
 36
0.0
 17
0.0
 27
1.0
 37
0.0
 76
     0
330
1F
331
29
  0
MLINESTYLE
  5
18
102
{ACAD_REACTORS
330
17
102
}
330
17
100
AcDbMlineStyle
  2
Standard
 70
     0
  3

 62
   256
 51
90.0
 52
90.0
 71
     2
 49
0.5
 62
   256
  6
BYLAYER
 49
-0.5
 62
   256
  6
BYLAYER
  0
ACDBPLACEHOLDER
  5
F
102
{ACAD_REACTORS
330
E
102
}
330
E
  0
SCALE
  5
107
102
{ACAD_REACTORS
330
106
102
}
330
106
100
AcDbScale
 70
     0
300
1:1
140
1.0
141
1.0
290
     1
  0
SCALE
  5
108
102
{ACAD_REACTORS
330
106
102
}
330
106
100
AcDbScale
 70
     0
300
1:2
140
1.0
141
2.0
290
     0
  0
SCALE
  5
109
102
{ACAD_REACTORS
330
106
102
}
330
106
100
AcDbScale
 70
     0
300
1:4
140
1.0
141
4.0
290
     0
  0
SCALE
  5
10A
102
{ACAD_REACTORS
330
106
102
}
330
106
100
AcDbScale
 70
     0
300
1:5
140
1.0
141
5.0
290
     0
  0
SCALE
  5
10B
102
{ACAD_REACTORS
330
106
102
}
330
106
100
AcDbScale
 70
     0
300
1:8
140
1.0
141
8.0
290
     0
  0
SCALE
  5
10C
102
{ACAD_REACTORS
330
106
102
}
330
106
100
AcDbScale
 70
     0
300
1:10
140
1.0
141
10.0
290
     0
  0
SCALE
  5
10D
102
{ACAD_REACTORS
330
106
102
}
330
106
100
AcDbScale
 70
     0
300
1:16
140
1.0
141
16.0
290
     0
  0
SCALE
  5
10E
102
{ACAD_REACTORS
330
106
102
}
330
106
100
AcDbScale
 70
     0
300
1:20
140
1.0
141
20.0
290
     0
  0
SCALE
  5
10F
102
{ACAD_REACTORS
330
106
102
}
330
106
100
AcDbScale
 70
     0
300
1:30
140
1.0
141
30.0
290
     0
  0
SCALE
  5
110
102
{ACAD_REACTORS
330
106
102
}
330
106
100
AcDbScale
 70
     0
300
1:40
140
1.0
141
40.0
290
     0
  0
SCALE
  5
111
102
{ACAD_REACTORS
330
106
102
}
330
106
100
AcDbScale
 70
     0
300
1:50
140
1.0
141
50.0
290
     0
  0
SCALE
  5
112
102
{ACAD_REACTORS
330
106
102
}
330
106
100
AcDbScale
 70
     0
300
1:100
140
1.0
141
100.0
290
     0
  0
SCALE
  5
113
102
{ACAD_REACTORS
330
106
102
}
330
106
100
AcDbScale
 70
     0
300
2:1
140
2.0
141
1.0
290
     0
  0
SCALE
  5
114
102
{ACAD_REACTORS
330
106
102
}
330
106
100
AcDbScale
 70
     0
300
4:1
140
4.0
141
1.0
290
     0
  0
SCALE
  5
115
102
{ACAD_REACTORS
330
106
102
}
330
106
100
AcDbScale
 70
     0
300
8:1
140
8.0
141
1.0
290
     0
  0
SCALE
  5
116
102
{ACAD_REACTORS
330
106
102
}
330
106
100
AcDbScale
 70
     0
300
10:1
140
10.0
141
1.0
290
     0
  0
SCALE
  5
117
102
{ACAD_REACTORS
330
106
102
}
330
106
100
AcDbScale
 70
     0
300
100:1
140
100.0
141
1.0
290
     0
  0
SCALE
  5
118
102
{ACAD_REACTORS
330
106
102
}
330
106
100
AcDbScale
 70
     0
300
1/128" = 1'-0"
140
0.0078125
141
12.0
290
     0
  0
SCALE
  5
119
102
{ACAD_REACTORS
330
106
102
}
330
106
100
AcDbScale
 70
     0
300
1/64" = 1'-0"
140
0.015625
141
12.0
290
     0
  0
SCALE
  5
11A
102
{ACAD_REACTORS
330
106
102
}
330
106
100
AcDbScale
 70
     0
300
1/32" = 1'-0"
140
0.03125
141
12.0
290
     0
  0
SCALE
  5
11B
102
{ACAD_REACTORS
330
106
102
}
330
106
100
AcDbScale
 70
     0
300
1/16" = 1'-0"
140
0.0625
141
12.0
290
     0
  0
SCALE
  5
11C
102
{ACAD_REACTORS
330
106
102
}
330
106
100
AcDbScale
 70
     0
300
3/32" = 1'-0"
140
0.09375
141
12.0
290
     0
  0
SCALE
  5
11D
102
{ACAD_REACTORS
330
106
102
}
330
106
100
AcDbScale
 70
     0
300
1/8" = 1'-0"
140
0.125
141
12.0
290
     0
  0
SCALE
  5
11E
102
{ACAD_REACTORS
330
106
102
}
330
106
100
AcDbScale
 70
     0
300
3/16" = 1'-0"
140
0.1875
141
12.0
290
     0
  0
SCALE
  5
11F
102
{ACAD_REACTORS
330
106
102
}
330
106
100
AcDbScale
 70
     0
300
1/4" = 1'-0"
140
0.25
141
12.0
290
     0
  0
SCALE
  5
120
102
{ACAD_REACTORS
330
106
102
}
330
106
100
AcDbScale
 70
     0
300
3/8" = 1'-0"
140
0.375
141
12.0
290
     0
  0
SCALE
  5
121
102
{ACAD_REACTORS
330
106
102
}
330
106
100
AcDbScale
 70
     0
300
1/2" = 1'-0"
140
0.5
141
12.0
290
     0
  0
SCALE
  5
122
102
{ACAD_REACTORS
330
106
102
}
330
106
100
AcDbScale
 70
     0
300
3/4" = 1'-0"
140
0.75
141
12.0
290
     0
  0
SCALE
  5
123
102
{ACAD_REACTORS
330
106
102
}
330
106
100
AcDbScale
 70
     0
300
1" = 1'-0"
140
1.0
141
12.0
290
     0
  0
SCALE
  5
124
102
{ACAD_REACTORS
330
106
102
}
330
106
100
AcDbScale
 70
     0
300
1-1/2" = 1'-0"
140
1.5
141
12.0
290
     0
  0
SCALE
  5
125
102
{ACAD_REACTORS
330
106
102
}
330
106
100
AcDbScale
 70
     0
300
3" = 1'-0"
140
3.0
141
12.0
290
     0
  0
SCALE
  5
126
102
{ACAD_REACTORS
330
106
102
}
330
106
100
AcDbScale
 70
     0
300
6" = 1'-0"
140
6.0
141
12.0
290
     0
  0
SCALE
  5
127
102
{ACAD_REACTORS
330
106
102
}
330
106
100
AcDbScale
 70
     0
300
1'-0" = 1'-0"
140
12.0
141
12.0
290
     0
  0
DICTIONARYVAR
  5
12C
102
{ACAD_REACTORS
330
12B
102
}
330
12B
100
DictionaryVariables
280
     0
  1
1:1
  0
ENDSEC
  0
EOF
