  0
SECTION
  2
HEADER
  9
$ACADVER
  1
AC1015
  9
$ACADMAINTVER
 70
     6
  9
$DWGCODEPAGE
  3
ANSI_1252
  9
$INSBASE
 10
0.0
 20
0.0
 30
0.0
  9
$EXTMIN
 10
-249.6352196963
 20
-93.3486098482
 30
0.0
  9
$EXTMAX
 10
422.6352196963
 20
392.5866098482
 30
0.0
  9
$LIMMIN
 10
0.0
 20
0.0
  9
$LIMMAX
 10
420.0
 20
297.0
  9
$ORTHOMODE
 70
     0
  9
$REGENMODE
 70
     1
  9
$FILLMODE
 70
     1
  9
$QTEXTMODE
 70
     0
  9
$MIRRTEXT
 70
     1
  9
$LTSCALE
 40
1.0
  9
$ATTMODE
 70
     1
  9
$TEXTSIZE
 40
3.5
  9
$TRACEWID
 40
1.0
  9
$TEXTSTYLE
  7
Standard
  9
$CLAYER
  8
0
  9
$CELTYPE
  6
ByLayer
  9
$CECOLOR
 62
   256
  9
$CELTSCALE
 40
1.0
  9
$DISPSILH
 70
     0
  9
$DIMSCALE
 40
1.0
  9
$DIMASZ
 40
3.302
  9
$DIMEXO
 40
1.0
  9
$DIMDLI
 40
3.75
  9
$DIMRND
 40
0.0
  9
$DIMDLE
 40
0.0
  9
$DIMEXE
 40
1.0
  9
$DIMTP
 40
0.0
  9
$DIMTM
 40
0.0
  9
$DIMTXT
 40
3.5
  9
$DIMCEN
 40
2.5
  9
$DIMTSZ
 40
0.0
  9
$DIMTOL
 70
     0
  9
$DIMLIM
 70
     0
  9
$DIMTIH
 70
     1
  9
$DIMTOH
 70
     1
  9
$DIMSE1
 70
     0
  9
$DIMSE2
 70
     0
  9
$DIMTAD
 70
     1
  9
$DIMZIN
 70
     0
  9
$DIMBLK
  1

  9
$DIMASO
 70
     1
  9
$DIMSHO
 70
     1
  9
$DIMPOST
  1

  9
$DIMAPOST
  1

  9
$DIMALT
 70
     0
  9
$DIMALTD
 70
     3
  9
$DIMALTF
 40
0.0393700787
  9
$DIMLFAC
 40
1.0
  9
$DIMTOFL
 70
     1
  9
$DIMTVP
 40
0.0
  9
$DIMTIX
 70
     0
  9
$DIMSOXD
 70
     0
  9
$DIMSAH
 70
     0
  9
$DIMBLK1
  1

  9
$DIMBLK2
  1

  9
$DIMSTYLE
  2
ISO-25
  9
$DIMCLRD
 70
     0
  9
$DIMCLRE
 70
     0
  9
$DIMCLRT
 70
     0
  9
$DIMTFAC
 40
1.0
  9
$DIMGAP
 40
1.524
  9
$DIMJUST
 70
     0
  9
$DIMSD1
 70
     0
  9
$DIMSD2
 70
     0
  9
$DIMTOLJ
 70
     0
  9
$DIMTZIN
 70
     0
  9
$DIMALTZ
 70
     0
  9
$DIMALTTZ
 70
     0
  9
$DIMUPT
 70
     0
  9
$DIMDEC
 70
     3
  9
$DIMTDEC
 70
     3
  9
$DIMALTU
 70
     2
  9
$DIMALTTD
 70
     3
  9
$DIMTXSTY
  7
Standard
  9
$DIMAUNIT
 70
     0
  9
$DIMADEC
 70
     2
  9
$DIMALTRND
 40
0.0
  9
$DIMAZIN
 70
     0
  9
$DIMDSEP
 70
    44
  9
$DIMATFIT
 70
     3
  9
$DIMFRAC
 70
     0
  9
$DIMLDRBLK
  1

  9
$DIMLUNIT
 70
     2
  9
$DIMLWD
 70
    -2
  9
$DIMLWE
 70
    -2
  9
$DIMTMOVE
 70
     0
  9
$LUNITS
 70
     2
  9
$LUPREC
 70
     2
  9
$SKETCHINC
 40
1.0
  9
$FILLETRAD
 40
10.0
  9
$AUNITS
 70
     0
  9
$AUPREC
 70
     2
  9
$MENU
  1
.
  9
$ELEVATION
 40
0.0
  9
$PELEVATION
 40
0.0
  9
$THICKNESS
 40
0.0
  9
$LIMCHECK
 70
     0
  9
$CHAMFERA
 40
10.0
  9
$CHAMFERB
 40
10.0
  9
$CHAMFERC
 40
20.0
  9
$CHAMFERD
 40
0.0
  9
$SKPOLY
 70
     0
  9
$TDCREATE
 40
2456853.760810984
  9
$TDUCREATE
 40
2456854.05247765
  9
$TDUPDATE
 40
2456853.761307789
  9
$TDUUPDATE
 40
2456854.052974456
  9
$TDINDWG
 40
0.0000000116
  9
$TDUSRTIMER
 40
0.0000000116
  9
$USRTIMER
 70
     1
  9
$ANGBASE
 50
0.0
  9
$ANGDIR
 70
     0
  9
$PDMODE
 70
     0
  9
$PDSIZE
 40
-1.0
  9
$PLINEWID
 40
0.0
  9
$SPLFRAME
 70
     0
  9
$SPLINETYPE
 70
     6
  9
$SPLINESEGS
 70
     8
  9
$HANDSEED
  5
1CA
  9
$SURFTAB1
 70
     6
  9
$SURFTAB2
 70
     6
  9
$SURFTYPE
 70
     6
  9
$SURFU
 70
     6
  9
$SURFV
 70
     6
  9
$UCSBASE
  2

  9
$UCSNAME
  2

  9
$UCSORG
 10
0.0
 20
0.0
 30
0.0
  9
$UCSXDIR
 10
1.0
 20
0.0
 30
0.0
  9
$UCSYDIR
 10
0.0
 20
1.0
 30
0.0
  9
$UCSORTHOREF
  2

  9
$UCSORTHOVIEW
 70
     0
  9
$UCSORGTOP
 10
0.0
 20
0.0
 30
0.0
  9
$UCSORGBOTTOM
 10
0.0
 20
0.0
 30
0.0
  9
$UCSORGLEFT
 10
0.0
 20
0.0
 30
0.0
  9
$UCSORGRIGHT
 10
0.0
 20
0.0
 30
0.0
  9
$UCSORGFRONT
 10
0.0
 20
0.0
 30
0.0
  9
$UCSORGBACK
 10
0.0
 20
0.0
 30
0.0
  9
$PUCSBASE
  2

  9
$PUCSNAME
  2

  9
$PUCSORG
 10
0.0
 20
0.0
 30
0.0
  9
$PUCSXDIR
 10
1.0
 20
0.0
 30
0.0
  9
$PUCSYDIR
 10
0.0
 20
1.0
 30
0.0
  9
$PUCSORTHOREF
  2

  9
$PUCSORTHOVIEW
 70
     0
  9
$PUCSORGTOP
 10
0.0
 20
0.0
 30
0.0
  9
$PUCSORGBOTTOM
 10
0.0
 20
0.0
 30
0.0
  9
$PUCSORGLEFT
 10
0.0
 20
0.0
 30
0.0
  9
$PUCSORGRIGHT
 10
0.0
 20
0.0
 30
0.0
  9
$PUCSORGFRONT
 10
0.0
 20
0.0
 30
0.0
  9
$PUCSORGBACK
 10
0.0
 20
0.0
 30
0.0
  9
$USERI1
 70
     0
  9
$USERI2
 70
     0
  9
$USERI3
 70
     0
  9
$USERI4
 70
     0
  9
$USERI5
 70
     0
  9
$USERR1
 40
0.0
  9
$USERR2
 40
0.0
  9
$USERR3
 40
0.0
  9
$USERR4
 40
0.0
  9
$USERR5
 40
0.0
  9
$WORLDVIEW
 70
     1
  9
$SHADEDGE
 70
     3
  9
$SHADEDIF
 70
    70
  9
$TILEMODE
 70
     1
  9
$MAXACTVP
 70
    64
  9
$PINSBASE
 10
0.0
 20
0.0
 30
0.0
  9
$PLIMCHECK
 70
     0
  9
$PEXTMIN
 10
1.0000000000E+20
 20
1.0000000000E+20
 30
1.0000000000E+20
  9
$PEXTMAX
 10
-1.0000000000E+20
 20
-1.0000000000E+20
 30
-1.0000000000E+20
  9
$PLIMMIN
 10
0.0
 20
0.0
  9
$PLIMMAX
 10
420.0
 20
297.0
  9
$UNITMODE
 70
     0
  9
$VISRETAIN
 70
     1
  9
$PLINEGEN
 70
     0
  9
$PSLTSCALE
 70
     1
  9
$TREEDEPTH
 70
  3020
  9
$CMLSTYLE
  2
Standard
  9
$CMLJUST
 70
     0
  9
$CMLSCALE
 40
20.0
  9
$PROXYGRAPHICS
 70
     1
  9
$MEASUREMENT
 70
     1
  9
$CELWEIGHT
370
    -1
  9
$ENDCAPS
280
     0
  9
$JOINSTYLE
280
     0
  9
$LWDISPLAY
290
     1
  9
$INSUNITS
 70
     4
  9
$HYPERLINKBASE
  1

  9
$STYLESHEET
  1

  9
$XEDIT
290
     1
  9
$CEPSNTYPE
380
     0
  9
$PSTYLEMODE
290
     1
  9
$FINGERPRINTGUID
  2
{CB7B08B5-B685-4ABC-84EE-2B5689884BF9}
  9
$VERSIONGUID
  2
{FAEB1C32-E019-11D5-929B-00C0DF256EC4}
  9
$EXTNAMES
290
     1
  9
$PSVPSCALE
 40
0.0
  9
$OLESTARTUP
290
     0
  0
ENDSEC
  0
SECTION
  2
CLASSES
  0
CLASS
  1
ACDBDICTIONARYWDFLT
  2
AcDbDictionaryWithDefault
  3
ObjectDBX Classes
 90
        0
280
     0
281
     0
  0
CLASS
  1
VISUALSTYLE
  2
AcDbVisualStyle
  3
ObjectDBX Classes
 90
     4095
280
     0
281
     0
  0
CLASS
  1
MATERIAL
  2
AcDbMaterial
  3
ObjectDBX Classes
 90
     1153
280
     0
281
     0
  0
CLASS
  1
SCALE
  2
AcDbScale
  3
ObjectDBX Classes
 90
     1153
280
     0
281
     0
  0
CLASS
  1
DICTIONARYVAR
  2
AcDbDictionaryVar
  3
ObjectDBX Classes
 90
        0
280
     0
281
     0
  0
CLASS
  1
ACDBPLACEHOLDER
  2
AcDbPlaceHolder
  3
ObjectDBX Classes
 90
        0
280
     0
281
     0
  0
CLASS
  1
LAYOUT
  2
AcDbLayout
  3
ObjectDBX Classes
 90
        0
280
     0
281
     0
  0
ENDSEC
  0
SECTION
  2
TABLES
  0
TABLE
  2
VPORT
  5
8
330
0
100
AcDbSymbolTable
 70
     1
  0
VPORT
  5
29
330
8
100
AcDbSymbolTableRecord
100
AcDbViewportTableRecord
  2
*Active
 70
     0
 10
0.0
 20
0.0
 11
1.0
 21
1.0
 12
86.5
 22
149.619
 13
0.0
 23
0.0
 14
10.0
 24
10.0
 15
10.0
 25
10.0
 16
0.0
 26
0.0
 36
1.0
 17
0.0
 27
0.0
 37
0.0
 40
495.6539240902
 41
1.3834569139
 42
50.0
 43
0.0
 44
0.0
 50
0.0
 51
0.0
 71
     0
 72
   100
 73
     1
 74
     3
 75
     0
 76
     0
 77
     0
 78
     0
281
     0
 65
     1
110
0.0
120
0.0
130
0.0
111
1.0
121
0.0
131
0.0
112
0.0
122
1.0
132
0.0
 79
     0
146
0.0
  0
ENDTAB
  0
TABLE
  2
LTYPE
  5
5
330
0
100
AcDbSymbolTable
 70
     6
  0
LTYPE
  5
14
330
5
100
AcDbSymbolTableRecord
100
AcDbLinetypeTableRecord
  2
ByBlock
 70
     0
  3

 72
    65
 73
     0
 40
0.0
  0
LTYPE
  5
15
330
5
100
AcDbSymbolTableRecord
100
AcDbLinetypeTableRecord
  2
ByLayer
 70
     0
  3

 72
    65
 73
     0
 40
0.0
  0
LTYPE
  5
16
330
5
100
AcDbSymbolTableRecord
100
AcDbLinetypeTableRecord
  2
Continuous
 70
     0
  3
Solid line
 72
    65
 73
     0
 40
0.0
  0
LTYPE
  5
3F
330
5
100
AcDbSymbolTableRecord
100
AcDbLinetypeTableRecord
  2
HIDDEN
 70
     0
  3
Hidden __ __ __ __ __ __ __ __ __ __ __ __ __ __
 72
    65
 73
     2
 40
1.905
 49
1.27
 74
     0
 49
-0.635
 74
     0
  0
LTYPE
  5
40
330
5
100
AcDbSymbolTableRecord
100
AcDbLinetypeTableRecord
  2
PHANTOM
 70
     0
  3
Phantom ______  __  __  ______  __  __  ______
 72
    65
 73
     6
 40
12.7
 49
6.35
 74
     0
 49
-1.27
 74
     0
 49
1.27
 74
     0
 49
-1.27
 74
     0
 49
1.27
 74
     0
 49
-1.27
 74
     0
  0
LTYPE
  5
41
330
5
100
AcDbSymbolTableRecord
100
AcDbLinetypeTableRecord
  2
CENTER
 70
     0
  3
Center ____ _ ____ _ ____ _ ____ _ ____ _ ____
 72
    65
 73
     4
 40
10.16
 49
6.35
 74
     0
 49
-1.27
 74
     0
 49
1.27
 74
     0
 49
-1.27
 74
     0
  0
LTYPE
  5
42
330
5
100
AcDbSymbolTableRecord
100
AcDbLinetypeTableRecord
  2
CENTERX2
 70
     0
  3
Center (2x) ________  __  ________  __  _____
 72
    65
 73
     4
 40
20.32
 49
12.7
 74
     0
 49
-2.54
 74
     0
 49
2.54
 74
     0
 49
-2.54
 74
     0
  0
LTYPE
  5
43
330
5
100
AcDbSymbolTableRecord
100
AcDbLinetypeTableRecord
  2
DOT2
 70
     0
  3
Dot (.5x) ........................................
 72
    65
 73
     2
 40
0.635
 49
0.0
 74
     0
 49
-0.635
 74
     0
  0
ENDTAB
  0
TABLE
  2
LAYER
  5
2
330
0
100
AcDbSymbolTable
 70
     1
  0
LAYER
  5
10
330
2
100
AcDbSymbolTableRecord
100
AcDbLayerTableRecord
  2
0
 70
     0
 62
     7
  6
Continuous
370
    -3
390
F
  0
ENDTAB
  0
TABLE
  2
STYLE
  5
3
330
0
100
AcDbSymbolTable
 70
     2
  0
STYLE
  5
11
330
3
100
AcDbSymbolTableRecord
100
AcDbTextStyleTableRecord
  2
Standard
 70
     0
 40
0.0
 41
1.0
 50
0.0
 71
     0
 42
3.5
  3
txt
  4

  0
STYLE
  5
1C5
330
3
100
AcDbSymbolTableRecord
100
AcDbTextStyleTableRecord
  2
SLDTEXTSTYLE0
 70
     0
 40
0.0
 41
0.7
 50
0.0
 71
     0
 42
0.2
  3
TXT
  4

  0
ENDTAB
  0
TABLE
  2
VIEW
  5
6
330
0
100
AcDbSymbolTable
 70
     0
  0
ENDTAB
  0
TABLE
  2
UCS
  5
7
330
0
100
AcDbSymbolTable
 70
     0
  0
ENDTAB
  0
TABLE
  2
APPID
  5
9
330
0
100
AcDbSymbolTable
 70
     1
  0
APPID
  5
12
330
9
100
AcDbSymbolTableRecord
100
AcDbRegAppTableRecord
  2
ACAD
 70
     0
  0
ENDTAB
  0
TABLE
  2
DIMSTYLE
  5
A
330
0
100
AcDbSymbolTable
 70
     1
100
AcDbDimStyleTable
  0
DIMSTYLE
105
27
330
A
100
AcDbSymbolTableRecord
100
AcDbDimStyleTableRecord
  2
ISO-25
 70
     0
 41
2.5
 42
0.625
 43
3.75
 44
1.25
 73
     0
 74
     0
 77
     1
 78
     8
140
2.5
141
2.5
143
0.0393700787
147
0.625
171
     3
172
     1
178
     0
271
     2
272
     2
274
     3
278
    44
283
     0
284
     8
340
11
  0
ENDTAB
  0
TABLE
  2
BLOCK_RECORD
  5
1
330
0
100
AcDbSymbolTable
 70
     1
  0
BLOCK_RECORD
  5
1F
330
1
100
AcDbSymbolTableRecord
100
AcDbBlockTableRecord
  2
*Model_Space
340
22
  0
BLOCK_RECORD
  5
1B
330
1
100
AcDbSymbolTableRecord
100
AcDbBlockTableRecord
  2
*Paper_Space
340
1E
  0
BLOCK_RECORD
  5
23
330
1
100
AcDbSymbolTableRecord
100
AcDbBlockTableRecord
  2
*Paper_Space0
340
26
  0
ENDTAB
  0
ENDSEC
  0
SECTION
  2
BLOCKS
  0
BLOCK
  5
20
330
1F
100
AcDbEntity
  8
0
100
AcDbBlockBegin
  2
*Model_Space
 70
     0
 10
0.0
 20
0.0
 30
0.0
  3
*Model_Space
  1

  0
ENDBLK
  5
21
330
1F
100
AcDbEntity
  8
0
100
AcDbBlockEnd
  0
BLOCK
  5
1C
330
1B
100
AcDbEntity
 67
     1
  8
0
100
AcDbBlockBegin
  2
*Paper_Space
 70
     0
 10
0.0
 20
0.0
 30
0.0
  3
*Paper_Space
  1

  0
ENDBLK
  5
1D
330
1B
100
AcDbEntity
 67
     1
  8
0
100
AcDbBlockEnd
  0
BLOCK
  5
24
330
23
100
AcDbEntity
  8
0
100
AcDbBlockBegin
  2
*Paper_Space0
 70
     0
 10
0.0
 20
0.0
 30
0.0
  3
*Paper_Space0
  1

  0
ENDBLK
  5
25
330
23
100
AcDbEntity
  8
0
100
AcDbBlockEnd
  0
ENDSEC
  0
SECTION
  2
ENTITIES
  0
LINE
  5
44
330
1F
100
AcDbEntity
  8
0
  6
CENTERX2
 62
     7
100
AcDbLine
 10
0.0
 20
-73.1424573861
 30
0.0
 11
173.0
 21
-73.1424573861
 31
0.0
  0
LINE
  5
45
330
1F
100
AcDbEntity
  8
0
  6
CENTERX2
 62
     7
100
AcDbLine
 10
402.4290672343
 20
100.0
 30
0.0
 11
402.4290672343
 21
175.0
 31
0.0
  0
LINE
  5
46
330
1F
100
AcDbEntity
  8
0
  6
CENTERX2
 62
     7
100
AcDbLine
 10
331.5547623102
 20
100.0
 30
0.0
 11
331.5547623102
 21
175.0
 31
0.0
  0
LINE
  5
47
330
1F
100
AcDbEntity
  8
0
  6
CENTERX2
 62
     7
100
AcDbLine
 10
-229.4290672343
 20
175.0
 30
0.0
 11
-229.4290672343
 21
100.0
 31
0.0
  0
LINE
  5
48
330
1F
100
AcDbEntity
  8
0
  6
CENTERX2
 62
     7
100
AcDbLine
 10
-158.5547623102
 20
175.0
 30
0.0
 11
-158.5547623102
 21
100.0
 31
0.0
  0
LINE
  5
49
330
1F
100
AcDbEntity
  8
0
  6
CENTERX2
 62
     7
100
AcDbLine
 10
156.5
 20
372.3804573861
 30
0.0
 11
16.5
 21
372.3804573861
 31
0.0
  0
LINE
  5
4A
330
1F
100
AcDbEntity
  8
0
  6
CENTERX2
 62
     7
100
AcDbLine
 10
310.3804573861
 20
100.0
 30
0.0
 11
310.3804573861
 21
175.0
 31
0.0
  0
LINE
  5
4B
330
1F
100
AcDbEntity
  8
0
  6
CENTERX2
 62
     7
100
AcDbLine
 10
-137.3804573861
 20
175.0
 30
0.0
 11
-137.3804573861
 21
100.0
 31
0.0
  0
LINE
  5
4C
330
1F
100
AcDbEntity
  8
0
  6
CENTERX2
 62
     7
100
AcDbLine
 10
0.0
 20
-0.968152462
 30
0.0
 11
173.0
 21
-0.968152462
 31
0.0
  0
LINE
  5
4D
330
1F
100
AcDbEntity
  8
0
  6
CENTERX2
 62
     7
100
AcDbLine
 10
-65.206152462
 20
175.0
 30
0.0
 11
-65.206152462
 21
100.0
 31
0.0
  0
LINE
  5
4E
330
1F
100
AcDbEntity
  8
0
  6
CENTERX2
 62
     7
100
AcDbLine
 10
156.5
 20
300.206152462
 30
0.0
 11
16.5
 21
300.206152462
 31
0.0
  0
LINE
  5
4F
330
1F
100
AcDbEntity
  8
0
  6
CENTERX2
 62
     7
100
AcDbLine
 10
238.206152462
 20
100.0
 30
0.0
 11
238.206152462
 21
175.0
 31
0.0
  0
LINE
  5
50
330
1F
100
AcDbEntity
  8
0
  6
CENTERX2
 62
     7
100
AcDbLine
 10
-21.1310672343
 20
299.238
 30
0.0
 11
-21.1310672343
 21
195.0
 31
0.0
  0
LINE
  5
51
330
1F
100
AcDbEntity
  8
0
  6
CENTERX2
 62
     7
100
AcDbLine
 10
178.4123049241
 20
370.4084573861
 30
0.0
 11
160.1743049241
 21
370.4084573861
 31
0.0
  0
LINE
  5
52
330
1F
100
AcDbEntity
  8
0
  6
CENTERX2
 62
     7
100
AcDbLine
 10
194.1310672343
 20
195.0
 30
0.0
 11
194.1310672343
 21
299.238
 31
0.0
  0
LINE
  5
53
330
1F
100
AcDbEntity
  8
0
  6
CENTERX2
 62
     7
100
AcDbLine
 10
158.206152462
 20
301.8106719531
 30
0.0
 11
158.206152462
 21
371.4123049241
 31
0.0
  0
LINE
  5
54
330
1F
100
AcDbEntity
  8
0
  6
CENTERX2
 62
     7
100
AcDbLine
 10
12.8256950759
 20
370.4084573861
 30
0.0
 11
-5.4123049241
 21
370.4084573861
 31
0.0
  0
LINE
  5
55
330
1F
100
AcDbEntity
  8
0
  6
CENTERX2
 62
     7
100
AcDbLine
 10
14.793847538
 20
371.4123049241
 30
0.0
 11
14.793847538
 21
301.8106719531
 31
0.0
  0
LINE
  5
56
330
1F
100
AcDbEntity
  8
0
  6
CENTERX2
 62
     7
100
AcDbLine
 10
-2.9363049241
 20
-2.940152462
 30
0.0
 11
-21.1743049241
 21
-2.940152462
 31
0.0
  0
LINE
  5
57
330
1F
100
AcDbEntity
  8
0
  6
CENTERX2
 62
     7
100
AcDbLine
 10
-21.1743049241
 20
-71.1704573861
 30
0.0
 11
-2.9363049241
 21
-71.1704573861
 31
0.0
  0
LINE
  5
58
330
1F
100
AcDbEntity
  8
0
  6
CENTERX2
 62
     7
100
AcDbLine
 10
-0.968152462
 20
-1.9363049241
 30
0.0
 11
-0.968152462
 21
-72.1743049241
 31
0.0
  0
LINE
  5
59
330
1F
100
AcDbEntity
  8
0
  6
CENTERX2
 62
     7
100
AcDbLine
 10
194.1743049241
 20
-2.940152462
 30
0.0
 11
175.9363049241
 21
-2.940152462
 31
0.0
  0
LINE
  5
5A
330
1F
100
AcDbEntity
  8
0
  6
CENTERX2
 62
     7
100
AcDbLine
 10
175.9363049241
 20
-71.1704573861
 30
0.0
 11
194.1743049241
 21
-71.1704573861
 31
0.0
  0
LINE
  5
5B
330
1F
100
AcDbEntity
  8
0
  6
CENTERX2
 62
     7
100
AcDbLine
 10
173.968152462
 20
-72.1743049241
 30
0.0
 11
173.968152462
 21
-1.9363049241
 31
0.0
  0
LINE
  5
5C
330
1F
100
AcDbEntity
  8
0
  6
CENTERX2
 62
     7
100
AcDbLine
 10
-8.9007623102
 20
299.238
 30
0.0
 11
-8.9007623102
 21
195.0
 31
0.0
  0
LINE
  5
5D
330
1F
100
AcDbEntity
  8
0
  6
CENTERX2
 62
     7
100
AcDbLine
 10
3.3015426139
 20
299.238
 30
0.0
 11
3.3015426139
 21
195.0
 31
0.0
  0
LINE
  5
5E
330
1F
100
AcDbEntity
  8
0
  6
CENTERX2
 62
     7
100
AcDbLine
 10
17.503847538
 20
195.0
 30
0.0
 11
17.503847538
 21
299.238
 31
0.0
  0
LINE
  5
5F
330
1F
100
AcDbEntity
  8
0
  6
CENTERX2
 62
     7
100
AcDbLine
 10
181.9007623102
 20
195.0
 30
0.0
 11
181.9007623102
 21
299.238
 31
0.0
  0
LINE
  5
60
330
1F
100
AcDbEntity
  8
0
  6
CENTERX2
 62
     7
100
AcDbLine
 10
169.6984573861
 20
195.0
 30
0.0
 11
169.6984573861
 21
299.238
 31
0.0
  0
LINE
  5
61
330
1F
100
AcDbEntity
  8
0
  6
CENTERX2
 62
     7
100
AcDbLine
 10
155.496152462
 20
299.238
 30
0.0
 11
155.496152462
 21
195.0
 31
0.0
  0
CIRCLE
  5
62
330
1F
100
AcDbEntity
  8
0
  6
Continuous
 62
     7
370
    15
100
AcDbCircle
 10
321.3486098482
 20
120.0
 30
0.0
 40
1.649999999999991
  0
CIRCLE
  5
63
330
1F
100
AcDbEntity
  8
0
  6
Continuous
 62
     7
370
    15
100
AcDbCircle
 10
321.3486098482
 20
155.0
 30
0.0
 40
1.649999999999949
  0
CIRCLE
  5
64
330
1F
100
AcDbEntity
  8
0
  6
Continuous
 62
     7
370
    15
100
AcDbCircle
 10
412.6352196963
 20
165.0
 30
0.0
 40
1.699999999999989
  0
CIRCLE
  5
65
330
1F
100
AcDbEntity
  8
0
  6
Continuous
 62
     7
370
    15
100
AcDbCircle
 10
412.6352196963
 20
110.0
 30
0.0
 40
1.700000000000003
  0
CIRCLE
  5
66
330
1F
100
AcDbEntity
  8
0
  6
Continuous
 62
     7
370
    15
100
AcDbCircle
 10
169.1743049241
 20
308.4403049241
 30
0.0
 40
1.599999999999994
  0
CIRCLE
  5
67
330
1F
100
AcDbEntity
  8
0
  6
Continuous
 62
     7
370
    15
100
AcDbCircle
 10
150.5
 20
382.5866098482
 30
0.0
 40
1.599999999999966
  0
CIRCLE
  5
68
330
1F
100
AcDbEntity
  8
0
  6
Continuous
 62
     7
370
    15
100
AcDbCircle
 10
22.5
 20
382.5866098482
 30
0.0
 40
1.599999999999966
  0
CIRCLE
  5
69
330
1F
100
AcDbEntity
  8
0
  6
Continuous
 62
     7
370
    15
100
AcDbCircle
 10
46.5
 20
382.5866098482
 30
0.0
 40
1.649999999999977
  0
CIRCLE
  5
6A
330
1F
100
AcDbEntity
  8
0
  6
Continuous
 62
     7
370
    15
100
AcDbCircle
 10
126.5
 20
383.3486098482
 30
0.0
 40
1.650000000000034
  0
CIRCLE
  5
6B
330
1F
100
AcDbEntity
  8
0
  6
Continuous
 62
     7
370
    15
100
AcDbCircle
 10
3.8256950759
 20
308.4403049241
 30
0.0
 40
1.600000000000039
  0
CIRCLE
  5
6C
330
1F
100
AcDbEntity
  8
0
  6
Continuous
 62
     7
370
    15
100
AcDbCircle
 10
168.4123049241
 20
378.1146098482
 30
0.0
 40
1.600000000000051
  0
CIRCLE
  5
6D
330
1F
100
AcDbEntity
  8
0
  6
Continuous
 62
     7
370
    15
100
AcDbCircle
 10
4.5876950759
 20
378.1146098482
 30
0.0
 40
1.600000000000002
  0
CIRCLE
  5
6E
330
1F
100
AcDbEntity
  8
0
  6
Continuous
 62
     7
370
    15
100
AcDbCircle
 10
-148.3486098482
 20
120.0
 30
0.0
 40
1.650000000000006
  0
CIRCLE
  5
6F
330
1F
100
AcDbEntity
  8
0
  6
Continuous
 62
     7
370
    15
100
AcDbCircle
 10
-148.3486098482
 20
155.0
 30
0.0
 40
1.649999999999977
  0
CIRCLE
  5
70
330
1F
100
AcDbEntity
  8
0
  6
Continuous
 62
     7
370
    15
100
AcDbCircle
 10
-239.6352196963
 20
165.0
 30
0.0
 40
1.699999999999989
  0
CIRCLE
  5
71
330
1F
100
AcDbEntity
  8
0
  6
Continuous
 62
     7
370
    15
100
AcDbCircle
 10
-239.6352196963
 20
110.0
 30
0.0
 40
1.699999999999974
  0
SPLINE
  5
87
330
1F
100
AcDbEntity
  8
0
  6
Continuous
 62
     7
370
    15
100
AcDbSpline
210
0.0
220
0.0
230
1.0
 70
     8
 71
     3
 72
    15
 73
    11
 74
     0
 42
0.00000001
 43
0.00000001
 12
1.0
 22
0.0
 32
0.0
 13
1.0
 23
0.0
 33
0.0
 40
0.0
 40
0.0
 40
0.0
 40
0.0
 40
0.1211980066629608
 40
0.2424108529896726
 40
0.3633711774366345
 40
0.486570970510887
 40
0.6113951913771211
 40
0.7379841030784375
 40
0.8675733569322182
 40
0.9999999999999999
 40
0.9999999999999999
 40
0.9999999999999999
 40
0.9999999999999999
 10
63.65440547688802
 20
-39.38856273657682
 30
0.0
 10
63.67664028395928
 20
-39.45936682446366
 30
0.0
 10
63.7211126205646
 20
-39.60098366959489
 30
0.0
 10
63.80968231511039
 20
-39.80523092775368
 30
0.0
 10
63.90752195937367
 20
-40.00641184997477
 30
0.0
 10
64.02344793892709
 20
-40.20040195869915
 30
0.0
 10
64.14938869012762
 20
-40.39203003668312
 30
0.0
 10
64.29058899451616
 20
-40.57783759204744
 30
0.0
 10
64.44806284901597
 20
-40.75625830865237
 30
0.0
 10
64.5604802292895
 20
-40.87059741414928
 30
0.0
 10
64.61729760742188
 20
-40.92838606014454
 30
0.0
  0
SPLINE
  5
88
330
1F
100
AcDbEntity
  8
0
  6
Continuous
 62
     7
370
    15
100
AcDbSpline
210
0.0
220
0.0
230
1.0
 70
     8
 71
     3
 72
    15
 73
    11
 74
     0
 42
0.00000001
 43
0.00000001
 12
1.0
 22
0.0
 32
0.0
 13
1.0
 23
0.0
 33
0.0
 40
0.0
 40
0.0
 40
0.0
 40
0.0
 40
0.143880280103372
 40
0.280927115498288
 40
0.4106744872766504
 40
0.5362411272536919
 40
0.6548650356186219
 40
0.7712648559194529
 40
0.8858270773686001
 40
1.0
 40
1.0
 40
1.0
 40
1.0
 10
64.61729760742188
 20
-40.92838606014454
 30
0.0
 10
64.6828229397728
 20
-40.98960352798206
 30
0.0
 10
64.81076154676042
 20
-41.10913100350097
 30
0.0
 10
65.01136000736989
 20
-41.26863055249932
 30
0.0
 10
65.21641447791554
 20
-41.4023270519038
 30
0.0
 10
65.42183449318414
 20
-41.51292813331406
 30
0.0
 10
65.62977957445155
 20
-41.59928837798174
 30
0.0
 10
65.83951274380564
 20
-41.65939999985971
 30
0.0
 10
66.05188380976648
 20
-41.69737362236781
 30
0.0
 10
66.19449047012996
 20
-41.7020127470471
 30
0.0
 10
66.26567244466148
 20
-41.70432836157683
 30
0.0
  0
SPLINE
  5
8C
330
1F
100
AcDbEntity
  8
0
  6
Continuous
 62
     7
370
    15
100
AcDbSpline
210
0.0
220
0.0
230
1.0
 70
     8
 71
     3
 72
    23
 73
    19
 74
     0
 42
0.00000001
 43
0.00000001
 12
1.0
 22
0.0
 32
0.0
 13
1.0
 23
0.0
 33
0.0
 40
0.0
 40
0.0
 40
0.0
 40
0.0
 40
0.080320652347053
 40
0.1572952055240897
 40
0.2306009021222559
 40
0.3008825859259342
 40
0.368306785046958
 40
0.4328271419703851
 40
0.4944259677121782
 40
0.5541430476467067
 40
0.6120527207327258
 40
0.6682929057003564
 40
0.7237803200251814
 40
0.7785259513472186
 40
0.8329812339381856
 40
0.8879853518335444
 40
0.943667907133001
 40
1.0
 40
1.0
 40
1.0
 40
1.0
 10
65.56008760579428
 20
-32.05530492407682
 30
0.0
 10
65.46693437455151
 20
-32.0566704767854
 30
0.0
 10
65.28450860701352
 20
-32.05934469428334
 30
0.0
 10
65.0172905363286
 20
-32.07413882642127
 30
0.0
 10
64.7632188106306
 20
-32.10531245103124
 30
0.0
 10
64.52176876787574
 20
-32.14545776262517
 30
0.0
 10
64.29205179200194
 20
-32.19392922583295
 30
0.0
 10
64.07713942234588
 20
-32.25944584434004
 30
0.0
 10
63.87441491952882
 20
-32.33317501014743
 30
0.0
 10
63.68552917598037
 20
-32.42040172303384
 30
0.0
 10
63.50764915916132
 20
-32.51587420925681
 30
0.0
 10
63.34402104476791
 20
-32.62561484483678
 30
0.0
 10
63.192487285491
 20
-32.74573914032064
 30
0.0
 10
63.05587211333045
 20
-32.87963534317234
 30
0.0
 10
62.93007349516805
 20
-33.02289767277042
 30
0.0
 10
62.81724197668585
 20
-33.17800386349429
 30
0.0
 10
62.71816879516113
 20
-33.34493944268843
 30
0.0
 10
62.66431874454462
 20
-33.46325816450513
 30
0.0
 10
62.63723758951824
 20
-33.52276057186327
 30
0.0
  0
SPLINE
  5
8D
330
1F
100
AcDbEntity
  8
0
  6
Continuous
 62
     7
370
    15
100
AcDbSpline
210
0.0
220
0.0
230
1.0
 70
     8
 71
     3
 72
    11
 73
     7
 74
     0
 42
0.00000001
 43
0.00000001
 12
1.0
 22
0.0
 32
0.0
 13
1.0
 23
0.0
 33
0.0
 40
0.0
 40
0.0
 40
0.0
 40
0.0
 40
0.2043168671374329
 40
0.4375141176595546
 40
0.7016982687865135
 40
1.0
 40
1.0
 40
1.0
 40
1.0
 10
62.63723758951824
 20
-33.52276057186327
 30
0.0
 10
62.6086325738308
 20
-33.60249861060924
 30
0.0
 10
62.5473791962978
 20
-33.77324573567342
 30
0.0
 10
62.50368314334224
 20
-34.06188780055827
 30
0.0
 10
62.49038668239492
 20
-34.39133740872569
 30
0.0
 10
62.50621852293492
 20
-34.62373407675856
 30
0.0
 10
62.51461458333333
 20
-34.74698042049609
 30
0.0
  0
SPLINE
  5
8E
330
1F
100
AcDbEntity
  8
0
  6
Continuous
 62
     7
370
    15
100
AcDbSpline
210
0.0
220
0.0
230
1.0
 70
     8
 71
     3
 72
    11
 73
     7
 74
     0
 42
0.00000001
 43
0.00000001
 12
1.0
 22
0.0
 32
0.0
 13
1.0
 23
0.0
 33
0.0
 40
0.0
 40
0.0
 40
0.0
 40
0.0
 40
0.166661947106043
 40
0.3910211976019934
 40
0.6666761057879167
 40
1.0
 40
1.0
 40
1.0
 40
1.0
 10
62.51461458333333
 20
-34.74698042049609
 30
0.0
 10
62.51808797390386
 20
-34.77779083526408
 30
0.0
 10
62.52623722071281
 20
-34.85007803393417
 30
0.0
 10
62.5366672529052
 20
-34.97368685439878
 30
0.0
 10
62.55684170823245
 20
-35.12742964793922
 30
0.0
 10
62.56852573842553
 20
-35.24011891740006
 30
0.0
 10
62.57492097981772
 20
-35.30179926815236
 30
0.0
  0
SPLINE
  5
92
330
1F
100
AcDbEntity
  8
0
  6
Continuous
 62
     7
370
    15
100
AcDbSpline
210
0.0
220
0.0
230
1.0
 70
     8
 71
     3
 72
     9
 73
     5
 74
     0
 42
0.00000001
 43
0.00000001
 12
1.0
 22
0.0
 32
0.0
 13
1.0
 23
0.0
 33
0.0
 40
0.0
 40
0.0
 40
0.0
 40
0.0
 40
0.501254856181296
 40
1.0
 40
1.0
 40
1.0
 40
1.0
 10
65.83146638997395
 20
-35.33396267961067
 30
0.0
 10
65.84719615445609
 20
-35.27306311378761
 30
0.0
 10
65.87857692670825
 20
-35.15156889767762
 30
0.0
 10
65.90615923110911
 20
-35.02915647541746
 30
0.0
 10
65.91991577148438
 20
-34.96810387427212
 30
0.0
  0
SPLINE
  5
93
330
1F
100
AcDbEntity
  8
0
  6
Continuous
 62
     7
370
    15
100
AcDbSpline
210
0.0
220
0.0
230
1.0
 70
     8
 71
     3
 72
    11
 73
     7
 74
     0
 42
0.00000001
 43
0.00000001
 12
1.0
 22
0.0
 32
0.0
 13
1.0
 23
0.0
 33
0.0
 40
0.0
 40
0.0
 40
0.0
 40
0.0
 40
0.224651500451324
 40
0.4571039761843039
 40
0.710805005403458
 40
1.0
 40
1.0
 40
1.0
 40
1.0
 10
65.91991577148438
 20
-34.96810387427212
 30
0.0
 10
65.94461624230746
 20
-34.9268775705665
 30
0.0
 10
65.99487490251751
 20
-34.84299338858082
 30
0.0
 10
66.11363286077899
 20
-34.74523306787455
 30
0.0
 10
66.26280113273269
 20
-34.67246795755127
 30
0.0
 10
66.37484550021165
 20
-34.64370145415818
 30
0.0
 10
66.43453035481771
 20
-34.62837784074349
 30
0.0
  0
SPLINE
  5
A0
330
1F
100
AcDbEntity
  8
0
  6
Continuous
 62
     7
370
    15
100
AcDbSpline
210
0.0
220
0.0
230
1.0
 70
     8
 71
     3
 72
    15
 73
    11
 74
     0
 42
0.00000001
 43
0.00000001
 12
1.0
 22
0.0
 32
0.0
 13
1.0
 23
0.0
 33
0.0
 40
0.0
 40
0.0
 40
0.0
 40
0.0
 40
0.1119037012634211
 40
0.2258686540657826
 40
0.3418582336754907
 40
0.4610147469650636
 40
0.5858588864055903
 40
0.7173793137609814
 40
0.8549288251388267
 40
1.0
 40
1.0
 40
1.0
 40
1.0
 10
102.9018083089193
 20
-38.35933356991014
 30
0.0
 10
102.8900560917767
 20
-38.28926871543784
 30
0.0
 10
102.8663351831892
 20
-38.14784842103916
 30
0.0
 10
102.7999253007655
 20
-37.94078749694213
 30
0.0
 10
102.7133074877967
 20
-37.73678570927608
 30
0.0
 10
102.603508758075
 20
-37.53618943947362
 30
0.0
 10
102.4698904766432
 20
-37.33867161485877
 30
0.0
 10
102.3125344821073
 20
-37.14439030726687
 30
0.0
 10
102.1333956483353
 20
-36.95186598161298
 30
0.0
 10
101.9995693172381
 20
-36.83252413413018
 30
0.0
 10
101.9308753255208
 20
-36.77126512915493
 30
0.0
  0
SPLINE
  5
A1
330
1F
100
AcDbEntity
  8
0
  6
Continuous
 62
     7
370
    15
100
AcDbSpline
210
0.0
220
0.0
230
1.0
 70
     8
 71
     3
 72
    11
 73
     7
 74
     0
 42
0.00000001
 43
0.00000001
 12
1.0
 22
0.0
 32
0.0
 13
1.0
 23
0.0
 33
0.0
 40
0.0
 40
0.0
 40
0.0
 40
0.0
 40
0.3134377355450784
 40
0.5817173133362946
 40
0.8117514361679878
 40
1.0
 40
1.0
 40
1.0
 40
1.0
 10
101.9308753255208
 20
-36.77126512915493
 30
0.0
 10
101.8678410635799
 20
-36.71820056254246
 30
0.0
 10
101.7508541237636
 20
-36.61971664174241
 30
0.0
 10
101.5786298364998
 20
-36.49380987447554
 30
0.0
 10
101.4259377910068
 20
-36.39662528202989
 30
0.0
 10
101.3249954502839
 20
-36.35277397497607
 30
0.0
 10
101.2795662434896
 20
-36.33303864803514
 30
0.0
  0
SPLINE
  5
A2
330
1F
100
AcDbEntity
  8
0
  6
Continuous
 62
     7
370
    15
100
AcDbSpline
210
0.0
220
0.0
230
1.0
 70
     8
 71
     3
 72
    11
 73
     7
 74
     0
 42
0.00000001
 43
0.00000001
 12
1.0
 22
0.0
 32
0.0
 13
1.0
 23
0.0
 33
0.0
 40
0.0
 40
0.0
 40
0.0
 40
0.0
 40
0.2608957663281032
 40
0.5087881356539047
 40
0.7552987308679016
 40
1.0
 40
1.0
 40
1.0
 40
1.0
 10
101.2795662434896
 20
-36.33303864803514
 30
0.0
 10
101.3291440764693
 20
-36.25061371786886
 30
0.0
 10
101.4258287163413
 20
-36.08987202726605
 30
0.0
 10
101.5240867199969
 20
-35.82865660989582
 30
0.0
 10
101.58762230415
 20
-35.56285078631405
 30
0.0
 10
101.5953436782383
 20
-35.38189355131355
 30
0.0
 10
101.5991901448568
 20
-35.2917482020716
 30
0.0
  0
SPLINE
  5
A3
330
1F
100
AcDbEntity
  8
0
  6
Continuous
 62
     7
370
    15
100
AcDbSpline
210
0.0
220
0.0
230
1.0
 70
     8
 71
     3
 72
    11
 73
     7
 74
     0
 42
0.00000001
 43
0.00000001
 12
1.0
 22
0.0
 32
0.0
 13
1.0
 23
0.0
 33
0.0
 40
0.0
 40
0.0
 40
0.0
 40
0.0
 40
0.1944376424331016
 40
0.4271525952102144
 40
0.6939381936879886
 40
1.0
 40
1.0
 40
1.0
 40
1.0
 10
101.5991901448568
 20
-35.2917482020716
 30
0.0
 10
101.5978398758394
 20
-35.23274471699661
 30
0.0
 10
101.594873521651
 20
-35.10312222486572
 30
0.0
 10
101.5745316236456
 20
-34.89341746748723
 30
0.0
 10
101.547479213874
 20
-34.65045297411462
 30
0.0
 10
101.519603567558
 20
-34.47884124012657
 30
0.0
 10
101.5047101236979
 20
-34.38715225480598
 30
0.0
  0
SPLINE
  5
A4
330
1F
100
AcDbEntity
  8
0
  6
Continuous
 62
     7
370
    15
100
AcDbSpline
210
0.0
220
0.0
230
1.0
 70
     8
 71
     3
 72
    15
 73
    11
 74
     0
 42
0.00000001
 43
0.00000001
 12
1.0
 22
0.0
 32
0.0
 13
1.0
 23
0.0
 33
0.0
 40
0.0
 40
0.0
 40
0.0
 40
0.0
 40
0.0486840555791132
 40
0.1192636363099836
 40
0.2110635807555744
 40
0.3254624594294785
 40
0.460898383722828
 40
0.61919787500224
 40
0.7985498023097719
 40
1.0
 40
1.0
 40
1.0
 40
1.0
 10
101.5047101236979
 20
-34.38715225480598
 30
0.0
 10
101.4970772650804
 20
-34.34819456957716
 30
0.0
 10
101.4783786898828
 20
-34.2527580832915
 30
0.0
 10
101.4322879992537
 20
-34.08684303299328
 30
0.0
 10
101.3668027964328
 20
-33.87096665011255
 30
0.0
 10
101.2850230591747
 20
-33.60472584273988
 30
0.0
 10
101.183884552657
 20
-33.28775730325173
 30
0.0
 10
101.063289184024
 20
-32.92143345888701
 30
0.0
 10
100.9246904439449
 20
-32.50438252820856
 30
0.0
 10
100.824162913805
 20
-32.21067875189249
 30
0.0
 10
100.7709822998047
 20
-32.05530492407682
 30
0.0
  0
SPLINE
  5
B1
330
1F
100
AcDbEntity
  8
0
  6
Continuous
 62
     7
370
    15
100
AcDbSpline
210
0.0
220
0.0
230
1.0
 70
     8
 71
     3
 72
    11
 73
     7
 74
     0
 42
0.00000001
 43
0.00000001
 12
1.0
 22
0.0
 32
0.0
 13
1.0
 23
0.0
 33
0.0
 40
0.0
 40
0.0
 40
0.0
 40
0.0
 40
0.2283954419752399
 40
0.467111559680268
 40
0.7244179581333019
 40
1.0
 40
1.0
 40
1.0
 40
1.0
 10
101.6735680338542
 20
-41.70432836157681
 30
0.0
 10
101.7274933460543
 20
-41.70171307070114
 30
0.0
 10
101.8377807338858
 20
-41.69636430984414
 30
0.0
 10
102.002599334074
 20
-41.6476844421762
 30
0.0
 10
102.1703806987739
 20
-41.57634620935524
 30
0.0
 10
102.2761891541112
 20
-41.50832885924333
 30
0.0
 10
102.3309077555339
 20
-41.47315384172004
 30
0.0
  0
SPLINE
  5
B2
330
1F
100
AcDbEntity
  8
0
  6
Continuous
 62
     7
370
    15
100
AcDbSpline
210
0.0
220
0.0
230
1.0
 70
     8
 71
     3
 72
    11
 73
     7
 74
     0
 42
0.00000001
 43
0.00000001
 12
1.0
 22
0.0
 32
0.0
 13
1.0
 23
0.0
 33
0.0
 40
0.0
 40
0.0
 40
0.0
 40
0.0
 40
0.2648958411737963
 40
0.5174911528564818
 40
0.7612447442384473
 40
0.9999999999999999
 40
0.9999999999999999
 40
0.9999999999999999
 40
0.9999999999999999
 10
102.3309077555339
 20
-41.47315384172004
 30
0.0
 10
102.3821239722312
 20
-41.43613335826568
 30
0.0
 10
102.4821781629886
 20
-41.36381145023871
 30
0.0
 10
102.6131774112768
 20
-41.23765835769475
 30
0.0
 10
102.7261748285914
 20
-41.10294399552697
 30
0.0
 10
102.784498955413
 20
-41.00365102603906
 30
0.0
 10
102.8133589274089
 20
-40.95451883195442
 30
0.0
  0
SPLINE
  5
B3
330
1F
100
AcDbEntity
  8
0
  6
Continuous
 62
     7
370
    15
100
AcDbSpline
210
0.0
220
0.0
230
1.0
 70
     8
 71
     3
 72
    15
 73
    11
 74
     0
 42
0.00000001
 43
0.00000001
 12
1.0
 22
0.0
 32
0.0
 13
1.0
 23
0.0
 33
0.0
 40
0.0
 40
0.0
 40
0.0
 40
0.0
 40
0.0860165100326654
 40
0.1833995945071763
 40
0.2897735031960846
 40
0.4088143079306688
 40
0.5380332366822271
 40
0.6793420547264066
 40
0.8340983154364856
 40
0.9999999999999999
 40
0.9999999999999999
 40
0.9999999999999999
 40
0.9999999999999999
 10
102.8133589274089
 20
-40.95451883195442
 30
0.0
 10
102.8335828616507
 20
-40.91332154137281
 30
0.0
 10
102.8767032037556
 20
-40.82548298125693
 30
0.0
 10
102.92777026334
 20
-40.67921724385501
 30
0.0
 10
102.9689473578677
 20
-40.51201415321209
 30
0.0
 10
103.0057333788587
 20
-40.3263934666073
 30
0.0
 10
103.0300456503091
 20
-40.11997493262756
 30
0.0
 10
103.0508031311544
 20
-39.89415008081276
 30
0.0
 10
103.0624404081873
 20
-39.6480006077033
 30
0.0
 10
103.0638870943817
 20
-39.47702297293851
 30
0.0
 10
103.0646355794271
 20
-39.38856273657682
 30
0.0
  0
CIRCLE
  5
B9
330
1F
100
AcDbEntity
  8
0
  6
Continuous
 62
     7
370
    15
100
AcDbCircle
 10
6.738
 20
-83.3486098482
 30
0.0
 40
1.599999999999994
  0
CIRCLE
  5
BA
330
1F
100
AcDbEntity
  8
0
  6
Continuous
 62
     7
370
    15
100
AcDbCircle
 10
166.262
 20
-83.3486098482
 30
0.0
 40
1.600000000000009
  0
CIRCLE
  5
BB
330
1F
100
AcDbEntity
  8
0
  6
Continuous
 62
     7
370
    15
100
AcDbCircle
 10
29.999061496
 20
-83.3486098482
 30
0.0
 40
1.650000000000006
  0
CIRCLE
  5
BC
330
1F
100
AcDbEntity
  8
0
  6
Continuous
 62
     7
370
    15
100
AcDbCircle
 10
143.0
 20
-83.3486098482
 30
0.0
 40
1.650000000000006
  0
CIRCLE
  5
BD
330
1F
100
AcDbEntity
  8
0
  6
Continuous
 62
     7
370
    15
100
AcDbCircle
 10
184.1743049241
 20
-78.8766098482
 30
0.0
 40
1.599999999999994
  0
CIRCLE
  5
BE
330
1F
100
AcDbEntity
  8
0
  6
Continuous
 62
     7
370
    15
100
AcDbCircle
 10
184.1743049241
 20
4.766
 30
0.0
 40
1.599999999999977
  0
CIRCLE
  5
BF
330
1F
100
AcDbEntity
  8
0
  6
Continuous
 62
     7
370
    15
100
AcDbCircle
 10
-11.1743049241
 20
4.766
 30
0.0
 40
1.599999999999994
  0
CIRCLE
  5
C0
330
1F
100
AcDbEntity
  8
0
  6
Continuous
 62
     7
370
    15
100
AcDbCircle
 10
-11.1743049241
 20
-78.8766098482
 30
0.0
 40
1.599999999999994
  0
CIRCLE
  5
C1
330
1F
100
AcDbEntity
  8
0
  6
Continuous
 62
     7
370
    15
100
AcDbCircle
 10
163.7303049241
 20
289.238
 30
0.0
 40
1.599999999999909
  0
CIRCLE
  5
C2
330
1F
100
AcDbEntity
  8
0
  6
Continuous
 62
     7
370
    15
100
AcDbCircle
 10
175.7996098482
 20
234.238
 30
0.0
 40
1.69999999999996
  0
CIRCLE
  5
C3
330
1F
100
AcDbEntity
  8
0
  6
Continuous
 62
     7
370
    15
100
AcDbCircle
 10
175.7996098482
 20
264.238
 30
0.0
 40
1.69999999999996
  0
CIRCLE
  5
C4
330
1F
100
AcDbEntity
  8
0
  6
Continuous
 62
     7
370
    15
100
AcDbCircle
 10
187.8689147722
 20
289.238
 30
0.0
 40
1.599999999999852
  0
CIRCLE
  5
C5
330
1F
100
AcDbEntity
  8
0
  6
Continuous
 62
     7
370
    15
100
AcDbCircle
 10
200.2322196963
 20
234.238
 30
0.0
 40
1.700000000000045
  0
CIRCLE
  5
C6
330
1F
100
AcDbEntity
  8
0
  6
Continuous
 62
     7
370
    15
100
AcDbCircle
 10
200.2322196963
 20
264.238
 30
0.0
 40
1.69999999999996
  0
CIRCLE
  5
C7
330
1F
100
AcDbEntity
  8
0
  6
Continuous
 62
     7
370
    15
100
AcDbCircle
 10
9.2696950759
 20
289.238
 30
0.0
 40
1.59999999999998
  0
CIRCLE
  5
C8
330
1F
100
AcDbEntity
  8
0
  6
Continuous
 62
     7
370
    15
100
AcDbCircle
 10
-2.7996098482
 20
234.238
 30
0.0
 40
1.700000000000016
  0
CIRCLE
  5
C9
330
1F
100
AcDbEntity
  8
0
  6
Continuous
 62
     7
370
    15
100
AcDbCircle
 10
-2.7996098482
 20
264.238
 30
0.0
 40
1.699999999999977
  0
CIRCLE
  5
CA
330
1F
100
AcDbEntity
  8
0
  6
Continuous
 62
     7
370
    15
100
AcDbCircle
 10
-14.8689147722
 20
289.238
 30
0.0
 40
1.59999999999998
  0
CIRCLE
  5
CB
330
1F
100
AcDbEntity
  8
0
  6
Continuous
 62
     7
370
    15
100
AcDbCircle
 10
-27.2322196963
 20
234.238
 30
0.0
 40
1.700000000000014
  0
CIRCLE
  5
CC
330
1F
100
AcDbEntity
  8
0
  6
Continuous
 62
     7
370
    15
100
AcDbCircle
 10
-27.2322196963
 20
264.238
 30
0.0
 40
1.699999999999982
  0
CIRCLE
  5
CD
330
1F
100
AcDbEntity
  8
0
  6
Continuous
 62
     7
370
    15
100
AcDbCircle
 10
6.738
 20
9.238
 30
0.0
 40
1.599999999999996
  0
CIRCLE
  5
CE
330
1F
100
AcDbEntity
  8
0
  6
Continuous
 62
     7
370
    15
100
AcDbCircle
 10
166.262
 20
9.238
 30
0.0
 40
1.599999999999987
  0
CIRCLE
  5
CF
330
1F
100
AcDbEntity
  8
0
  6
Continuous
 62
     7
370
    15
100
AcDbCircle
 10
23.605
 20
264.238
 30
0.0
 40
1.699999999999989
  0
CIRCLE
  5
D0
330
1F
100
AcDbEntity
  8
0
  6
Continuous
 62
     7
370
    15
100
AcDbCircle
 10
23.605
 20
234.238
 30
0.0
 40
1.699999999999989
  0
CIRCLE
  5
D1
330
1F
100
AcDbEntity
  8
0
  6
Continuous
 62
     7
370
    15
100
AcDbCircle
 10
149.395
 20
264.238
 30
0.0
 40
1.699999999999989
  0
CIRCLE
  5
D2
330
1F
100
AcDbEntity
  8
0
  6
Continuous
 62
     7
370
    15
100
AcDbCircle
 10
149.395
 20
234.238
 30
0.0
 40
1.699999999999989
  0
CIRCLE
  5
D3
330
1F
100
AcDbEntity
  8
0
  6
Continuous
 62
     7
370
    15
100
AcDbCircle
 10
39.262
 20
262.238
 30
0.0
 40
1.699999999999989
  0
CIRCLE
  5
D4
330
1F
100
AcDbEntity
  8
0
  6
Continuous
 62
     7
370
    15
100
AcDbCircle
 10
39.262
 20
207.762
 30
0.0
 40
1.69999999999996
  0
CIRCLE
  5
D5
330
1F
100
AcDbEntity
  8
0
  6
Continuous
 62
     7
370
    15
100
AcDbCircle
 10
133.738
 20
207.762
 30
0.0
 40
1.699999999999932
  0
CIRCLE
  5
D6
330
1F
100
AcDbEntity
  8
0
  6
Continuous
 62
     7
370
    15
100
AcDbCircle
 10
133.738
 20
262.238
 30
0.0
 40
1.699999999999989
  0
CIRCLE
  5
D7
330
1F
100
AcDbEntity
  8
0
  6
Continuous
 62
     7
370
    15
100
AcDbCircle
 10
227.238
 20
110.0
 30
0.0
 40
1.69999999999996
  0
CIRCLE
  5
D8
330
1F
100
AcDbEntity
  8
0
  6
Continuous
 62
     7
370
    15
100
AcDbCircle
 10
227.238
 20
165.0
 30
0.0
 40
1.69999999999996
  0
CIRCLE
  5
D9
330
1F
100
AcDbEntity
  8
0
  6
Continuous
 62
     7
370
    15
100
AcDbCircle
 10
-54.238
 20
110.0
 30
0.0
 40
1.69999999999996
  0
CIRCLE
  5
DA
330
1F
100
AcDbEntity
  8
0
  6
Continuous
 62
     7
370
    15
100
AcDbCircle
 10
-54.238
 20
165.0
 30
0.0
 40
1.699999999999989
  0
CIRCLE
  5
DB
330
1F
100
AcDbEntity
  8
0
  6
Continuous
 62
     7
370
    15
100
AcDbCircle
 10
92.0
 20
280.488
 30
0.0
 40
1.699999999999989
  0
CIRCLE
  5
DC
330
1F
100
AcDbEntity
  8
0
  6
Continuous
 62
     7
370
    15
100
AcDbCircle
 10
81.0
 20
280.488
 30
0.0
 40
1.699999999999932
  0
CIRCLE
  5
E1
330
1F
100
AcDbEntity
  8
0
  6
Continuous
 62
     7
370
    15
100
AcDbCircle
 10
42.4171212988
 20
107.4795860628
 30
0.0
 40
1.700000000000003
  0
CIRCLE
  5
E2
330
1F
100
AcDbEntity
  8
0
  6
Continuous
 62
     7
370
    15
100
AcDbCircle
 10
75.052
 20
27.4795860628
 30
0.0
 40
1.699999999999992
  0
CIRCLE
  5
E3
330
1F
100
AcDbEntity
  8
0
  6
Continuous
 62
     7
370
    15
100
AcDbCircle
 10
9.052
 20
27.4795860628
 30
0.0
 40
1.699999999999989
  0
CIRCLE
  5
E4
330
1F
100
AcDbEntity
  8
0
  6
Continuous
 62
     7
370
    15
100
AcDbCircle
 10
130.5828787012
 20
107.4795860628
 30
0.0
 40
1.699999999999974
  0
CIRCLE
  5
E5
330
1F
100
AcDbEntity
  8
0
  6
Continuous
 62
     7
370
    15
100
AcDbCircle
 10
97.948
 20
27.4795860628
 30
0.0
 40
1.699999999999992
  0
CIRCLE
  5
E6
330
1F
100
AcDbEntity
  8
0
  6
Continuous
 62
     7
370
    15
100
AcDbCircle
 10
163.948
 20
27.4795860628
 30
0.0
 40
1.699999999999974
  0
CIRCLE
  5
E7
330
1F
100
AcDbEntity
  8
0
  6
Continuous
 62
     7
370
    15
100
AcDbCircle
 10
201.028
 20
130.0
 30
0.0
 40
1.69999999999996
  0
CIRCLE
  5
E8
330
1F
100
AcDbEntity
  8
0
  6
Continuous
 62
     7
370
    15
100
AcDbCircle
 10
201.028
 20
160.0
 30
0.0
 40
1.699999999999989
  0
CIRCLE
  5
E9
330
1F
100
AcDbEntity
  8
0
  6
Continuous
 62
     7
370
    15
100
AcDbCircle
 10
-28.028
 20
130.0
 30
0.0
 40
1.699999999999989
  0
CIRCLE
  5
EA
330
1F
100
AcDbEntity
  8
0
  6
Continuous
 62
     7
370
    15
100
AcDbCircle
 10
-28.028
 20
160.0
 30
0.0
 40
1.699999999999989
  0
LINE
  5
129
330
1F
100
AcDbEntity
  8
0
  6
Continuous
 62
     7
370
    15
100
AcDbLine
 10
108.956570516
 20
-32.0553049241
 30
0.0
 11
106.9966126302
 21
-35.9370266445
 31
0.0
  0
LINE
  5
12A
330
1F
100
AcDbEntity
  8
0
  6
Continuous
 62
     7
370
    15
100
AcDbLine
 10
106.9966126302
 20
-35.9370266445
 30
0.0
 11
105.8849647217
 21
-32.0553049241
 31
0.0
  0
LINE
  5
12B
330
1F
100
AcDbEntity
  8
0
  6
Continuous
 62
     7
370
    15
100
AcDbLine
 10
105.8849647217
 20
-32.0553049241
 30
0.0
 11
102.5258984375
 21
-32.0553049241
 31
0.0
  0
LINE
  5
12C
330
1F
100
AcDbEntity
  8
0
  6
Continuous
 62
     7
370
    15
100
AcDbLine
 10
102.5258984375
 20
-32.0553049241
 30
0.0
 11
104.3572026774
 21
-38.4055684739
 31
0.0
  0
LINE
  5
12D
330
1F
100
AcDbEntity
  8
0
  6
Continuous
 62
     7
370
    15
100
AcDbLine
 10
104.3572026774
 20
-38.4055684739
 30
0.0
 11
111.9899822591
 21
-38.4055684739
 31
0.0
  0
LINE
  5
12E
330
1F
100
AcDbEntity
  8
0
  6
Continuous
 62
     7
370
    15
100
AcDbLine
 10
111.9899822591
 20
-38.4055684739
 30
0.0
 11
110.1325452474
 21
-36.52802933
 31
0.0
  0
LINE
  5
12F
330
1F
100
AcDbEntity
  8
0
  6
Continuous
 62
     7
370
    15
100
AcDbLine
 10
110.1325452474
 20
-36.52802933
 30
0.0
 11
112.4241883138
 21
-32.0553049241
 31
0.0
  0
LINE
  5
130
330
1F
100
AcDbEntity
  8
0
  6
Continuous
 62
     7
370
    15
100
AcDbLine
 10
112.4241883138
 20
-32.0553049241
 30
0.0
 11
108.956570516
 21
-32.0553049241
 31
0.0
  0
LINE
  5
131
330
1F
100
AcDbEntity
  8
0
  6
Continuous
 62
     7
370
    15
100
AcDbLine
 10
112.8322615967
 20
-39.3885627366
 30
0.0
 11
108.8098249512
 21
-39.3885627366
 31
0.0
  0
LINE
  5
132
330
1F
100
AcDbEntity
  8
0
  6
Continuous
 62
     7
370
    15
100
AcDbLine
 10
108.8098249512
 20
-39.3885627366
 30
0.0
 11
111.0693046061
 21
-41.7043283616
 31
0.0
  0
LINE
  5
133
330
1F
100
AcDbEntity
  8
0
  6
Continuous
 62
     7
370
    15
100
AcDbLine
 10
111.0693046061
 20
-41.7043283616
 30
0.0
 11
115.0515369873
 21
-41.7043283616
 31
0.0
  0
LINE
  5
134
330
1F
100
AcDbEntity
  8
0
  6
Continuous
 62
     7
370
    15
100
AcDbLine
 10
115.0515369873
 20
-41.7043283616
 30
0.0
 11
112.8322615967
 21
-39.3885627366
 31
0.0
  0
LINE
  5
135
330
1F
100
AcDbEntity
  8
0
  6
Continuous
 62
     7
370
    15
100
AcDbLine
 10
84.1867232666
 20
-39.3885627366
 30
0.0
 11
86.180854777
 21
-41.7043283616
 31
0.0
  0
LINE
  5
136
330
1F
100
AcDbEntity
  8
0
  6
Continuous
 62
     7
370
    15
100
AcDbLine
 10
86.180854777
 20
-41.7043283616
 30
0.0
 11
89.6886768392
 21
-41.7043283616
 31
0.0
  0
LINE
  5
137
330
1F
100
AcDbEntity
  8
0
  6
Continuous
 62
     7
370
    15
100
AcDbLine
 10
89.6886768392
 20
-41.7043283616
 30
0.0
 11
90.1831892904
 21
-39.3885627366
 31
0.0
  0
LINE
  5
138
330
1F
100
AcDbEntity
  8
0
  6
Continuous
 62
     7
370
    15
100
AcDbLine
 10
90.1831892904
 20
-39.3885627366
 30
0.0
 11
84.1867232666
 21
-39.3885627366
 31
0.0
  0
LINE
  5
139
330
1F
100
AcDbEntity
  8
0
  6
Continuous
 62
     7
370
    15
100
AcDbLine
 10
77.4283864339
 20
-39.3885627366
 30
0.0
 11
74.0632895101
 21
-39.3885627366
 31
0.0
  0
LINE
  5
13A
330
1F
100
AcDbEntity
  8
0
  6
Continuous
 62
     7
370
    15
100
AcDbLine
 10
74.0632895101
 20
-39.3885627366
 30
0.0
 11
74.7005270996
 21
-41.6842262294
 31
0.0
  0
LINE
  5
13B
330
1F
100
AcDbEntity
  8
0
  6
Continuous
 62
     7
370
    15
100
AcDbLine
 10
74.7005270996
 20
-41.6842262294
 30
0.0
 11
78.1138691406
 21
-41.7043283616
 31
0.0
  0
LINE
  5
13C
330
1F
100
AcDbEntity
  8
0
  6
Continuous
 62
     7
370
    15
100
AcDbLine
 10
78.1138691406
 20
-41.7043283616
 30
0.0
 11
77.4283864339
 21
-39.3885627366
 31
0.0
  0
LINE
  5
13D
330
1F
100
AcDbEntity
  8
0
  6
Continuous
 62
     7
370
    15
100
AcDbLine
 10
71.9706575521
 20
-39.3885627366
 30
0.0
 11
63.6544054769
 21
-39.3885627366
 31
0.0
  0
LINE
  5
13E
330
1F
100
AcDbEntity
  8
0
  6
Continuous
 62
     7
370
    15
100
AcDbLine
 10
66.2656724447
 20
-41.7043283616
 30
0.0
 11
72.6561402588
 21
-41.7043283616
 31
0.0
  0
LINE
  5
13F
330
1F
100
AcDbEntity
  8
0
  6
Continuous
 62
     7
370
    15
100
AcDbLine
 10
72.6561402588
 20
-41.7043283616
 30
0.0
 11
71.9706575521
 21
-39.3885627366
 31
0.0
  0
LINE
  5
140
330
1F
100
AcDbEntity
  8
0
  6
Continuous
 62
     7
370
    15
100
AcDbLine
 10
69.9624545492
 20
-32.0553049241
 30
0.0
 11
65.5600876058
 21
-32.0553049241
 31
0.0
  0
LINE
  5
141
330
1F
100
AcDbEntity
  8
0
  6
Continuous
 62
     7
370
    15
100
AcDbLine
 10
62.5749209798
 20
-35.3017992682
 30
0.0
 11
63.3830266927
 21
-38.3854663417
 31
0.0
  0
LINE
  5
142
330
1F
100
AcDbEntity
  8
0
  6
Continuous
 62
     7
370
    15
100
AcDbLine
 10
63.3830266927
 20
-38.3854663417
 30
0.0
 11
66.8285321452
 21
-38.4055684739
 31
0.0
  0
LINE
  5
143
330
1F
100
AcDbEntity
  8
0
  6
Continuous
 62
     7
370
    15
100
AcDbLine
 10
66.8285321452
 20
-38.4055684739
 30
0.0
 11
65.83146639
 21
-35.3339626796
 31
0.0
  0
LINE
  5
144
330
1F
100
AcDbEntity
  8
0
  6
Continuous
 62
     7
370
    15
100
AcDbLine
 10
66.4345303548
 20
-34.6283778407
 30
0.0
 11
70.6881415202
 21
-34.6283778407
 31
0.0
  0
LINE
  5
145
330
1F
100
AcDbEntity
  8
0
  6
Continuous
 62
     7
370
    15
100
AcDbLine
 10
70.6881415202
 20
-34.6283778407
 30
0.0
 11
69.9624545492
 21
-32.0553049241
 31
0.0
  0
LINE
  5
146
330
1F
100
AcDbEntity
  8
0
  6
Continuous
 62
     7
370
    15
100
AcDbLine
 10
78.7913109945
 20
-32.0553049241
 30
0.0
 11
72.034984375
 21
-32.0553049241
 31
0.0
  0
LINE
  5
147
330
1F
100
AcDbEntity
  8
0
  6
Continuous
 62
     7
370
    15
100
AcDbLine
 10
72.034984375
 20
-32.0553049241
 30
0.0
 11
73.8260843506
 21
-38.4055684739
 31
0.0
  0
LINE
  5
148
330
1F
100
AcDbEntity
  8
0
  6
Continuous
 62
     7
370
    15
100
AcDbLine
 10
73.8260843506
 20
-38.4055684739
 30
0.0
 11
77.1972119141
 21
-38.4055684739
 31
0.0
  0
LINE
  5
149
330
1F
100
AcDbEntity
  8
0
  6
Continuous
 62
     7
370
    15
100
AcDbLine
 10
77.1972119141
 20
-38.4055684739
 30
0.0
 11
76.0835537923
 21
-34.3710705491
 31
0.0
  0
LINE
  5
14A
330
1F
100
AcDbEntity
  8
0
  6
Continuous
 62
     7
370
    15
100
AcDbLine
 10
76.0835537923
 20
-34.3710705491
 30
0.0
 11
80.2550562049
 21
-34.3710705491
 31
0.0
  0
LINE
  5
14B
330
1F
100
AcDbEntity
  8
0
  6
Continuous
 62
     7
370
    15
100
AcDbLine
 10
80.2550562049
 20
-34.3710705491
 30
0.0
 11
83.4409341634
 21
-38.4879872157
 31
0.0
  0
LINE
  5
14C
330
1F
100
AcDbEntity
  8
0
  6
Continuous
 62
     7
370
    15
100
AcDbLine
 10
83.4409341634
 20
-38.4879872157
 30
0.0
 11
90.3741595459
 21
-38.4879872157
 31
0.0
  0
LINE
  5
14D
330
1F
100
AcDbEntity
  8
0
  6
Continuous
 62
     7
370
    15
100
AcDbLine
 10
90.3741595459
 20
-38.4879872157
 30
0.0
 11
91.4583258985
 21
-33.3482356183
 31
0.0
  0
LINE
  5
14E
330
1F
100
AcDbEntity
  8
0
  6
Continuous
 62
     7
370
    15
100
AcDbLine
 10
91.4583258985
 20
-33.3482356183
 30
0.0
 11
92.9412018229
 21
-38.3593335699
 31
0.0
  0
LINE
  5
14F
330
1F
100
AcDbEntity
  8
0
  6
Continuous
 62
     7
370
    15
100
AcDbLine
 10
92.9412018229
 20
-38.3593335699
 30
0.0
 11
102.9018083089
 21
-38.3593335699
 31
0.0
  0
LINE
  5
150
330
1F
100
AcDbEntity
  8
0
  6
Continuous
 62
     7
370
    15
100
AcDbLine
 10
100.7709822998
 20
-32.0553049241
 30
0.0
 11
97.657162028
 21
-32.0553049241
 31
0.0
  0
LINE
  5
151
330
1F
100
AcDbEntity
  8
0
  6
Continuous
 62
     7
370
    15
100
AcDbLine
 10
97.657162028
 20
-32.0553049241
 30
0.0
 11
98.7688099365
 21
-35.7862606532
 31
0.0
  0
LINE
  5
152
330
1F
100
AcDbEntity
  8
0
  6
Continuous
 62
     7
370
    15
100
AcDbLine
 10
98.7688099365
 20
-35.7862606532
 30
0.0
 11
95.4921623942
 21
-35.7862606532
 31
0.0
  0
LINE
  5
153
330
1F
100
AcDbEntity
  8
0
  6
Continuous
 62
     7
370
    15
100
AcDbLine
 10
95.4921623942
 20
-35.7862606532
 30
0.0
 11
94.3121672363
 21
-32.0553049241
 31
0.0
  0
LINE
  5
154
330
1F
100
AcDbEntity
  8
0
  6
Continuous
 62
     7
370
    15
100
AcDbLine
 10
94.3121672363
 20
-32.0553049241
 30
0.0
 11
88.2433335368
 21
-32.0553049241
 31
0.0
  0
LINE
  5
155
330
1F
100
AcDbEntity
  8
0
  6
Continuous
 62
     7
370
    15
100
AcDbLine
 10
88.2433335368
 20
-32.0553049241
 30
0.0
 11
87.3005435384
 21
-35.9149142991
 31
0.0
  0
LINE
  5
156
330
1F
100
AcDbEntity
  8
0
  6
Continuous
 62
     7
370
    15
100
AcDbLine
 10
87.3005435384
 20
-35.9149142991
 30
0.0
 11
85.3325447998
 21
-35.9149142991
 31
0.0
  0
LINE
  5
157
330
1F
100
AcDbEntity
  8
0
  6
Continuous
 62
     7
370
    15
100
AcDbLine
 10
85.3325447998
 20
-35.9149142991
 30
0.0
 11
82.5383484294
 21
-32.0553049241
 31
0.0
  0
LINE
  5
158
330
1F
100
AcDbEntity
  8
0
  6
Continuous
 62
     7
370
    15
100
AcDbLine
 10
82.5383484294
 20
-32.0553049241
 30
0.0
 11
78.7959552966
 21
-32.0608492102
 31
0.0
  0
LINE
  5
159
330
1F
100
AcDbEntity
  8
0
  6
Continuous
 62
     7
370
    15
100
AcDbLine
 10
78.7959552966
 20
-32.0608492102
 30
0.0
 11
78.7913109945
 21
-32.0553049241
 31
0.0
  0
LINE
  5
15A
330
1F
100
AcDbEntity
  8
0
  6
Continuous
 62
     7
370
    15
100
AcDbLine
 10
92.2959233805
 20
-39.3885627366
 30
0.0
 11
93.7673994548
 21
-41.7043283616
 31
0.0
  0
LINE
  5
15B
330
1F
100
AcDbEntity
  8
0
  6
Continuous
 62
     7
370
    15
100
AcDbLine
 10
93.7673994548
 20
-41.7043283616
 30
0.0
 11
101.6735680339
 21
-41.7043283616
 31
0.0
  0
LINE
  5
15C
330
1F
100
AcDbEntity
  8
0
  6
Continuous
 62
     7
370
    15
100
AcDbLine
 10
103.0646355794
 20
-39.3885627366
 30
0.0
 11
92.2959233805
 21
-39.3885627366
 31
0.0
  0
LINE
  5
15D
330
1F
100
AcDbEntity
  8
0
  6
Continuous
 62
     7
370
    15
100
AcDbLine
 10
107.9132698568
 20
-39.3885627366
 30
0.0
 11
104.6165201823
 21
-39.3885627366
 31
0.0
  0
LINE
  5
15E
330
1F
100
AcDbEntity
  8
0
  6
Continuous
 62
     7
370
    15
100
AcDbLine
 10
104.6165201823
 20
-39.3885627366
 30
0.0
 11
105.2819007568
 21
-41.7043283616
 31
0.0
  0
LINE
  5
15F
330
1F
100
AcDbEntity
  8
0
  6
Continuous
 62
     7
370
    15
100
AcDbLine
 10
105.2819007568
 20
-41.7043283616
 30
0.0
 11
108.5786504313
 21
-41.7043283616
 31
0.0
  0
LINE
  5
160
330
1F
100
AcDbEntity
  8
0
  6
Continuous
 62
     7
370
    15
100
AcDbLine
 10
108.5786504313
 20
-41.7043283616
 30
0.0
 11
107.9132698568
 21
-39.3885627366
 31
0.0
  0
LINE
  5
161
330
1F
100
AcDbEntity
  8
0
  6
Continuous
 62
     7
370
    15
100
AcDbLine
 10
75.75
 20
295.738
 30
0.0
 11
75.75
 21
287.238
 31
0.0
  0
LINE
  5
162
330
1F
100
AcDbEntity
  8
0
  6
Continuous
 62
     7
370
    15
100
AcDbLine
 10
97.25
 20
287.238
 30
0.0
 11
75.75
 21
287.238
 31
0.0
  0
LINE
  5
163
330
1F
100
AcDbEntity
  8
0
  6
Continuous
 62
     7
370
    15
100
AcDbLine
 10
97.25
 20
295.738
 30
0.0
 11
97.25
 21
287.238
 31
0.0
  0
LINE
  5
164
330
1F
100
AcDbEntity
  8
0
  6
Continuous
 62
     7
370
    15
100
AcDbLine
 10
97.25
 20
295.738
 30
0.0
 11
75.75
 21
295.738
 31
0.0
  0
LINE
  5
165
330
1F
100
AcDbEntity
  8
0
  6
Continuous
 62
     7
370
    15
100
AcDbLine
 10
422.6352196963
 20
175.0
 30
0.0
 11
176.5
 21
175.0
 31
0.0
  0
LINE
  5
166
330
1F
100
AcDbEntity
  8
0
  6
Continuous
 62
     7
370
    15
100
AcDbLine
 10
422.6352196963
 20
100.0
 30
0.0
 11
422.6352196963
 21
175.0
 31
0.0
  0
LINE
  5
167
330
1F
100
AcDbEntity
  8
0
  6
Continuous
 62
     7
370
    15
100
AcDbLine
 10
193.0
 20
100.0
 30
0.0
 11
422.6352196963
 21
100.0
 31
0.0
  0
LINE
  5
168
330
1F
100
AcDbEntity
  8
0
  6
Continuous
 62
     7
370
    15
100
AcDbLine
 10
173.0
 20
-1.9363049241
 30
0.0
 11
173.0
 21
80.0
 31
0.0
  0
LINE
  5
169
330
1F
100
AcDbEntity
  8
0
  6
Continuous
 62
     7
370
    15
100
AcDbLine
 10
173.0
 20
-1.9363049241
 30
0.0
 11
175.3313049241
 21
-1.9363049241
 31
0.0
  0
LINE
  5
16A
330
1F
100
AcDbEntity
  8
0
  6
Continuous
 62
     7
370
    15
100
AcDbLine
 10
175.3313049241
 20
-1.9363049241
 30
0.0
 11
175.3313049241
 21
-4.5133049241
 31
0.0
  0
LINE
  5
16B
330
1F
100
AcDbEntity
  8
0
  6
Continuous
 62
     7
370
    15
100
AcDbLine
 10
175.3313049241
 20
-4.5133049241
 30
0.0
 11
175.9363049241
 21
-4.5133049241
 31
0.0
  0
LINE
  5
16C
330
1F
100
AcDbEntity
  8
0
  6
Continuous
 62
     7
370
    15
100
AcDbLine
 10
175.9363049241
 20
-4.5133049241
 30
0.0
 11
175.9363049241
 21
12.266
 31
0.0
  0
LINE
  5
16D
330
1F
100
AcDbEntity
  8
0
  6
Continuous
 62
     7
370
    15
100
AcDbLine
 10
175.9363049241
 20
12.266
 30
0.0
 11
194.1743049241
 21
12.266
 31
0.0
  0
LINE
  5
16E
330
1F
100
AcDbEntity
  8
0
  6
Continuous
 62
     7
370
    15
100
AcDbLine
 10
194.1743049241
 20
12.266
 30
0.0
 11
194.1743049241
 21
-86.3766098482
 31
0.0
  0
LINE
  5
16F
330
1F
100
AcDbEntity
  8
0
  6
Continuous
 62
     7
370
    15
100
AcDbLine
 10
194.1743049241
 20
-86.3766098482
 30
0.0
 11
175.9363049241
 21
-86.3766098482
 31
0.0
  0
LINE
  5
170
330
1F
100
AcDbEntity
  8
0
  6
Continuous
 62
     7
370
    15
100
AcDbLine
 10
175.9363049241
 20
-86.3766098482
 30
0.0
 11
175.9363049241
 21
-69.5973049241
 31
0.0
  0
LINE
  5
171
330
1F
100
AcDbEntity
  8
0
  6
Continuous
 62
     7
370
    15
100
AcDbLine
 10
175.9363049241
 20
-69.5973049241
 30
0.0
 11
175.3313049241
 21
-69.5973049241
 31
0.0
  0
LINE
  5
172
330
1F
100
AcDbEntity
  8
0
  6
Continuous
 62
     7
370
    15
100
AcDbLine
 10
175.3313049241
 20
-69.5973049241
 30
0.0
 11
175.3313049241
 21
-72.1743049241
 31
0.0
  0
LINE
  5
173
330
1F
100
AcDbEntity
  8
0
  6
Continuous
 62
     7
370
    15
100
AcDbLine
 10
175.3313049241
 20
-72.1743049241
 30
0.0
 11
173.0
 21
-72.1743049241
 31
0.0
  0
LINE
  5
174
330
1F
100
AcDbEntity
  8
0
  6
Continuous
 62
     7
370
    15
100
AcDbLine
 10
173.0
 20
-72.1743049241
 30
0.0
 11
173.0
 21
-93.3486098482
 31
0.0
  0
LINE
  5
175
330
1F
100
AcDbEntity
  8
0
  6
Continuous
 62
     7
370
    15
100
AcDbLine
 10
173.0
 20
-93.3486098482
 30
0.0
 11
0.0
 21
-93.3486098482
 31
0.0
  0
LINE
  5
176
330
1F
100
AcDbEntity
  8
0
  6
Continuous
 62
     7
370
    15
100
AcDbLine
 10
0.0
 20
-93.3486098482
 30
0.0
 11
0.0
 21
-72.1743049241
 31
0.0
  0
LINE
  5
177
330
1F
100
AcDbEntity
  8
0
  6
Continuous
 62
     7
370
    15
100
AcDbLine
 10
-2.3313049241
 20
-72.1743049241
 30
0.0
 11
0.0
 21
-72.1743049241
 31
0.0
  0
LINE
  5
178
330
1F
100
AcDbEntity
  8
0
  6
Continuous
 62
     7
370
    15
100
AcDbLine
 10
-2.3313049241
 20
-72.1743049241
 30
0.0
 11
-2.3313049241
 21
-69.5973049241
 31
0.0
  0
LINE
  5
179
330
1F
100
AcDbEntity
  8
0
  6
Continuous
 62
     7
370
    15
100
AcDbLine
 10
-2.3313049241
 20
-69.5973049241
 30
0.0
 11
-2.9363049241
 21
-69.5973049241
 31
0.0
  0
LINE
  5
17A
330
1F
100
AcDbEntity
  8
0
  6
Continuous
 62
     7
370
    15
100
AcDbLine
 10
-2.9363049241
 20
-86.3766098482
 30
0.0
 11
-2.9363049241
 21
-69.5973049241
 31
0.0
  0
LINE
  5
17B
330
1F
100
AcDbEntity
  8
0
  6
Continuous
 62
     7
370
    15
100
AcDbLine
 10
-21.1743049241
 20
-86.3766098482
 30
0.0
 11
-2.9363049241
 21
-86.3766098482
 31
0.0
  0
LINE
  5
17C
330
1F
100
AcDbEntity
  8
0
  6
Continuous
 62
     7
370
    15
100
AcDbLine
 10
-21.1743049241
 20
12.266
 30
0.0
 11
-21.1743049241
 21
-86.3766098482
 31
0.0
  0
LINE
  5
17D
330
1F
100
AcDbEntity
  8
0
  6
Continuous
 62
     7
370
    15
100
AcDbLine
 10
-2.9363049241
 20
12.266
 30
0.0
 11
-21.1743049241
 21
12.266
 31
0.0
  0
LINE
  5
17E
330
1F
100
AcDbEntity
  8
0
  6
Continuous
 62
     7
370
    15
100
AcDbLine
 10
-2.9363049241
 20
-4.5133049241
 30
0.0
 11
-2.9363049241
 21
12.266
 31
0.0
  0
LINE
  5
17F
330
1F
100
AcDbEntity
  8
0
  6
Continuous
 62
     7
370
    15
100
AcDbLine
 10
-2.9363049241
 20
-4.5133049241
 30
0.0
 11
-2.3313049241
 21
-4.5133049241
 31
0.0
  0
LINE
  5
180
330
1F
100
AcDbEntity
  8
0
  6
Continuous
 62
     7
370
    15
100
AcDbLine
 10
-2.3313049241
 20
-4.5133049241
 30
0.0
 11
-2.3313049241
 21
-1.9363049241
 31
0.0
  0
LINE
  5
181
330
1F
100
AcDbEntity
  8
0
  6
Continuous
 62
     7
370
    15
100
AcDbLine
 10
0.0
 20
-1.9363049241
 30
0.0
 11
-2.3313049241
 21
-1.9363049241
 31
0.0
  0
LINE
  5
182
330
1F
100
AcDbEntity
  8
0
  6
Continuous
 62
     7
370
    15
100
AcDbLine
 10
0.0
 20
80.0
 30
0.0
 11
0.0
 21
-1.9363049241
 31
0.0
  0
LINE
  5
183
330
1F
100
AcDbEntity
  8
0
  6
Continuous
 62
     7
370
    15
100
AcDbLine
 10
-249.6352196963
 20
100.0
 30
0.0
 11
-20.0
 21
100.0
 31
0.0
  0
LINE
  5
184
330
1F
100
AcDbEntity
  8
0
  6
Continuous
 62
     7
370
    15
100
AcDbLine
 10
-249.6352196963
 20
100.0
 30
0.0
 11
-249.6352196963
 21
175.0
 31
0.0
  0
LINE
  5
185
330
1F
100
AcDbEntity
  8
0
  6
Continuous
 62
     7
370
    15
100
AcDbLine
 10
-3.5
 20
175.0
 30
0.0
 11
-249.6352196963
 21
175.0
 31
0.0
  0
LINE
  5
186
330
1F
100
AcDbEntity
  8
0
  6
Continuous
 62
     7
370
    15
100
AcDbLine
 10
-32.3372196963
 20
195.0
 30
0.0
 11
16.5
 21
195.0
 31
0.0
  0
LINE
  5
187
330
1F
100
AcDbEntity
  8
0
  6
Continuous
 62
     7
370
    15
100
AcDbLine
 10
-32.3372196963
 20
299.238
 30
0.0
 11
-32.3372196963
 21
195.0
 31
0.0
  0
LINE
  5
188
330
1F
100
AcDbEntity
  8
0
  6
Continuous
 62
     7
370
    15
100
AcDbLine
 10
16.5
 20
299.238
 30
0.0
 11
-32.3372196963
 21
299.238
 31
0.0
  0
LINE
  5
189
330
1F
100
AcDbEntity
  8
0
  6
Continuous
 62
     7
370
    15
100
AcDbLine
 10
16.5
 20
299.238
 30
0.0
 11
16.5
 21
301.8106719531
 31
0.0
  0
LINE
  5
18A
330
1F
100
AcDbEntity
  8
0
  6
Continuous
 62
     7
370
    15
100
AcDbLine
 10
16.5
 20
301.8106719531
 30
0.0
 11
-5.4123049241
 21
301.8106719531
 31
0.0
  0
LINE
  5
18B
330
1F
100
AcDbEntity
  8
0
  6
Continuous
 62
     7
370
    15
100
AcDbLine
 10
-5.4123049241
 20
301.8106719531
 30
0.0
 11
-5.4123049241
 21
385.6146098482
 31
0.0
  0
LINE
  5
18C
330
1F
100
AcDbEntity
  8
0
  6
Continuous
 62
     7
370
    15
100
AcDbLine
 10
-5.4123049241
 20
385.6146098482
 30
0.0
 11
12.8256950759
 21
385.6146098482
 31
0.0
  0
LINE
  5
18D
330
1F
100
AcDbEntity
  8
0
  6
Continuous
 62
     7
370
    15
100
AcDbLine
 10
12.8256950759
 20
385.6146098482
 30
0.0
 11
12.8256950759
 21
368.8353049241
 31
0.0
  0
LINE
  5
18E
330
1F
100
AcDbEntity
  8
0
  6
Continuous
 62
     7
370
    15
100
AcDbLine
 10
12.8256950759
 20
368.8353049241
 30
0.0
 11
13.4306950759
 21
368.8353049241
 31
0.0
  0
LINE
  5
18F
330
1F
100
AcDbEntity
  8
0
  6
Continuous
 62
     7
370
    15
100
AcDbLine
 10
13.4306950759
 20
368.8353049241
 30
0.0
 11
13.4306950759
 21
371.4123049241
 31
0.0
  0
LINE
  5
190
330
1F
100
AcDbEntity
  8
0
  6
Continuous
 62
     7
370
    15
100
AcDbLine
 10
13.4306950759
 20
371.4123049241
 30
0.0
 11
16.5
 21
371.4123049241
 31
0.0
  0
LINE
  5
191
330
1F
100
AcDbEntity
  8
0
  6
Continuous
 62
     7
370
    15
100
AcDbLine
 10
16.5
 20
371.4123049241
 30
0.0
 11
16.5
 21
392.5866098482
 31
0.0
  0
LINE
  5
192
330
1F
100
AcDbEntity
  8
0
  6
Continuous
 62
     7
370
    15
100
AcDbLine
 10
16.5
 20
392.5866098482
 30
0.0
 11
156.5
 21
392.5866098482
 31
0.0
  0
LINE
  5
193
330
1F
100
AcDbEntity
  8
0
  6
Continuous
 62
     7
370
    15
100
AcDbLine
 10
156.5
 20
392.5866098482
 30
0.0
 11
156.5
 21
371.4123049241
 31
0.0
  0
LINE
  5
194
330
1F
100
AcDbEntity
  8
0
  6
Continuous
 62
     7
370
    15
100
AcDbLine
 10
159.5693049241
 20
371.4123049241
 30
0.0
 11
156.5
 21
371.4123049241
 31
0.0
  0
LINE
  5
195
330
1F
100
AcDbEntity
  8
0
  6
Continuous
 62
     7
370
    15
100
AcDbLine
 10
159.5693049241
 20
371.4123049241
 30
0.0
 11
159.5693049241
 21
368.8353049241
 31
0.0
  0
LINE
  5
196
330
1F
100
AcDbEntity
  8
0
  6
Continuous
 62
     7
370
    15
100
AcDbLine
 10
159.5693049241
 20
368.8353049241
 30
0.0
 11
160.1743049241
 21
368.8353049241
 31
0.0
  0
LINE
  5
197
330
1F
100
AcDbEntity
  8
0
  6
Continuous
 62
     7
370
    15
100
AcDbLine
 10
160.1743049241
 20
385.6146098482
 30
0.0
 11
160.1743049241
 21
368.8353049241
 31
0.0
  0
LINE
  5
198
330
1F
100
AcDbEntity
  8
0
  6
Continuous
 62
     7
370
    15
100
AcDbLine
 10
178.4123049241
 20
385.6146098482
 30
0.0
 11
160.1743049241
 21
385.6146098482
 31
0.0
  0
LINE
  5
199
330
1F
100
AcDbEntity
  8
0
  6
Continuous
 62
     7
370
    15
100
AcDbLine
 10
178.4123049241
 20
301.8106719531
 30
0.0
 11
178.4123049241
 21
385.6146098482
 31
0.0
  0
LINE
  5
19A
330
1F
100
AcDbEntity
  8
0
  6
Continuous
 62
     7
370
    15
100
AcDbLine
 10
156.5
 20
301.8106719531
 30
0.0
 11
178.4123049241
 21
301.8106719531
 31
0.0
  0
LINE
  5
19B
330
1F
100
AcDbEntity
  8
0
  6
Continuous
 62
     7
370
    15
100
AcDbLine
 10
156.5
 20
301.8106719531
 30
0.0
 11
156.5
 21
299.238
 31
0.0
  0
LINE
  5
19C
330
1F
100
AcDbEntity
  8
0
  6
Continuous
 62
     7
370
    15
100
AcDbLine
 10
156.5
 20
299.238
 30
0.0
 11
205.3372196963
 21
299.238
 31
0.0
  0
LINE
  5
19D
330
1F
100
AcDbEntity
  8
0
  6
Continuous
 62
     7
370
    15
100
AcDbLine
 10
205.3372196963
 20
299.238
 30
0.0
 11
205.3372196963
 21
195.0
 31
0.0
  0
LINE
  5
19E
330
1F
100
AcDbEntity
  8
0
  6
Continuous
 62
     7
370
    15
100
AcDbLine
 10
205.3372196963
 20
195.0
 30
0.0
 11
156.482152462
 21
195.0
 31
0.0
  0
ARC
  5
19F
330
1F
100
AcDbEntity
  8
0
  6
Continuous
 62
     7
370
    15
100
AcDbCircle
 10
193.0
 20
80.0
 30
0.0
 40
20.00000000000003
100
AcDbArc
 50
90.0
 51
180.0
  0
ARC
  5
1A0
330
1F
100
AcDbEntity
  8
0
  6
Continuous
 62
     7
370
    15
100
AcDbCircle
 10
-20.0
 20
80.0
 30
0.0
 40
20.00000000000001
100
AcDbArc
 50
0.0
 51
90.0
  0
ARC
  5
1A1
330
1F
100
AcDbEntity
  8
0
  6
Continuous
 62
     7
370
    15
100
AcDbCircle
 10
-3.5
 20
195.0
 30
0.0
 40
19.99999999999997
100
AcDbArc
 50
270.0
 51
0.0
  0
ARC
  5
1A2
330
1F
100
AcDbEntity
  8
0
  6
Continuous
 62
     7
370
    15
100
AcDbCircle
 10
176.5
 20
195.0
 30
0.0
 40
19.99999999999994
100
AcDbArc
 50
180.0
 51
270.0
  0
MTEXT
  5
1C6
330
1F
100
AcDbEntity
  8
0
  6
Continuous
 62
     7
100
AcDbMText
 10
-249.6352196963
 20
-94.3681762398
 30
0.0
 40
4.83362
 41
0.0
 71
     1
 72
     1
  1
SolidWorks Student Edition.
  7
SLDTEXTSTYLE0
 73
     1
 44
1.0
  0
MTEXT
  5
1C7
330
1F
100
AcDbEntity
  8
0
  6
Continuous
 62
     7
100
AcDbMText
 10
-249.6352196963
 20
-101.6186062398
 30
0.0
 40
4.83362
 41
0.0
 71
     1
 72
     1
  1
For Academic Use Only.
  7
SLDTEXTSTYLE0
 73
     1
 44
1.0
  0
ENDSEC
  0
SECTION
  2
OBJECTS
  0
DICTIONARY
  5
C
330
0
100
AcDbDictionary
281
     1
  3
ACAD_GROUP
350
D
  3
ACAD_LAYOUT
350
1A
  3
ACAD_MLINESTYLE
350
17
  3
ACAD_PLOTSETTINGS
350
19
  3
ACAD_PLOTSTYLENAME
350
E
  3
ACAD_SCALELIST
350
1A3
  3
AcDbVariableDictionary
350
1C8
  0
DICTIONARY
  5
D
102
{ACAD_REACTORS
330
C
102
}
330
C
100
AcDbDictionary
281
     1
  0
DICTIONARY
  5
1A
102
{ACAD_REACTORS
330
C
102
}
330
C
100
AcDbDictionary
281
     1
  3
Layout1
350
1E
  3
Layout2
350
26
  3
Model
350
22
  0
DICTIONARY
  5
17
102
{ACAD_REACTORS
330
C
102
}
330
C
100
AcDbDictionary
281
     1
  3
Standard
350
18
  0
DICTIONARY
  5
19
102
{ACAD_REACTORS
330
C
102
}
330
C
100
AcDbDictionary
281
     1
  0
ACDBDICTIONARYWDFLT
  5
E
102
{ACAD_REACTORS
330
C
102
}
330
C
100
AcDbDictionary
281
     1
  3
Normal
350
F
100
AcDbDictionaryWithDefault
340
F
  0
DICTIONARY
  5
1A3
102
{ACAD_REACTORS
330
C
102
}
330
C
100
AcDbDictionary
281
     1
  3
A0
350
1A4
  3
A1
350
1A5
  3
A2
350
1A6
  3
A3
350
1A7
  3
A4
350
1A8
  3
A5
350
1A9
  3
A6
350
1AA
  3
A7
350
1AB
  3
A8
350
1AC
  3
A9
350
1AD
  3
B0
350
1AE
  3
B1
350
1AF
  3
B2
350
1B0
  3
B3
350
1B1
  3
B4
350
1B2
  3
B5
350
1B3
  3
B6
350
1B4
  3
B7
350
1B5
  3
B8
350
1B6
  3
B9
350
1B7
  3
C0
350
1B8
  3
C1
350
1B9
  3
C2
350
1BA
  3
C3
350
1BB
  3
C4
350
1BC
  3
C5
350
1BD
  3
C6
350
1BE
  3
C7
350
1BF
  3
C8
350
1C0
  3
C9
350
1C1
  3
D0
350
1C2
  3
D1
350
1C3
  3
D2
350
1C4
  0
DICTIONARY
  5
1C8
102
{ACAD_REACTORS
330
C
102
}
330
C
100
AcDbDictionary
281
     1
  3
CANNOSCALE
350
1C9
  0
LAYOUT
  5
1E
102
{ACAD_REACTORS
330
1A
102
}
330
1A
100
AcDbPlotSettings
  1

  2
none_device
  4

  6

 40
0.0
 41
0.0
 42
0.0
 43
0.0
 44
0.0
 45
0.0
 46
0.0
 47
0.0
 48
0.0
 49
0.0
140
0.0
141
0.0
142
1.0
143
1.0
 70
   688
 72
     0
 73
     0
 74
     5
  7

 75
    16
147
1.0
148
0.0
149
0.0
100
AcDbLayout
  1
Layout1
 70
     1
 71
     1
 10
0.0
 20
0.0
 11
420.0
 21
297.0
 12
0.0
 22
0.0
 32
0.0
 14
1.0000000000E+20
 24
1.0000000000E+20
 34
1.0000000000E+20
 15
-1.0000000000E+20
 25
-1.0000000000E+20
 35
-1.0000000000E+20
146
0.0
 13
0.0
 23
0.0
 33
0.0
 16
1.0
 26
0.0
 36
0.0
 17
0.0
 27
1.0
 37
0.0
 76
     0
330
1B
  0
LAYOUT
  5
26
102
{ACAD_REACTORS
330
1A
102
}
330
1A
100
AcDbPlotSettings
  1

  2
none_device
  4

  6

 40
0.0
 41
0.0
 42
0.0
 43
0.0
 44
0.0
 45
0.0
 46
0.0
 47
0.0
 48
0.0
 49
0.0
140
0.0
141
0.0
142
1.0
143
1.0
 70
   688
 72
     0
 73
     0
 74
     5
  7

 75
    16
147
1.0
148
0.0
149
0.0
100
AcDbLayout
  1
Layout2
 70
     1
 71
     2
 10
0.0
 20
0.0
 11
0.0
 21
0.0
 12
0.0
 22
0.0
 32
0.0
 14
0.0
 24
0.0
 34
0.0
 15
0.0
 25
0.0
 35
0.0
146
0.0
 13
0.0
 23
0.0
 33
0.0
 16
1.0
 26
0.0
 36
0.0
 17
0.0
 27
1.0
 37
0.0
 76
     0
330
23
  0
LAYOUT
  5
22
102
{ACAD_REACTORS
330
1A
102
}
330
1A
100
AcDbPlotSettings
  1

  2
none_device
  4
ANSI_A_(11.00_x_8.50_Inches)
  6

 40
6.35
 41
19.05
 42
6.35000508
 43
19.05000254
 44
279.4
 45
215.9
 46
97.7595302938
 47
27.3391882452
 48
0.0
 49
0.0
140
0.0
141
0.0
142
0.0161988381
143
1.0
 70
  1696
 72
     0
 73
     0
 74
     0
  7

 75
     0
147
0.0179189148
148
0.0
149
0.0
100
AcDbLayout
  1
Model
 70
     1
 71
     0
 10
0.0
 20
0.0
 11
420.0
 21
297.0
 12
0.0
 22
0.0
 32
0.0
 14
-249.6352196963
 24
-93.3486098482
 34
0.0
 15
422.6352196963
 25
392.5866098482
 35
0.0
146
0.0
 13
0.0
 23
0.0
 33
0.0
 16
1.0
 26
0.0
 36
0.0
 17
0.0
 27
1.0
 37
0.0
 76
     0
330
1F
331
29
  0
MLINESTYLE
  5
18
102
{ACAD_REACTORS
330
17
102
}
330
17
100
AcDbMlineStyle
  2
Standard
 70
     0
  3

 62
   256
 51
90.0
 52
90.0
 71
     2
 49
0.5
 62
   256
  6
BYLAYER
 49
-0.5
 62
   256
  6
BYLAYER
  0
ACDBPLACEHOLDER
  5
F
102
{ACAD_REACTORS
330
E
102
}
330
E
  0
SCALE
  5
1A4
102
{ACAD_REACTORS
330
1A3
102
}
330
1A3
100
AcDbScale
 70
     0
300
1:1
140
1.0
141
1.0
290
     1
  0
SCALE
  5
1A5
102
{ACAD_REACTORS
330
1A3
102
}
330
1A3
100
AcDbScale
 70
     0
300
1:2
140
1.0
141
2.0
290
     0
  0
SCALE
  5
1A6
102
{ACAD_REACTORS
330
1A3
102
}
330
1A3
100
AcDbScale
 70
     0
300
1:4
140
1.0
141
4.0
290
     0
  0
SCALE
  5
1A7
102
{ACAD_REACTORS
330
1A3
102
}
330
1A3
100
AcDbScale
 70
     0
300
1:5
140
1.0
141
5.0
290
     0
  0
SCALE
  5
1A8
102
{ACAD_REACTORS
330
1A3
102
}
330
1A3
100
AcDbScale
 70
     0
300
1:8
140
1.0
141
8.0
290
     0
  0
SCALE
  5
1A9
102
{ACAD_REACTORS
330
1A3
102
}
330
1A3
100
AcDbScale
 70
     0
300
1:10
140
1.0
141
10.0
290
     0
  0
SCALE
  5
1AA
102
{ACAD_REACTORS
330
1A3
102
}
330
1A3
100
AcDbScale
 70
     0
300
1:16
140
1.0
141
16.0
290
     0
  0
SCALE
  5
1AB
102
{ACAD_REACTORS
330
1A3
102
}
330
1A3
100
AcDbScale
 70
     0
300
1:20
140
1.0
141
20.0
290
     0
  0
SCALE
  5
1AC
102
{ACAD_REACTORS
330
1A3
102
}
330
1A3
100
AcDbScale
 70
     0
300
1:30
140
1.0
141
30.0
290
     0
  0
SCALE
  5
1AD
102
{ACAD_REACTORS
330
1A3
102
}
330
1A3
100
AcDbScale
 70
     0
300
1:40
140
1.0
141
40.0
290
     0
  0
SCALE
  5
1AE
102
{ACAD_REACTORS
330
1A3
102
}
330
1A3
100
AcDbScale
 70
     0
300
1:50
140
1.0
141
50.0
290
     0
  0
SCALE
  5
1AF
102
{ACAD_REACTORS
330
1A3
102
}
330
1A3
100
AcDbScale
 70
     0
300
1:100
140
1.0
141
100.0
290
     0
  0
SCALE
  5
1B0
102
{ACAD_REACTORS
330
1A3
102
}
330
1A3
100
AcDbScale
 70
     0
300
2:1
140
2.0
141
1.0
290
     0
  0
SCALE
  5
1B1
102
{ACAD_REACTORS
330
1A3
102
}
330
1A3
100
AcDbScale
 70
     0
300
4:1
140
4.0
141
1.0
290
     0
  0
SCALE
  5
1B2
102
{ACAD_REACTORS
330
1A3
102
}
330
1A3
100
AcDbScale
 70
     0
300
8:1
140
8.0
141
1.0
290
     0
  0
SCALE
  5
1B3
102
{ACAD_REACTORS
330
1A3
102
}
330
1A3
100
AcDbScale
 70
     0
300
10:1
140
10.0
141
1.0
290
     0
  0
SCALE
  5
1B4
102
{ACAD_REACTORS
330
1A3
102
}
330
1A3
100
AcDbScale
 70
     0
300
100:1
140
100.0
141
1.0
290
     0
  0
SCALE
  5
1B5
102
{ACAD_REACTORS
330
1A3
102
}
330
1A3
100
AcDbScale
 70
     0
300
1/128" = 1'-0"
140
0.0078125
141
12.0
290
     0
  0
SCALE
  5
1B6
102
{ACAD_REACTORS
330
1A3
102
}
330
1A3
100
AcDbScale
 70
     0
300
1/64" = 1'-0"
140
0.015625
141
12.0
290
     0
  0
SCALE
  5
1B7
102
{ACAD_REACTORS
330
1A3
102
}
330
1A3
100
AcDbScale
 70
     0
300
1/32" = 1'-0"
140
0.03125
141
12.0
290
     0
  0
SCALE
  5
1B8
102
{ACAD_REACTORS
330
1A3
102
}
330
1A3
100
AcDbScale
 70
     0
300
1/16" = 1'-0"
140
0.0625
141
12.0
290
     0
  0
SCALE
  5
1B9
102
{ACAD_REACTORS
330
1A3
102
}
330
1A3
100
AcDbScale
 70
     0
300
3/32" = 1'-0"
140
0.09375
141
12.0
290
     0
  0
SCALE
  5
1BA
102
{ACAD_REACTORS
330
1A3
102
}
330
1A3
100
AcDbScale
 70
     0
300
1/8" = 1'-0"
140
0.125
141
12.0
290
     0
  0
SCALE
  5
1BB
102
{ACAD_REACTORS
330
1A3
102
}
330
1A3
100
AcDbScale
 70
     0
300
3/16" = 1'-0"
140
0.1875
141
12.0
290
     0
  0
SCALE
  5
1BC
102
{ACAD_REACTORS
330
1A3
102
}
330
1A3
100
AcDbScale
 70
     0
300
1/4" = 1'-0"
140
0.25
141
12.0
290
     0
  0
SCALE
  5
1BD
102
{ACAD_REACTORS
330
1A3
102
}
330
1A3
100
AcDbScale
 70
     0
300
3/8" = 1'-0"
140
0.375
141
12.0
290
     0
  0
SCALE
  5
1BE
102
{ACAD_REACTORS
330
1A3
102
}
330
1A3
100
AcDbScale
 70
     0
300
1/2" = 1'-0"
140
0.5
141
12.0
290
     0
  0
SCALE
  5
1BF
102
{ACAD_REACTORS
330
1A3
102
}
330
1A3
100
AcDbScale
 70
     0
300
3/4" = 1'-0"
140
0.75
141
12.0
290
     0
  0
SCALE
  5
1C0
102
{ACAD_REACTORS
330
1A3
102
}
330
1A3
100
AcDbScale
 70
     0
300
1" = 1'-0"
140
1.0
141
12.0
290
     0
  0
SCALE
  5
1C1
102
{ACAD_REACTORS
330
1A3
102
}
330
1A3
100
AcDbScale
 70
     0
300
1-1/2" = 1'-0"
140
1.5
141
12.0
290
     0
  0
SCALE
  5
1C2
102
{ACAD_REACTORS
330
1A3
102
}
330
1A3
100
AcDbScale
 70
     0
300
3" = 1'-0"
140
3.0
141
12.0
290
     0
  0
SCALE
  5
1C3
102
{ACAD_REACTORS
330
1A3
102
}
330
1A3
100
AcDbScale
 70
     0
300
6" = 1'-0"
140
6.0
141
12.0
290
     0
  0
SCALE
  5
1C4
102
{ACAD_REACTORS
330
1A3
102
}
330
1A3
100
AcDbScale
 70
     0
300
1'-0" = 1'-0"
140
12.0
141
12.0
290
     0
  0
DICTIONARYVAR
  5
1C9
102
{ACAD_REACTORS
330
1C8
102
}
330
1C8
100
DictionaryVariables
280
     0
  1
1:1
  0
ENDSEC
  0
EOF
