  0
SECTION
  2
HEADER
  9
$ACADVER
  1
AC1015
  9
$ACADMAINTVER
 70
     6
  9
$DWGCODEPAGE
  3
ANSI_1252
  9
$INSBASE
 10
0.0
 20
0.0
 30
0.0
  9
$EXTMIN
 10
-29.3189929927
 20
-30.2289929927
 30
0.0
  9
$EXTMAX
 10
139.3189929927
 20
70.0
 30
0.0
  9
$LIMMIN
 10
0.0
 20
0.0
  9
$LIMMAX
 10
420.0
 20
297.0
  9
$ORTHOMODE
 70
     0
  9
$REGENMODE
 70
     1
  9
$FILLMODE
 70
     1
  9
$QTEXTMODE
 70
     0
  9
$MIRRTEXT
 70
     1
  9
$LTSCALE
 40
1.0
  9
$ATTMODE
 70
     1
  9
$TEXTSIZE
 40
3.5
  9
$TRACEWID
 40
1.0
  9
$TEXTSTYLE
  7
Standard
  9
$CLAYER
  8
0
  9
$CELTYPE
  6
ByLayer
  9
$CECOLOR
 62
   256
  9
$CELTSCALE
 40
1.0
  9
$DISPSILH
 70
     0
  9
$DIMSCALE
 40
1.0
  9
$DIMASZ
 40
3.302
  9
$DIMEXO
 40
1.0
  9
$DIMDLI
 40
3.75
  9
$DIMRND
 40
0.0
  9
$DIMDLE
 40
0.0
  9
$DIMEXE
 40
1.0
  9
$DIMTP
 40
0.0
  9
$DIMTM
 40
0.0
  9
$DIMTXT
 40
3.5
  9
$DIMCEN
 40
2.5
  9
$DIMTSZ
 40
0.0
  9
$DIMTOL
 70
     0
  9
$DIMLIM
 70
     0
  9
$DIMTIH
 70
     1
  9
$DIMTOH
 70
     1
  9
$DIMSE1
 70
     0
  9
$DIMSE2
 70
     0
  9
$DIMTAD
 70
     1
  9
$DIMZIN
 70
     0
  9
$DIMBLK
  1

  9
$DIMASO
 70
     1
  9
$DIMSHO
 70
     1
  9
$DIMPOST
  1

  9
$DIMAPOST
  1

  9
$DIMALT
 70
     0
  9
$DIMALTD
 70
     3
  9
$DIMALTF
 40
0.0393700787
  9
$DIMLFAC
 40
1.0
  9
$DIMTOFL
 70
     1
  9
$DIMTVP
 40
0.0
  9
$DIMTIX
 70
     0
  9
$DIMSOXD
 70
     0
  9
$DIMSAH
 70
     0
  9
$DIMBLK1
  1

  9
$DIMBLK2
  1

  9
$DIMSTYLE
  2
ISO-25
  9
$DIMCLRD
 70
     0
  9
$DIMCLRE
 70
     0
  9
$DIMCLRT
 70
     0
  9
$DIMTFAC
 40
1.0
  9
$DIMGAP
 40
1.524
  9
$DIMJUST
 70
     0
  9
$DIMSD1
 70
     0
  9
$DIMSD2
 70
     0
  9
$DIMTOLJ
 70
     0
  9
$DIMTZIN
 70
     0
  9
$DIMALTZ
 70
     0
  9
$DIMALTTZ
 70
     0
  9
$DIMUPT
 70
     0
  9
$DIMDEC
 70
     3
  9
$DIMTDEC
 70
     3
  9
$DIMALTU
 70
     2
  9
$DIMALTTD
 70
     3
  9
$DIMTXSTY
  7
Standard
  9
$DIMAUNIT
 70
     0
  9
$DIMADEC
 70
     2
  9
$DIMALTRND
 40
0.0
  9
$DIMAZIN
 70
     0
  9
$DIMDSEP
 70
    44
  9
$DIMATFIT
 70
     3
  9
$DIMFRAC
 70
     0
  9
$DIMLDRBLK
  1

  9
$DIMLUNIT
 70
     2
  9
$DIMLWD
 70
    -2
  9
$DIMLWE
 70
    -2
  9
$DIMTMOVE
 70
     0
  9
$LUNITS
 70
     2
  9
$LUPREC
 70
     2
  9
$SKETCHINC
 40
1.0
  9
$FILLETRAD
 40
10.0
  9
$AUNITS
 70
     0
  9
$AUPREC
 70
     2
  9
$MENU
  1
.
  9
$ELEVATION
 40
0.0
  9
$PELEVATION
 40
0.0
  9
$THICKNESS
 40
0.0
  9
$LIMCHECK
 70
     0
  9
$CHAMFERA
 40
10.0
  9
$CHAMFERB
 40
10.0
  9
$CHAMFERC
 40
20.0
  9
$CHAMFERD
 40
0.0
  9
$SKPOLY
 70
     0
  9
$TDCREATE
 40
2456853.592559248
  9
$TDUCREATE
 40
2456853.884225914
  9
$TDUPDATE
 40
2456853.593040081
  9
$TDUUPDATE
 40
2456853.884706748
  9
$TDINDWG
 40
0.0000000116
  9
$TDUSRTIMER
 40
0.0000000116
  9
$USRTIMER
 70
     1
  9
$ANGBASE
 50
0.0
  9
$ANGDIR
 70
     0
  9
$PDMODE
 70
     0
  9
$PDSIZE
 40
-1.0
  9
$PLINEWID
 40
0.0
  9
$SPLFRAME
 70
     0
  9
$SPLINETYPE
 70
     6
  9
$SPLINESEGS
 70
     8
  9
$HANDSEED
  5
21F
  9
$SURFTAB1
 70
     6
  9
$SURFTAB2
 70
     6
  9
$SURFTYPE
 70
     6
  9
$SURFU
 70
     6
  9
$SURFV
 70
     6
  9
$UCSBASE
  2

  9
$UCSNAME
  2

  9
$UCSORG
 10
0.0
 20
0.0
 30
0.0
  9
$UCSXDIR
 10
1.0
 20
0.0
 30
0.0
  9
$UCSYDIR
 10
0.0
 20
1.0
 30
0.0
  9
$UCSORTHOREF
  2

  9
$UCSORTHOVIEW
 70
     0
  9
$UCSORGTOP
 10
0.0
 20
0.0
 30
0.0
  9
$UCSORGBOTTOM
 10
0.0
 20
0.0
 30
0.0
  9
$UCSORGLEFT
 10
0.0
 20
0.0
 30
0.0
  9
$UCSORGRIGHT
 10
0.0
 20
0.0
 30
0.0
  9
$UCSORGFRONT
 10
0.0
 20
0.0
 30
0.0
  9
$UCSORGBACK
 10
0.0
 20
0.0
 30
0.0
  9
$PUCSBASE
  2

  9
$PUCSNAME
  2

  9
$PUCSORG
 10
0.0
 20
0.0
 30
0.0
  9
$PUCSXDIR
 10
1.0
 20
0.0
 30
0.0
  9
$PUCSYDIR
 10
0.0
 20
1.0
 30
0.0
  9
$PUCSORTHOREF
  2

  9
$PUCSORTHOVIEW
 70
     0
  9
$PUCSORGTOP
 10
0.0
 20
0.0
 30
0.0
  9
$PUCSORGBOTTOM
 10
0.0
 20
0.0
 30
0.0
  9
$PUCSORGLEFT
 10
0.0
 20
0.0
 30
0.0
  9
$PUCSORGRIGHT
 10
0.0
 20
0.0
 30
0.0
  9
$PUCSORGFRONT
 10
0.0
 20
0.0
 30
0.0
  9
$PUCSORGBACK
 10
0.0
 20
0.0
 30
0.0
  9
$USERI1
 70
     0
  9
$USERI2
 70
     0
  9
$USERI3
 70
     0
  9
$USERI4
 70
     0
  9
$USERI5
 70
     0
  9
$USERR1
 40
0.0
  9
$USERR2
 40
0.0
  9
$USERR3
 40
0.0
  9
$USERR4
 40
0.0
  9
$USERR5
 40
0.0
  9
$WORLDVIEW
 70
     1
  9
$SHADEDGE
 70
     3
  9
$SHADEDIF
 70
    70
  9
$TILEMODE
 70
     1
  9
$MAXACTVP
 70
    64
  9
$PINSBASE
 10
0.0
 20
0.0
 30
0.0
  9
$PLIMCHECK
 70
     0
  9
$PEXTMIN
 10
1.0000000000E+20
 20
1.0000000000E+20
 30
1.0000000000E+20
  9
$PEXTMAX
 10
-1.0000000000E+20
 20
-1.0000000000E+20
 30
-1.0000000000E+20
  9
$PLIMMIN
 10
0.0
 20
0.0
  9
$PLIMMAX
 10
420.0
 20
297.0
  9
$UNITMODE
 70
     0
  9
$VISRETAIN
 70
     1
  9
$PLINEGEN
 70
     0
  9
$PSLTSCALE
 70
     1
  9
$TREEDEPTH
 70
  3020
  9
$CMLSTYLE
  2
Standard
  9
$CMLJUST
 70
     0
  9
$CMLSCALE
 40
20.0
  9
$PROXYGRAPHICS
 70
     1
  9
$MEASUREMENT
 70
     1
  9
$CELWEIGHT
370
    -1
  9
$ENDCAPS
280
     0
  9
$JOINSTYLE
280
     0
  9
$LWDISPLAY
290
     1
  9
$INSUNITS
 70
     4
  9
$HYPERLINKBASE
  1

  9
$STYLESHEET
  1

  9
$XEDIT
290
     1
  9
$CEPSNTYPE
380
     0
  9
$PSTYLEMODE
290
     1
  9
$FINGERPRINTGUID
  2
{6B25EF65-A8EA-46DA-90C1-0F1DF0BECAC2}
  9
$VERSIONGUID
  2
{FAEB1C32-E019-11D5-929B-00C0DF256EC4}
  9
$EXTNAMES
290
     1
  9
$PSVPSCALE
 40
0.0
  9
$OLESTARTUP
290
     0
  0
ENDSEC
  0
SECTION
  2
CLASSES
  0
CLASS
  1
ACDBDICTIONARYWDFLT
  2
AcDbDictionaryWithDefault
  3
ObjectDBX Classes
 90
        0
280
     0
281
     0
  0
CLASS
  1
VISUALSTYLE
  2
AcDbVisualStyle
  3
ObjectDBX Classes
 90
     4095
280
     0
281
     0
  0
CLASS
  1
MATERIAL
  2
AcDbMaterial
  3
ObjectDBX Classes
 90
     1153
280
     0
281
     0
  0
CLASS
  1
SCALE
  2
AcDbScale
  3
ObjectDBX Classes
 90
     1153
280
     0
281
     0
  0
CLASS
  1
DICTIONARYVAR
  2
AcDbDictionaryVar
  3
ObjectDBX Classes
 90
        0
280
     0
281
     0
  0
CLASS
  1
ACDBPLACEHOLDER
  2
AcDbPlaceHolder
  3
ObjectDBX Classes
 90
        0
280
     0
281
     0
  0
CLASS
  1
LAYOUT
  2
AcDbLayout
  3
ObjectDBX Classes
 90
        0
280
     0
281
     0
  0
ENDSEC
  0
SECTION
  2
TABLES
  0
TABLE
  2
VPORT
  5
8
330
0
100
AcDbSymbolTable
 70
     1
  0
VPORT
  5
29
330
8
100
AcDbSymbolTableRecord
100
AcDbViewportTableRecord
  2
*Active
 70
     0
 10
0.0
 20
0.0
 11
1.0
 21
1.0
 12
55.0
 22
19.8855035036
 13
0.0
 23
0.0
 14
10.0
 24
10.0
 15
10.0
 25
10.0
 16
0.0
 26
0.0
 36
1.0
 17
0.0
 27
0.0
 37
0.0
 40
102.2335728526
 41
1.6825269909
 42
50.0
 43
0.0
 44
0.0
 50
0.0
 51
0.0
 71
     0
 72
   100
 73
     1
 74
     3
 75
     0
 76
     0
 77
     0
 78
     0
281
     0
 65
     1
110
0.0
120
0.0
130
0.0
111
1.0
121
0.0
131
0.0
112
0.0
122
1.0
132
0.0
 79
     0
146
0.0
  0
ENDTAB
  0
TABLE
  2
LTYPE
  5
5
330
0
100
AcDbSymbolTable
 70
     6
  0
LTYPE
  5
14
330
5
100
AcDbSymbolTableRecord
100
AcDbLinetypeTableRecord
  2
ByBlock
 70
     0
  3

 72
    65
 73
     0
 40
0.0
  0
LTYPE
  5
15
330
5
100
AcDbSymbolTableRecord
100
AcDbLinetypeTableRecord
  2
ByLayer
 70
     0
  3

 72
    65
 73
     0
 40
0.0
  0
LTYPE
  5
16
330
5
100
AcDbSymbolTableRecord
100
AcDbLinetypeTableRecord
  2
Continuous
 70
     0
  3
Solid line
 72
    65
 73
     0
 40
0.0
  0
LTYPE
  5
3F
330
5
100
AcDbSymbolTableRecord
100
AcDbLinetypeTableRecord
  2
HIDDEN
 70
     0
  3
Hidden __ __ __ __ __ __ __ __ __ __ __ __ __ __
 72
    65
 73
     2
 40
1.905
 49
1.27
 74
     0
 49
-0.635
 74
     0
  0
LTYPE
  5
40
330
5
100
AcDbSymbolTableRecord
100
AcDbLinetypeTableRecord
  2
PHANTOM
 70
     0
  3
Phantom ______  __  __  ______  __  __  ______
 72
    65
 73
     6
 40
12.7
 49
6.35
 74
     0
 49
-1.27
 74
     0
 49
1.27
 74
     0
 49
-1.27
 74
     0
 49
1.27
 74
     0
 49
-1.27
 74
     0
  0
LTYPE
  5
41
330
5
100
AcDbSymbolTableRecord
100
AcDbLinetypeTableRecord
  2
CENTER
 70
     0
  3
Center ____ _ ____ _ ____ _ ____ _ ____ _ ____
 72
    65
 73
     4
 40
10.16
 49
6.35
 74
     0
 49
-1.27
 74
     0
 49
1.27
 74
     0
 49
-1.27
 74
     0
  0
LTYPE
  5
42
330
5
100
AcDbSymbolTableRecord
100
AcDbLinetypeTableRecord
  2
CENTERX2
 70
     0
  3
Center (2x) ________  __  ________  __  _____
 72
    65
 73
     4
 40
20.32
 49
12.7
 74
     0
 49
-2.54
 74
     0
 49
2.54
 74
     0
 49
-2.54
 74
     0
  0
LTYPE
  5
43
330
5
100
AcDbSymbolTableRecord
100
AcDbLinetypeTableRecord
  2
DOT2
 70
     0
  3
Dot (.5x) ........................................
 72
    65
 73
     2
 40
0.635
 49
0.0
 74
     0
 49
-0.635
 74
     0
  0
ENDTAB
  0
TABLE
  2
LAYER
  5
2
330
0
100
AcDbSymbolTable
 70
     1
  0
LAYER
  5
10
330
2
100
AcDbSymbolTableRecord
100
AcDbLayerTableRecord
  2
0
 70
     0
 62
     7
  6
Continuous
370
    -3
390
F
  0
ENDTAB
  0
TABLE
  2
STYLE
  5
3
330
0
100
AcDbSymbolTable
 70
     2
  0
STYLE
  5
11
330
3
100
AcDbSymbolTableRecord
100
AcDbTextStyleTableRecord
  2
Standard
 70
     0
 40
0.0
 41
1.0
 50
0.0
 71
     0
 42
3.5
  3
txt
  4

  0
STYLE
  5
21A
330
3
100
AcDbSymbolTableRecord
100
AcDbTextStyleTableRecord
  2
SLDTEXTSTYLE0
 70
     0
 40
0.0
 41
0.7
 50
0.0
 71
     0
 42
0.2
  3
TXT
  4

  0
ENDTAB
  0
TABLE
  2
VIEW
  5
6
330
0
100
AcDbSymbolTable
 70
     0
  0
ENDTAB
  0
TABLE
  2
UCS
  5
7
330
0
100
AcDbSymbolTable
 70
     0
  0
ENDTAB
  0
TABLE
  2
APPID
  5
9
330
0
100
AcDbSymbolTable
 70
     1
  0
APPID
  5
12
330
9
100
AcDbSymbolTableRecord
100
AcDbRegAppTableRecord
  2
ACAD
 70
     0
  0
ENDTAB
  0
TABLE
  2
DIMSTYLE
  5
A
330
0
100
AcDbSymbolTable
 70
     1
100
AcDbDimStyleTable
  0
DIMSTYLE
105
27
330
A
100
AcDbSymbolTableRecord
100
AcDbDimStyleTableRecord
  2
ISO-25
 70
     0
 41
2.5
 42
0.625
 43
3.75
 44
1.25
 73
     0
 74
     0
 77
     1
 78
     8
140
2.5
141
2.5
143
0.0393700787
147
0.625
171
     3
172
     1
178
     0
271
     2
272
     2
274
     3
278
    44
283
     0
284
     8
340
11
  0
ENDTAB
  0
TABLE
  2
BLOCK_RECORD
  5
1
330
0
100
AcDbSymbolTable
 70
     1
  0
BLOCK_RECORD
  5
1F
330
1
100
AcDbSymbolTableRecord
100
AcDbBlockTableRecord
  2
*Model_Space
340
22
  0
BLOCK_RECORD
  5
1B
330
1
100
AcDbSymbolTableRecord
100
AcDbBlockTableRecord
  2
*Paper_Space
340
1E
  0
BLOCK_RECORD
  5
23
330
1
100
AcDbSymbolTableRecord
100
AcDbBlockTableRecord
  2
*Paper_Space0
340
26
  0
ENDTAB
  0
ENDSEC
  0
SECTION
  2
BLOCKS
  0
BLOCK
  5
20
330
1F
100
AcDbEntity
  8
0
100
AcDbBlockBegin
  2
*Model_Space
 70
     0
 10
0.0
 20
0.0
 30
0.0
  3
*Model_Space
  1

  0
ENDBLK
  5
21
330
1F
100
AcDbEntity
  8
0
100
AcDbBlockEnd
  0
BLOCK
  5
1C
330
1B
100
AcDbEntity
 67
     1
  8
0
100
AcDbBlockBegin
  2
*Paper_Space
 70
     0
 10
0.0
 20
0.0
 30
0.0
  3
*Paper_Space
  1

  0
ENDBLK
  5
1D
330
1B
100
AcDbEntity
 67
     1
  8
0
100
AcDbBlockEnd
  0
BLOCK
  5
24
330
23
100
AcDbEntity
  8
0
100
AcDbBlockBegin
  2
*Paper_Space0
 70
     0
 10
0.0
 20
0.0
 30
0.0
  3
*Paper_Space0
  1

  0
ENDBLK
  5
25
330
23
100
AcDbEntity
  8
0
100
AcDbBlockEnd
  0
ENDSEC
  0
SECTION
  2
ENTITIES
  0
LINE
  5
44
330
1F
100
AcDbEntity
  8
0
  6
CENTERX2
 62
     7
100
AcDbLine
 10
0.7955035036
 20
1.762
 30
0.0
 11
0.7955035036
 21
41.762
 31
0.0
  0
LINE
  5
45
330
1F
100
AcDbEntity
  8
0
  6
CENTERX2
 62
     7
100
AcDbLine
 10
-29.3189929927
 20
2.5575035036
 30
0.0
 11
-0.0809929927
 21
2.5575035036
 31
0.0
  0
LINE
  5
46
330
1F
100
AcDbEntity
  8
0
  6
CENTERX2
 62
     7
100
AcDbLine
 10
110.0809929927
 20
2.5575035036
 30
0.0
 11
139.3189929927
 21
2.5575035036
 31
0.0
  0
LINE
  5
47
330
1F
100
AcDbEntity
  8
0
  6
CENTERX2
 62
     7
100
AcDbLine
 10
109.2044964964
 20
1.762
 30
0.0
 11
109.2044964964
 21
41.762
 31
0.0
  0
LINE
  5
48
330
1F
100
AcDbEntity
  8
0
  6
CENTERX2
 62
     7
100
AcDbLine
 10
0.0
 20
-0.1144964964
 30
0.0
 11
110.0
 21
-0.1144964964
 31
0.0
  0
SPLINE
  5
49
330
1F
100
AcDbEntity
  8
0
  6
Continuous
 62
     7
370
    15
100
AcDbSpline
210
0.0
220
0.0
230
1.0
 70
     8
 71
     3
 72
    15
 73
    11
 74
     0
 42
0.00000001
 43
0.00000001
 12
1.0
 22
0.0
 32
0.0
 13
1.0
 23
0.0
 33
0.0
 40
0.0
 40
0.0
 40
0.0
 40
0.0
 40
0.1035773464829356
 40
0.2124153268441443
 40
0.3264808538093705
 40
0.4469062653064264
 40
0.5736783283336809
 40
0.7082223404845646
 40
0.850345115344307
 40
1.0
 40
1.0
 40
1.0
 40
1.0
 10
82.43976209852433
 20
-16.0022079269123
 30
0.0
 10
82.41810876275497
 20
-15.98151286386439
 30
0.0
 10
82.37370233074166
 20
-15.93907164741452
 30
0.0
 10
82.29799240718036
 20
-15.88245060526312
 30
0.0
 10
82.2144720316449
 20
-15.82883971684661
 30
0.0
 10
82.12328441465766
 20
-15.77787750441867
 30
0.0
 10
82.02364556098466
 20
-15.73034811593219
 30
0.0
 10
81.91530841151449
 20
-15.68718138414301
 30
0.0
 10
81.79928281224572
 20
-15.6456215212312
 30
0.0
 10
81.71830738852215
 20
-15.62207181065264
 30
0.0
 10
81.67677450448497
 20
-15.60999299273984
 30
0.0
  0
SPLINE
  5
4D
330
1F
100
AcDbEntity
  8
0
  6
Continuous
 62
     7
370
    15
100
AcDbSpline
210
0.0
220
0.0
230
1.0
 70
     8
 71
     3
 72
    15
 73
    11
 74
     0
 42
0.00000001
 43
0.00000001
 12
1.0
 22
0.0
 32
0.0
 13
1.0
 23
0.0
 33
0.0
 40
0.0
 40
0.0
 40
0.0
 40
0.0
 40
0.1490470494123479
 40
0.2835879637171205
 40
0.4065492096303328
 40
0.5200074501475546
 40
0.6296762320242206
 40
0.7451694221708143
 40
0.8659216035762236
 40
1.0
 40
1.0
 40
1.0
 40
1.0
 10
80.98704801432292
 20
-16.75358095570281
 30
0.0
 10
81.01072330769843
 20
-16.75708121709084
 30
0.0
 10
81.05576967570933
 20
-16.7637410738503
 30
0.0
 10
81.11803795861007
 20
-16.78370568472341
 30
0.0
 10
81.17202594284213
 20
-16.80968021276295
 30
0.0
 10
81.21470228345284
 20
-16.8458275981598
 30
0.0
 10
81.24946838796141
 20
-16.88804758174765
 30
0.0
 10
81.27310141542438
 20
-16.93873572793488
 30
0.0
 10
81.28801299435591
 20
-16.99664395281127
 30
0.0
 10
81.28926264086839
 20
-17.03758981407341
 30
0.0
 10
81.28992013888889
 20
-17.05913336455697
 30
0.0
  0
SPLINE
  5
4E
330
1F
100
AcDbEntity
  8
0
  6
Continuous
 62
     7
370
    15
100
AcDbSpline
210
0.0
220
0.0
230
1.0
 70
     8
 71
     3
 72
    11
 73
     7
 74
     0
 42
0.00000001
 43
0.00000001
 12
1.0
 22
0.0
 32
0.0
 13
1.0
 23
0.0
 33
0.0
 40
0.0
 40
0.0
 40
0.0
 40
0.0
 40
0.3411475603825009
 40
0.6194213967475339
 40
0.8376693194455683
 40
1.0
 40
1.0
 40
1.0
 40
1.0
 10
81.28992013888889
 20
-17.05913336455697
 30
0.0
 10
81.28964470547345
 20
-17.08298015462523
 30
0.0
 10
81.28914460120566
 20
-17.12627875536991
 30
0.0
 10
81.28418579368638
 20
-17.18453845673568
 30
0.0
 10
81.27581705173587
 20
-17.23022289481779
 30
0.0
 10
81.26440937470895
 20
-17.25433649504764
 30
0.0
 10
81.25954358362269
 20
-17.26462182665188
 30
0.0
  0
SPLINE
  5
4F
330
1F
100
AcDbEntity
  8
0
  6
Continuous
 62
     7
370
    15
100
AcDbSpline
210
0.0
220
0.0
230
1.0
 70
     8
 71
     3
 72
    11
 73
     7
 74
     0
 42
0.00000001
 43
0.00000001
 12
1.0
 22
0.0
 32
0.0
 13
1.0
 23
0.0
 33
0.0
 40
0.0
 40
0.0
 40
0.0
 40
0.0
 40
0.1771346593151494
 40
0.3994786662113363
 40
0.6699506952063744
 40
0.9999999999999999
 40
0.9999999999999999
 40
0.9999999999999999
 40
0.9999999999999999
 10
81.2595435836227
 20
-17.26462182665189
 30
0.0
 10
81.25113789996288
 20
-17.27588799379191
 30
0.0
 10
81.23218118471584
 20
-17.30129574538503
 30
0.0
 10
81.18686339659008
 20
-17.32995944805495
 30
0.0
 10
81.1290466365567
 20
-17.35910773720539
 30
0.0
 10
81.08411198344928
 20
-17.37423843421676
 30
0.0
 10
81.05941569010416
 20
-17.38255433533244
 30
0.0
  0
SPLINE
  5
51
330
1F
100
AcDbEntity
  8
0
  6
Continuous
 62
     7
370
    15
100
AcDbSpline
210
0.0
220
0.0
230
1.0
 70
     8
 71
     3
 72
    23
 73
    19
 74
     0
 42
0.00000001
 43
0.00000001
 12
1.0
 22
0.0
 32
0.0
 13
1.0
 23
0.0
 33
0.0
 40
0.0
 40
0.0
 40
0.0
 40
0.0
 40
0.0729276521906131
 40
0.1413189958704625
 40
0.2049078266559277
 40
0.2655597983038531
 40
0.3222860263365141
 40
0.3766430889157419
 40
0.4294255530961189
 40
0.4810305651249734
 40
0.5332991405046453
 40
0.5876118480682574
 40
0.6450725633920629
 40
0.7067685354857591
 40
0.7724418189379375
 40
0.8427514385821778
 40
0.9187442088145312
 40
0.9999999999999999
 40
0.9999999999999999
 40
0.9999999999999999
 40
0.9999999999999999
 10
79.86311546947337
 20
-17.38255433533244
 30
0.0
 10
79.83182370325054
 20
-17.38297245201675
 30
0.0
 10
79.77118660814618
 20
-17.38378267733195
 30
0.0
 10
79.68362064833755
 20
-17.39272127310276
 30
0.0
 10
79.60228572996921
 20
-17.40785416027164
 30
0.0
 10
79.52751833007022
 20
-17.42914510086131
 30
0.0
 10
79.45873880720873
 20
-17.45588437560384
 30
0.0
 10
79.39651965878431
 20
-17.48902958014384
 30
0.0
 10
79.34098935738879
 20
-17.52868564954872
 30
0.0
 10
79.29074444601284
 20
-17.57363206625853
 30
0.0
 10
79.24776847998628
 20
-17.62641972334292
 30
0.0
 10
79.20964311252389
 20
-17.68578596415007
 30
0.0
 10
79.17873675744578
 20
-17.75368917770974
 30
0.0
 10
79.15277730315641
 20
-17.82872252695377
 30
0.0
 10
79.13355328280353
 20
-17.91144342311856
 30
0.0
 10
79.11940444039188
 20
-18.00130729561832
 30
0.0
 10
79.11022916958294
 20
-18.09859681922414
 30
0.0
 10
79.10945974486172
 20
-18.16606916677893
 30
0.0
 10
79.10906215639469
 20
-18.20093447132781
 30
0.0
  0
SPLINE
  5
52
330
1F
100
AcDbEntity
  8
0
  6
Continuous
 62
     7
370
    15
100
AcDbSpline
210
0.0
220
0.0
230
1.0
 70
     8
 71
     3
 72
    15
 73
    11
 74
     0
 42
0.00000001
 43
0.00000001
 12
1.0
 22
0.0
 32
0.0
 13
1.0
 23
0.0
 33
0.0
 40
0.0
 40
0.0
 40
0.0
 40
0.0
 40
0.2304045887026069
 40
0.4313532868525661
 40
0.6026074575802273
 40
0.7403456735229085
 40
0.848897100986335
 40
0.9244546960726258
 40
0.9732863560721499
 40
1.0
 40
1.0
 40
1.0
 40
1.0
 10
79.10906215639469
 20
-18.20093447132781
 30
0.0
 10
79.10758391692806
 20
-18.21731447921528
 30
0.0
 10
79.10481642233836
 20
-18.24798040596923
 30
0.0
 10
79.10079143345232
 20
-18.29081395843308
 30
0.0
 10
79.09939811521711
 20
-18.32721543667929
 30
0.0
 10
79.09794011331967
 20
-18.356934099986
 30
0.0
 10
79.09891714977607
 20
-18.38009131801509
 30
0.0
 10
79.10041457776757
 20
-18.3962515285499
 30
0.0
 10
79.10281781515768
 20
-18.40764440309898
 30
0.0
 10
79.10743091422111
 20
-18.41070222337735
 30
0.0
 10
79.10906215639469
 20
-18.4117835019991
 30
0.0
  0
SPLINE
  5
54
330
1F
100
AcDbEntity
  8
0
  6
Continuous
 62
     7
370
    15
100
AcDbSpline
210
0.0
220
0.0
230
1.0
 70
     8
 71
     3
 72
    15
 73
    11
 74
     0
 42
0.00000001
 43
0.00000001
 12
1.0
 22
0.0
 32
0.0
 13
1.0
 23
0.0
 33
0.0
 40
0.0
 40
0.0
 40
0.0
 40
0.0
 40
0.1711430942963933
 40
0.3277385053939131
 40
0.4711931801787713
 40
0.6017124507180797
 40
0.7199545086504526
 40
0.824807292687964
 40
0.9180187498678101
 40
1.0
 40
1.0
 40
1.0
 40
1.0
 10
81.82776385271991
 20
-18.4117835019991
 30
0.0
 10
81.86771018505834
 20
-18.40608213117117
 30
0.0
 10
81.94420729007086
 20
-18.3951640233648
 30
0.0
 10
82.05355725453833
 20
-18.37543646492492
 30
0.0
 10
82.15281905860977
 20
-18.35410760360855
 30
0.0
 10
82.24246010356637
 20
-18.33128675800921
 30
0.0
 10
82.32187781493863
 20
-18.30562929021955
 30
0.0
 10
82.3910238039593
 20
-18.27773709297831
 30
0.0
 10
82.45090699200483
 20
-18.24936893881968
 30
0.0
 10
82.4847012297131
 20
-18.22550363673373
 30
0.0
 10
82.50051520905672
 20
-18.21433589276878
 30
0.0
  0
SPLINE
  5
55
330
1F
100
AcDbEntity
  8
0
  6
Continuous
 62
     7
370
    15
100
AcDbSpline
210
0.0
220
0.0
230
1.0
 70
     8
 71
     3
 72
    15
 73
    11
 74
     0
 42
0.00000001
 43
0.00000001
 12
1.0
 22
0.0
 32
0.0
 13
1.0
 23
0.0
 33
0.0
 40
0.0
 40
0.0
 40
0.0
 40
0.0
 40
0.0307788527061359
 40
0.0859392073570913
 40
0.1706199055692773
 40
0.2822595606562953
 40
0.4209779751961861
 40
0.586538530477726
 40
0.7791797554163378
 40
1.0
 40
1.0
 40
1.0
 40
1.0
 10
82.50051520905673
 20
-18.21433589276879
 30
0.0
 10
82.50410394528603
 20
-18.21077689786851
 30
0.0
 10
82.51412423908663
 20
-18.20083964635243
 30
0.0
 10
82.53332046833036
 20
-18.1804272724448
 30
0.0
 10
82.56160458509292
 20
-18.15034507841232
 30
0.0
 10
82.59942898006553
 20
-18.11038565718863
 30
0.0
 10
82.64421301813326
 20
-18.05880169952131
 30
0.0
 10
82.70050094615385
 20
-17.99970443504834
 30
0.0
 10
82.76333430771857
 20
-17.92833371221665
 30
0.0
 10
82.8092443780878
 20
-17.87831690832265
 30
0.0
 10
82.83376388888888
 20
-17.85160408576646
 30
0.0
  0
SPLINE
  5
56
330
1F
100
AcDbEntity
  8
0
  6
Continuous
 62
     7
370
    15
100
AcDbSpline
210
0.0
220
0.0
230
1.0
 70
     8
 71
     3
 72
    11
 73
     7
 74
     0
 42
0.00000001
 43
0.00000001
 12
1.0
 22
0.0
 32
0.0
 13
1.0
 23
0.0
 33
0.0
 40
0.0
 40
0.0
 40
0.0
 40
0.0
 40
0.234888504822601
 40
0.4781512022807062
 40
0.7320791723936276
 40
1.0
 40
1.0
 40
1.0
 40
1.0
 10
82.83376388888888
 20
-17.85160408576646
 30
0.0
 10
82.85154254136033
 20
-17.80129840119125
 30
0.0
 10
82.88773368685968
 20
-17.6988935449836
 30
0.0
 10
82.9221823358796
 20
-17.53597829267273
 30
0.0
 10
82.94438065188398
 20
-17.36352072737046
 30
0.0
 10
82.94685324074617
 20
-17.24504140956006
 30
0.0
 10
82.94812268518518
 20
-17.18421329800605
 30
0.0
  0
SPLINE
  5
57
330
1F
100
AcDbEntity
  8
0
  6
Continuous
 62
     7
370
    15
100
AcDbSpline
210
0.0
220
0.0
230
1.0
 70
     8
 71
     3
 72
     9
 73
     5
 74
     0
 42
0.00000001
 43
0.00000001
 12
1.0
 22
0.0
 32
0.0
 13
1.0
 23
0.0
 33
0.0
 40
0.0
 40
0.0
 40
0.0
 40
0.0
 40
0.4994129175669126
 40
1.0
 40
1.0
 40
1.0
 40
1.0
 10
82.94812268518518
 20
-17.18421329800605
 30
0.0
 10
82.94774806725773
 20
-17.14279355065333
 30
0.0
 10
82.94699795064226
 20
-17.05985667438166
 30
0.0
 10
82.94000746616541
 20
-16.97721142937492
 30
0.0
 10
82.93650811993635
 20
-16.93584028730003
 30
0.0
  0
SPLINE
  5
58
330
1F
100
AcDbEntity
  8
0
  6
Continuous
 62
     7
370
    15
100
AcDbSpline
210
0.0
220
0.0
230
1.0
 70
     8
 71
     3
 72
    15
 73
    11
 74
     0
 42
0.00000001
 43
0.00000001
 12
1.0
 22
0.0
 32
0.0
 13
1.0
 23
0.0
 33
0.0
 40
0.0
 40
0.0
 40
0.0
 40
0.0
 40
0.1138026389612626
 40
0.2284602834736714
 40
0.345519705601845
 40
0.4658616824653927
 40
0.5905284265060425
 40
0.7212233860652414
 40
0.8571193275671691
 40
1.0
 40
1.0
 40
1.0
 40
1.0
 10
82.93650811993635
 20
-16.93584028730003
 30
0.0
 10
82.93153255910764
 20
-16.89515333709579
 30
0.0
 10
82.92154405578516
 20
-16.81347375336923
 30
0.0
 10
82.88850663389128
 20
-16.69332335494884
 30
0.0
 10
82.8463630108993
 20
-16.57372959826423
 30
0.0
 10
82.78877618786534
 20
-16.45665784367751
 30
0.0
 10
82.72098023074416
 20
-16.33958488710208
 30
0.0
 10
82.63900208481864
 20
-16.22499823934262
 30
0.0
 10
82.54620817596346
 20
-16.11038400074116
 30
0.0
 10
82.47583188224218
 20
-16.03886392852669
 30
0.0
 10
82.43976209852433
 20
-16.0022079269123
 30
0.0
  0
SPLINE
  5
6D
330
1F
100
AcDbEntity
  8
0
  6
Continuous
 62
     7
370
    15
100
AcDbSpline
210
0.0
220
0.0
230
1.0
 70
     8
 71
     3
 72
    11
 73
     7
 74
     0
 42
0.00000001
 43
0.00000001
 12
1.0
 22
0.0
 32
0.0
 13
1.0
 23
0.0
 33
0.0
 40
0.0
 40
0.0
 40
0.0
 40
0.0
 40
0.3134377355450733
 40
0.5817173133362993
 40
0.8117514361679644
 40
1.0
 40
1.0
 40
1.0
 40
1.0
 10
66.67343648726852
 20
-17.7059753061079
 30
0.0
 10
66.64542125973924
 20
-17.68239105428014
 30
0.0
 10
66.59342706426531
 20
-17.63862042281345
 30
0.0
 10
66.5168829365925
 20
-17.58266185958372
 30
0.0
 10
66.44901980526234
 20
-17.53946870738566
 30
0.0
 10
66.4041565427188
 20
-17.51997923758396
 30
0.0
 10
66.38396578414351
 20
-17.51120798116578
 30
0.0
  0
SPLINE
  5
6E
330
1F
100
AcDbEntity
  8
0
  6
Continuous
 62
     7
370
    15
100
AcDbSpline
210
0.0
220
0.0
230
1.0
 70
     8
 71
     3
 72
    11
 73
     7
 74
     0
 42
0.00000001
 43
0.00000001
 12
1.0
 22
0.0
 32
0.0
 13
1.0
 23
0.0
 33
0.0
 40
0.0
 40
0.0
 40
0.0
 40
0.0
 40
0.2608957663281043
 40
0.5087881356539001
 40
0.7552987308678999
 40
1.0
 40
1.0
 40
1.0
 40
1.0
 10
66.38396578414351
 20
-17.51120798116578
 30
0.0
 10
66.40600037657897
 20
-17.47457467886965
 30
0.0
 10
66.44897132763316
 20
-17.40313392749061
 30
0.0
 10
66.49264155148008
 20
-17.28703818643718
 30
0.0
 10
66.5208795888815
 20
-17.16890226484528
 30
0.0
 10
66.52431131069848
 20
-17.08847682706728
 30
0.0
 10
66.52602085141784
 20
-17.0484122274042
 30
0.0
  0
SPLINE
  5
6F
330
1F
100
AcDbEntity
  8
0
  6
Continuous
 62
     7
370
    15
100
AcDbSpline
210
0.0
220
0.0
230
1.0
 70
     8
 71
     3
 72
    11
 73
     7
 74
     0
 42
0.00000001
 43
0.00000001
 12
1.0
 22
0.0
 32
0.0
 13
1.0
 23
0.0
 33
0.0
 40
0.0
 40
0.0
 40
0.0
 40
0.0
 40
0.1944376424331008
 40
0.4271525952102201
 40
0.6939381936879888
 40
1.0
 40
1.0
 40
1.0
 40
1.0
 10
66.52602085141783
 20
-17.04841222740419
 30
0.0
 10
66.52542073185455
 20
-17.02218845625975
 30
0.0
 10
66.52410235221527
 20
-16.96457845975714
 30
0.0
 10
66.51506150865725
 20
-16.87137634536668
 30
0.0
 10
66.50303821542546
 20
-16.76339212608998
 30
0.0
 10
66.49064903928503
 20
-16.68712024431752
 30
0.0
 10
66.48402973090279
 20
-16.64636958417504
 30
0.0
  0
SPLINE
  5
70
330
1F
100
AcDbEntity
  8
0
  6
Continuous
 62
     7
370
    15
100
AcDbSpline
210
0.0
220
0.0
230
1.0
 70
     8
 71
     3
 72
    15
 73
    11
 74
     0
 42
0.00000001
 43
0.00000001
 12
1.0
 22
0.0
 32
0.0
 13
1.0
 23
0.0
 33
0.0
 40
0.0
 40
0.0
 40
0.0
 40
0.0
 40
0.0486840555791119
 40
0.1192636363099827
 40
0.211063580755574
 40
0.3254624594294773
 40
0.4608983837228294
 40
0.61919787500224
 40
0.798549802309772
 40
1.0
 40
1.0
 40
1.0
 40
1.0
 10
66.48402973090278
 20
-16.64636958417503
 30
0.0
 10
66.48063734929498
 20
-16.62905505740668
 30
0.0
 10
66.4723268714294
 20
-16.58663884127971
 30
0.0
 10
66.45184212003866
 20
-16.51289881892493
 30
0.0
 10
66.42273758545161
 20
-16.41695375986685
 30
0.0
 10
66.38639103555917
 20
-16.29862451214566
 30
0.0
 10
66.34144058821794
 20
-16.15774960570648
 30
0.0
 10
66.28784264660324
 20
-15.99493900821105
 30
0.0
 10
66.22624320656813
 20
-15.80958303902062
 30
0.0
 10
66.18156430428373
 20
-15.67904802732459
 30
0.0
 10
66.15792847583913
 20
-15.60999299273984
 30
0.0
  0
SPLINE
  5
78
330
1F
100
AcDbEntity
  8
0
  6
Continuous
 62
     7
370
    15
100
AcDbSpline
210
0.0
220
0.0
230
1.0
 70
     8
 71
     3
 72
    15
 73
    11
 74
     0
 42
0.00000001
 43
0.00000001
 12
1.0
 22
0.0
 32
0.0
 13
1.0
 23
0.0
 33
0.0
 40
0.0
 40
0.0
 40
0.0
 40
0.0
 40
0.1119037012634211
 40
0.2258686540657814
 40
0.3418582336754951
 40
0.4610147469650612
 40
0.5858588864055952
 40
0.717379313760989
 40
0.8549288251388271
 40
1.0
 40
1.0
 40
1.0
 40
1.0
 10
67.10496225766782
 20
-18.4117835019991
 30
0.0
 10
67.09973905004891
 20
-18.38064356667808
 30
0.0
 10
67.08919642401003
 20
-18.31779010250088
 30
0.0
 10
67.05968092071058
 20
-18.22576302512442
 30
0.0
 10
67.02118411494668
 20
-18.13509556393951
 30
0.0
 10
66.97238467951483
 20
-18.04594166624954
 30
0.0
 10
66.9129987766562
 20
-17.95815596642071
 30
0.0
 10
66.8430627790847
 20
-17.8718087186021
 30
0.0
 10
66.7634455196305
 20
-17.78624235164481
 30
0.0
 10
66.70396715025396
 20
-17.73320153054135
 30
0.0
 10
66.67343648726852
 20
-17.7059753061079
 30
0.0
  0
SPLINE
  5
79
330
1F
100
AcDbEntity
  8
0
  6
Continuous
 62
     7
370
    15
100
AcDbSpline
210
0.0
220
0.0
230
1.0
 70
     8
 71
     3
 72
    15
 73
    11
 74
     0
 42
0.00000001
 43
0.00000001
 12
1.0
 22
0.0
 32
0.0
 13
1.0
 23
0.0
 33
0.0
 40
0.0
 40
0.0
 40
0.0
 40
0.0
 40
0.1035773464829235
 40
0.2124153268441319
 40
0.3264808538093577
 40
0.4469062653064271
 40
0.5736783283336668
 40
0.70822234048455
 40
0.8503451153442997
 40
1.0
 40
1.0
 40
1.0
 40
1.0
 10
59.33928524667245
 20
-16.0022079269123
 30
0.0
 10
59.3176319109031
 20
-15.98151286386437
 30
0.0
 10
59.27322547888977
 20
-15.93907164741451
 30
0.0
 10
59.19751555532854
 20
-15.88245060526314
 30
0.0
 10
59.11399517979309
 20
-15.82883971684661
 30
0.0
 10
59.02280756280579
 20
-15.77787750441867
 30
0.0
 10
58.92316870913281
 20
-15.73034811593219
 30
0.0
 10
58.81483155966263
 20
-15.687181384143
 30
0.0
 10
58.69880596039387
 20
-15.6456215212312
 30
0.0
 10
58.6178305366703
 20
-15.62207181065264
 30
0.0
 10
58.5762976526331
 20
-15.60999299273984
 30
0.0
  0
SPLINE
  5
7D
330
1F
100
AcDbEntity
  8
0
  6
Continuous
 62
     7
370
    15
100
AcDbSpline
210
0.0
220
0.0
230
1.0
 70
     8
 71
     3
 72
    15
 73
    11
 74
     0
 42
0.00000001
 43
0.00000001
 12
1.0
 22
0.0
 32
0.0
 13
1.0
 23
0.0
 33
0.0
 40
0.0
 40
0.0
 40
0.0
 40
0.0
 40
0.1490470494123598
 40
0.2835879637171165
 40
0.4065492096303526
 40
0.5200074501475727
 40
0.629676232024237
 40
0.7451694221708163
 40
0.8659216035762237
 40
1.0
 40
1.0
 40
1.0
 40
1.0
 10
57.88657116247106
 20
-16.75358095570281
 30
0.0
 10
57.91024645584657
 20
-16.75708121709083
 30
0.0
 10
57.95529282385744
 20
-16.76374107385029
 30
0.0
 10
58.01756110675821
 20
-16.78370568472342
 30
0.0
 10
58.07154909099029
 20
-16.80968021276294
 30
0.0
 10
58.11422543160097
 20
-16.8458275981598
 30
0.0
 10
58.14899153610958
 20
-16.88804758174764
 30
0.0
 10
58.17262456357253
 20
-16.93873572793488
 30
0.0
 10
58.18753614250402
 20
-16.99664395281127
 30
0.0
 10
58.18878578901652
 20
-17.03758981407341
 30
0.0
 10
58.18944328703704
 20
-17.05913336455697
 30
0.0
  0
SPLINE
  5
7E
330
1F
100
AcDbEntity
  8
0
  6
Continuous
 62
     7
370
    15
100
AcDbSpline
210
0.0
220
0.0
230
1.0
 70
     8
 71
     3
 72
    11
 73
     7
 74
     0
 42
0.00000001
 43
0.00000001
 12
1.0
 22
0.0
 32
0.0
 13
1.0
 23
0.0
 33
0.0
 40
0.0
 40
0.0
 40
0.0
 40
0.0
 40
0.3411475603825068
 40
0.6194213967475434
 40
0.8376693194455663
 40
1.0
 40
1.0
 40
1.0
 40
1.0
 10
58.18944328703704
 20
-17.05913336455697
 30
0.0
 10
58.1891678536216
 20
-17.08298015462523
 30
0.0
 10
58.18866774935379
 20
-17.12627875536991
 30
0.0
 10
58.1837089418345
 20
-17.18453845673568
 30
0.0
 10
58.17534019988405
 20
-17.23022289481779
 30
0.0
 10
58.16393252285711
 20
-17.25433649504765
 30
0.0
 10
58.15906673177084
 20
-17.26462182665188
 30
0.0
  0
SPLINE
  5
7F
330
1F
100
AcDbEntity
  8
0
  6
Continuous
 62
     7
370
    15
100
AcDbSpline
210
0.0
220
0.0
230
1.0
 70
     8
 71
     3
 72
    11
 73
     7
 74
     0
 42
0.00000001
 43
0.00000001
 12
1.0
 22
0.0
 32
0.0
 13
1.0
 23
0.0
 33
0.0
 40
0.0
 40
0.0
 40
0.0
 40
0.0
 40
0.1771346593151699
 40
0.3994786662113828
 40
0.6699506952063712
 40
1.0
 40
1.0
 40
1.0
 40
1.0
 10
58.15906673177084
 20
-17.26462182665189
 30
0.0
 10
58.15066104811103
 20
-17.27588799379191
 30
0.0
 10
58.13170433286399
 20
-17.30129574538503
 30
0.0
 10
58.0863865447382
 20
-17.32995944805493
 30
0.0
 10
58.02856978470481
 20
-17.35910773720538
 30
0.0
 10
57.98363513159742
 20
-17.37423843421676
 30
0.0
 10
57.95893883825232
 20
-17.38255433533244
 30
0.0
  0
SPLINE
  5
81
330
1F
100
AcDbEntity
  8
0
  6
Continuous
 62
     7
370
    15
100
AcDbSpline
210
0.0
220
0.0
230
1.0
 70
     8
 71
     3
 72
    23
 73
    19
 74
     0
 42
0.00000001
 43
0.00000001
 12
1.0
 22
0.0
 32
0.0
 13
1.0
 23
0.0
 33
0.0
 40
0.0
 40
0.0
 40
0.0
 40
0.0
 40
0.0729276521906129
 40
0.141318995870462
 40
0.204907826655927
 40
0.2655597983038573
 40
0.3222860263365182
 40
0.3766430889157458
 40
0.4294255530961182
 40
0.4810305651249765
 40
0.5332991405046449
 40
0.5876118480682567
 40
0.645072563392062
 40
0.7067685354857598
 40
0.7724418189379378
 40
0.8427514385821779
 40
0.9187442088145316
 40
1.0
 40
1.0
 40
1.0
 40
1.0
 10
56.76263861762153
 20
-17.38255433533244
 30
0.0
 10
56.73134685139871
 20
-17.38297245201675
 30
0.0
 10
56.67070975629433
 20
-17.38378267733196
 30
0.0
 10
56.58314379648568
 20
-17.39272127310276
 30
0.0
 10
56.50180887811737
 20
-17.40785416027164
 30
0.0
 10
56.42704147821839
 20
-17.42914510086131
 30
0.0
 10
56.35826195535682
 20
-17.45588437560383
 30
0.0
 10
56.29604280693248
 20
-17.48902958014384
 30
0.0
 10
56.24051250553696
 20
-17.52868564954874
 30
0.0
 10
56.19026759416095
 20
-17.57363206625852
 30
0.0
 10
56.14729162813445
 20
-17.62641972334293
 30
0.0
 10
56.10916626067205
 20
-17.68578596415007
 30
0.0
 10
56.07825990559391
 20
-17.75368917770974
 30
0.0
 10
56.05230045130457
 20
-17.82872252695378
 30
0.0
 10
56.03307643095166
 20
-17.91144342311855
 30
0.0
 10
56.01892758854001
 20
-18.00130729561831
 30
0.0
 10
56.00975231773108
 20
-18.09859681922414
 30
0.0
 10
56.00898289300986
 20
-18.16606916677893
 30
0.0
 10
56.00858530454282
 20
-18.20093447132781
 30
0.0
  0
SPLINE
  5
82
330
1F
100
AcDbEntity
  8
0
  6
Continuous
 62
     7
370
    15
100
AcDbSpline
210
0.0
220
0.0
230
1.0
 70
     8
 71
     3
 72
    15
 73
    11
 74
     0
 42
0.00000001
 43
0.00000001
 12
1.0
 22
0.0
 32
0.0
 13
1.0
 23
0.0
 33
0.0
 40
0.0
 40
0.0
 40
0.0
 40
0.0
 40
0.2304045887026116
 40
0.4313532868525826
 40
0.60260745758025
 40
0.7403456735229386
 40
0.8488971009863712
 40
0.9244546960726618
 40
0.9732863560721994
 40
1.0
 40
1.0
 40
1.0
 40
1.0
 10
56.00858530454282
 20
-18.20093447132781
 30
0.0
 10
56.00710706507621
 20
-18.21731447921528
 30
0.0
 10
56.0043395704865
 20
-18.24798040596923
 30
0.0
 10
56.00031458160048
 20
-18.29081395843308
 30
0.0
 10
55.99892126336527
 20
-18.32721543667929
 30
0.0
 10
55.99746326146776
 20
-18.356934099986
 30
0.0
 10
55.99844029792427
 20
-18.38009131801509
 30
0.0
 10
55.99993772591566
 20
-18.39625152854989
 30
0.0
 10
56.00234096330583
 20
-18.40764440309898
 30
0.0
 10
56.00695406236923
 20
-18.41070222337734
 30
0.0
 10
56.00858530454282
 20
-18.4117835019991
 30
0.0
  0
SPLINE
  5
84
330
1F
100
AcDbEntity
  8
0
  6
Continuous
 62
     7
370
    15
100
AcDbSpline
210
0.0
220
0.0
230
1.0
 70
     8
 71
     3
 72
    15
 73
    11
 74
     0
 42
0.00000001
 43
0.00000001
 12
1.0
 22
0.0
 32
0.0
 13
1.0
 23
0.0
 33
0.0
 40
0.0
 40
0.0
 40
0.0
 40
0.0
 40
0.1711430942963837
 40
0.3277385053939133
 40
0.4711931801787619
 40
0.6017124507180799
 40
0.7199545086504343
 40
0.8248072926879639
 40
0.9180187498678101
 40
1.0
 40
1.0
 40
1.0
 40
1.0
 10
58.72728700086806
 20
-18.4117835019991
 30
0.0
 10
58.76723333320648
 20
-18.40608213117117
 30
0.0
 10
58.84373043821903
 20
-18.39516402336481
 30
0.0
 10
58.95308040268646
 20
-18.37543646492492
 30
0.0
 10
59.05234220675794
 20
-18.35410760360855
 30
0.0
 10
59.14198325171448
 20
-18.3312867580092
 30
0.0
 10
59.22140096308681
 20
-18.30562929021955
 30
0.0
 10
59.29054695210746
 20
-18.27773709297831
 30
0.0
 10
59.35043014015294
 20
-18.24936893881967
 30
0.0
 10
59.38422437786122
 20
-18.22550363673373
 30
0.0
 10
59.40003835720486
 20
-18.21433589276878
 30
0.0
  0
SPLINE
  5
85
330
1F
100
AcDbEntity
  8
0
  6
Continuous
 62
     7
370
    15
100
AcDbSpline
210
0.0
220
0.0
230
1.0
 70
     8
 71
     3
 72
    15
 73
    11
 74
     0
 42
0.00000001
 43
0.00000001
 12
1.0
 22
0.0
 32
0.0
 13
1.0
 23
0.0
 33
0.0
 40
0.0
 40
0.0
 40
0.0
 40
0.0
 40
0.0307788527061359
 40
0.0859392073570719
 40
0.1706199055692675
 40
0.2822595606562951
 40
0.4209779751961859
 40
0.5865385304777258
 40
0.7791797554163375
 40
1.0
 40
1.0
 40
1.0
 40
1.0
 10
59.40003835720487
 20
-18.21433589276879
 30
0.0
 10
59.4036270934342
 20
-18.21077689786851
 30
0.0
 10
59.41364738723482
 20
-18.20083964635244
 30
0.0
 10
59.43284361647844
 20
-18.18042727244479
 30
0.0
 10
59.46112773324111
 20
-18.15034507841232
 30
0.0
 10
59.49895212821369
 20
-18.11038565718864
 30
0.0
 10
59.5437361662814
 20
-18.05880169952131
 30
0.0
 10
59.60002409430198
 20
-17.99970443504833
 30
0.0
 10
59.66285745586674
 20
-17.92833371221665
 30
0.0
 10
59.70876752623597
 20
-17.87831690832265
 30
0.0
 10
59.73328703703704
 20
-17.85160408576646
 30
0.0
  0
SPLINE
  5
86
330
1F
100
AcDbEntity
  8
0
  6
Continuous
 62
     7
370
    15
100
AcDbSpline
210
0.0
220
0.0
230
1.0
 70
     8
 71
     3
 72
    11
 73
     7
 74
     0
 42
0.00000001
 43
0.00000001
 12
1.0
 22
0.0
 32
0.0
 13
1.0
 23
0.0
 33
0.0
 40
0.0
 40
0.0
 40
0.0
 40
0.0
 40
0.2348885048226013
 40
0.4781512022807071
 40
0.7320791723936263
 40
1.0
 40
1.0
 40
1.0
 40
1.0
 10
59.73328703703704
 20
-17.85160408576646
 30
0.0
 10
59.75106568950848
 20
-17.80129840119125
 30
0.0
 10
59.78725683500782
 20
-17.69889354498361
 30
0.0
 10
59.82170548402774
 20
-17.53597829267272
 30
0.0
 10
59.84390380003209
 20
-17.36352072737045
 30
0.0
 10
59.84637638889429
 20
-17.24504140956007
 30
0.0
 10
59.84764583333334
 20
-17.18421329800605
 30
0.0
  0
SPLINE
  5
87
330
1F
100
AcDbEntity
  8
0
  6
Continuous
 62
     7
370
    15
100
AcDbSpline
210
0.0
220
0.0
230
1.0
 70
     8
 71
     3
 72
     9
 73
     5
 74
     0
 42
0.00000001
 43
0.00000001
 12
1.0
 22
0.0
 32
0.0
 13
1.0
 23
0.0
 33
0.0
 40
0.0
 40
0.0
 40
0.0
 40
0.0
 40
0.4994129175669126
 40
1.0
 40
1.0
 40
1.0
 40
1.0
 10
59.84764583333334
 20
-17.18421329800605
 30
0.0
 10
59.84727121540589
 20
-17.14279355065333
 30
0.0
 10
59.8465210987904
 20
-17.05985667438166
 30
0.0
 10
59.83953061431356
 20
-16.97721142937492
 30
0.0
 10
59.8360312680845
 20
-16.93584028730003
 30
0.0
  0
SPLINE
  5
88
330
1F
100
AcDbEntity
  8
0
  6
Continuous
 62
     7
370
    15
100
AcDbSpline
210
0.0
220
0.0
230
1.0
 70
     8
 71
     3
 72
    15
 73
    11
 74
     0
 42
0.00000001
 43
0.00000001
 12
1.0
 22
0.0
 32
0.0
 13
1.0
 23
0.0
 33
0.0
 40
0.0
 40
0.0
 40
0.0
 40
0.0
 40
0.1138026389612637
 40
0.2284602834736718
 40
0.3455197056018402
 40
0.4658616824653872
 40
0.5905284265060361
 40
0.7212233860652342
 40
0.857119327567161
 40
1.0
 40
1.0
 40
1.0
 40
1.0
 10
59.8360312680845
 20
-16.93584028730003
 30
0.0
 10
59.83105570725578
 20
-16.89515333709579
 30
0.0
 10
59.8210672039333
 20
-16.81347375336923
 30
0.0
 10
59.78802978203938
 20
-16.69332335494883
 30
0.0
 10
59.74588615904745
 20
-16.57372959826423
 30
0.0
 10
59.68829933601348
 20
-16.4566578436775
 30
0.0
 10
59.62050337889234
 20
-16.33958488710208
 30
0.0
 10
59.53852523296679
 20
-16.22499823934262
 30
0.0
 10
59.44573132411158
 20
-16.11038400074116
 30
0.0
 10
59.37535503039034
 20
-16.0388639285267
 30
0.0
 10
59.33928524667246
 20
-16.0022079269123
 30
0.0
  0
SPLINE
  5
93
330
1F
100
AcDbEntity
  8
0
  6
Continuous
 62
     7
370
    15
100
AcDbSpline
210
0.0
220
0.0
230
1.0
 70
     8
 71
     3
 72
    11
 73
     7
 74
     0
 42
0.00000001
 43
0.00000001
 12
1.0
 22
0.0
 32
0.0
 13
1.0
 23
0.0
 33
0.0
 40
0.0
 40
0.0
 40
0.0
 40
0.0
 40
0.2283954419752303
 40
0.4671115596802729
 40
0.7244179581333008
 40
1.0
 40
1.0
 40
1.0
 40
1.0
 10
47.63269690393519
 20
-19.89844785385096
 30
0.0
 10
47.6566637093575
 20
-19.89728550235066
 30
0.0
 10
47.7056803261715
 20
-19.89490827530311
 30
0.0
 10
47.77893303736621
 20
-19.8732727785618
 30
0.0
 10
47.85350253278842
 20
-19.84156689730804
 30
0.0
 10
47.9005285129383
 20
-19.81133696392497
 30
0.0
 10
47.92484789134838
 20
-19.7957036228035
 30
0.0
  0
SPLINE
  5
94
330
1F
100
AcDbEntity
  8
0
  6
Continuous
 62
     7
370
    15
100
AcDbSpline
210
0.0
220
0.0
230
1.0
 70
     8
 71
     3
 72
    11
 73
     7
 74
     0
 42
0.00000001
 43
0.00000001
 12
1.0
 22
0.0
 32
0.0
 13
1.0
 23
0.0
 33
0.0
 40
0.0
 40
0.0
 40
0.0
 40
0.0
 40
0.2648958411737982
 40
0.5174911528565023
 40
0.7612447442384527
 40
1.0
 40
1.0
 40
1.0
 40
1.0
 10
47.92484789134838
 20
-19.7957036228035
 30
0.0
 10
47.94761065432495
 20
-19.77925007460156
 30
0.0
 10
47.99207918355047
 20
-19.74710700436735
 30
0.0
 10
48.05030107167858
 20
-19.69103896323671
 30
0.0
 10
48.10052214604061
 20
-19.63116591338436
 30
0.0
 10
48.12644398018352
 20
-19.58703570472306
 30
0.0
 10
48.13927063440394
 20
-19.56519917401878
 30
0.0
  0
SPLINE
  5
95
330
1F
100
AcDbEntity
  8
0
  6
Continuous
 62
     7
370
    15
100
AcDbSpline
210
0.0
220
0.0
230
1.0
 70
     8
 71
     3
 72
    15
 73
    11
 74
     0
 42
0.00000001
 43
0.00000001
 12
1.0
 22
0.0
 32
0.0
 13
1.0
 23
0.0
 33
0.0
 40
0.0
 40
0.0
 40
0.0
 40
0.0
 40
0.0860165100326733
 40
0.1833995945071816
 40
0.2897735031960887
 40
0.4088143079306746
 40
0.5380332366822285
 40
0.6793420547264066
 40
0.8340983154364866
 40
1.0
 40
1.0
 40
1.0
 40
1.0
 10
48.13927063440394
 20
-19.56519917401878
 30
0.0
 10
48.1482590496225
 20
-19.54688926709362
 30
0.0
 10
48.16742364611359
 20
-19.50784990704211
 30
0.0
 10
48.19012011703999
 20
-19.44284291264127
 30
0.0
 10
48.20842104794121
 20
-19.36853042791109
 30
0.0
 10
48.22477039060386
 20
-19.28603234497562
 30
0.0
 10
48.23557584458182
 20
-19.19429077431796
 30
0.0
 10
48.24480139162417
 20
-19.0939241735114
 30
0.0
 10
48.2499735147499
 20
-18.98452440768494
 30
0.0
 10
48.25061648639189
 20
-18.90853434778949
 30
0.0
 10
48.25094914641204
 20
-18.86921868718429
 30
0.0
  0
SPLINE
  5
A1
330
1F
100
AcDbEntity
  8
0
  6
Continuous
 62
     7
370
    15
100
AcDbSpline
210
0.0
220
0.0
230
1.0
 70
     8
 71
     3
 72
    15
 73
    11
 74
     0
 42
0.00000001
 43
0.00000001
 12
1.0
 22
0.0
 32
0.0
 13
1.0
 23
0.0
 33
0.0
 40
0.0
 40
0.0
 40
0.0
 40
0.0
 40
0.1119037012634224
 40
0.2258686540657825
 40
0.341858233675496
 40
0.4610147469650618
 40
0.5858588864055957
 40
0.717379313760984
 40
0.8549288251388273
 40
1.0
 40
1.0
 40
1.0
 40
1.0
 10
48.17858147063079
 20
-18.4117835019991
 30
0.0
 10
48.17335826301188
 20
-18.38064356667807
 30
0.0
 10
48.16281563697299
 20
-18.31779010250088
 30
0.0
 10
48.13330013367354
 20
-18.22576302512442
 30
0.0
 10
48.09480332790964
 20
-18.13509556393951
 30
0.0
 10
48.04600389247779
 20
-18.04594166624955
 30
0.0
 10
47.98661798961916
 20
-17.95815596642071
 30
0.0
 10
47.91668199204769
 20
-17.8718087186021
 30
0.0
 10
47.83706473259345
 20
-17.78624235164482
 30
0.0
 10
47.77758636321693
 20
-17.73320153054135
 30
0.0
 10
47.74705570023148
 20
-17.7059753061079
 30
0.0
  0
SPLINE
  5
A2
330
1F
100
AcDbEntity
  8
0
  6
Continuous
 62
     7
370
    15
100
AcDbSpline
210
0.0
220
0.0
230
1.0
 70
     8
 71
     3
 72
    11
 73
     7
 74
     0
 42
0.00000001
 43
0.00000001
 12
1.0
 22
0.0
 32
0.0
 13
1.0
 23
0.0
 33
0.0
 40
0.0
 40
0.0
 40
0.0
 40
0.0
 40
0.313437735545079
 40
0.5817173133363097
 40
0.8117514361679791
 40
1.0
 40
1.0
 40
1.0
 40
1.0
 10
47.74705570023148
 20
-17.7059753061079
 30
0.0
 10
47.7190404727022
 20
-17.68239105428013
 30
0.0
 10
47.66704627722827
 20
-17.63862042281345
 30
0.0
 10
47.59050214955546
 20
-17.58266185958372
 30
0.0
 10
47.52263901822527
 20
-17.53946870738566
 30
0.0
 10
47.47777575568174
 20
-17.51997923758396
 30
0.0
 10
47.45758499710649
 20
-17.51120798116578
 30
0.0
  0
SPLINE
  5
A3
330
1F
100
AcDbEntity
  8
0
  6
Continuous
 62
     7
370
    15
100
AcDbSpline
210
0.0
220
0.0
230
1.0
 70
     8
 71
     3
 72
    11
 73
     7
 74
     0
 42
0.00000001
 43
0.00000001
 12
1.0
 22
0.0
 32
0.0
 13
1.0
 23
0.0
 33
0.0
 40
0.0
 40
0.0
 40
0.0
 40
0.0
 40
0.2608957663281121
 40
0.5087881356538985
 40
0.755298730867899
 40
1.0
 40
1.0
 40
1.0
 40
1.0
 10
47.45758499710649
 20
-17.51120798116578
 30
0.0
 10
47.47961958954194
 20
-17.47457467886965
 30
0.0
 10
47.52259054059613
 20
-17.40313392749061
 30
0.0
 10
47.56626076444307
 20
-17.28703818643718
 30
0.0
 10
47.59449880184446
 20
-17.16890226484528
 30
0.0
 10
47.59793052366146
 20
-17.08847682706728
 30
0.0
 10
47.59964006438079
 20
-17.04841222740419
 30
0.0
  0
SPLINE
  5
A4
330
1F
100
AcDbEntity
  8
0
  6
Continuous
 62
     7
370
    15
100
AcDbSpline
210
0.0
220
0.0
230
1.0
 70
     8
 71
     3
 72
    11
 73
     7
 74
     0
 42
0.00000001
 43
0.00000001
 12
1.0
 22
0.0
 32
0.0
 13
1.0
 23
0.0
 33
0.0
 40
0.0
 40
0.0
 40
0.0
 40
0.0
 40
0.1944376424331006
 40
0.4271525952102199
 40
0.6939381936879865
 40
1.0
 40
1.0
 40
1.0
 40
1.0
 10
47.59964006438079
 20
-17.04841222740419
 30
0.0
 10
47.59903994481751
 20
-17.02218845625976
 30
0.0
 10
47.59772156517822
 20
-16.96457845975714
 30
0.0
 10
47.58868072162022
 20
-16.87137634536669
 30
0.0
 10
47.57665742838846
 20
-16.76339212608998
 30
0.0
 10
47.56426825224798
 20
-16.68712024431752
 30
0.0
 10
47.55764894386575
 20
-16.64636958417504
 30
0.0
  0
SPLINE
  5
A5
330
1F
100
AcDbEntity
  8
0
  6
Continuous
 62
     7
370
    15
100
AcDbSpline
210
0.0
220
0.0
230
1.0
 70
     8
 71
     3
 72
    15
 73
    11
 74
     0
 42
0.00000001
 43
0.00000001
 12
1.0
 22
0.0
 32
0.0
 13
1.0
 23
0.0
 33
0.0
 40
0.0
 40
0.0
 40
0.0
 40
0.0
 40
0.0486840555791119
 40
0.1192636363099827
 40
0.211063580755574
 40
0.3254624594294773
 40
0.4608983837228294
 40
0.61919787500224
 40
0.798549802309772
 40
1.0
 40
1.0
 40
1.0
 40
1.0
 10
47.55764894386574
 20
-16.64636958417503
 30
0.0
 10
47.55425656225795
 20
-16.62905505740668
 30
0.0
 10
47.54594608439236
 20
-16.58663884127971
 30
0.0
 10
47.52546133300163
 20
-16.51289881892493
 30
0.0
 10
47.49635679841457
 20
-16.41695375986685
 30
0.0
 10
47.46001024852212
 20
-16.29862451214566
 30
0.0
 10
47.4150598011809
 20
-16.15774960570648
 30
0.0
 10
47.36146185956621
 20
-15.99493900821105
 30
0.0
 10
47.29986241953109
 20
-15.80958303902062
 30
0.0
 10
47.25518351724668
 20
-15.67904802732459
 30
0.0
 10
47.23154768880208
 20
-15.60999299273984
 30
0.0
  0
SPLINE
  5
B1
330
1F
100
AcDbEntity
  8
0
  6
Continuous
 62
     7
370
    15
100
AcDbSpline
210
0.0
220
0.0
230
1.0
 70
     8
 71
     3
 72
    23
 73
    19
 74
     0
 42
0.00000001
 43
0.00000001
 12
1.0
 22
0.0
 32
0.0
 13
1.0
 23
0.0
 33
0.0
 40
0.0
 40
0.0
 40
0.0
 40
0.0
 40
0.0803206523470531
 40
0.1572952055240879
 40
0.2306009021222541
 40
0.3008825859259329
 40
0.3683067850469565
 40
0.4328271419703818
 40
0.4944259677121766
 40
0.5541430476467053
 40
0.6120527207327244
 40
0.6682929057003555
 40
0.7237803200251814
 40
0.7785259513472175
 40
0.8329812339381846
 40
0.8879853518335438
 40
0.9436679071330004
 40
1.0
 40
1.0
 40
1.0
 40
1.0
 10
31.58226115813079
 20
-15.60999299273984
 30
0.0
 10
31.54085972202289
 20
-15.61059990505478
 30
0.0
 10
31.45978160311713
 20
-15.61178844616497
 30
0.0
 10
31.34101801614603
 20
-15.61836361600405
 30
0.0
 10
31.22809724916916
 20
-15.63221856027515
 30
0.0
 10
31.12078611905588
 20
-15.65006092098356
 30
0.0
 10
31.0186896853342
 20
-15.67160379352035
 30
0.0
 10
30.92317307659817
 20
-15.70072229063461
 30
0.0
 10
30.83307329756837
 20
-15.73349080877123
 30
0.0
 10
30.7491240782135
 20
-15.77225823672075
 30
0.0
 10
30.67006629296061
 20
-15.81469045281986
 30
0.0
 10
30.5973426865635
 20
-15.86346406863316
 30
0.0
 10
30.52999434910712
 20
-15.91685264440376
 30
0.0
 10
30.46927649481353
 20
-15.97636206789341
 30
0.0
 10
30.41336599785246
 20
-16.04003421438143
 30
0.0
 10
30.36321865630484
 20
-16.10897029914762
 30
0.0
 10
30.31918613118271
 20
-16.18316388990056
 30
0.0
 10
30.29525277535316
 20
-16.23574998848575
 30
0.0
 10
30.28321670645255
 20
-16.26219550286716
 30
0.0
  0
SPLINE
  5
B2
330
1F
100
AcDbEntity
  8
0
  6
Continuous
 62
     7
370
    15
100
AcDbSpline
210
0.0
220
0.0
230
1.0
 70
     8
 71
     3
 72
    11
 73
     7
 74
     0
 42
0.00000001
 43
0.00000001
 12
1.0
 22
0.0
 32
0.0
 13
1.0
 23
0.0
 33
0.0
 40
0.0
 40
0.0
 40
0.0
 40
0.0
 40
0.2043168671374307
 40
0.4375141176595496
 40
0.701698268786507
 40
1.0
 40
1.0
 40
1.0
 40
1.0
 10
30.28321670645255
 20
-16.26219550286716
 30
0.0
 10
30.27050336614702
 20
-16.2976346311987
 30
0.0
 10
30.24327964279902
 20
-16.37352224233833
 30
0.0
 10
30.22385917481878
 20
-16.50180760450938
 30
0.0
 10
30.21794963661996
 20
-16.64822965258379
 30
0.0
 10
30.2249860101933
 20
-16.7515170605984
 30
0.0
 10
30.2287175925926
 20
-16.80629321337063
 30
0.0
  0
SPLINE
  5
B3
330
1F
100
AcDbEntity
  8
0
  6
Continuous
 62
     7
370
    15
100
AcDbSpline
210
0.0
220
0.0
230
1.0
 70
     8
 71
     3
 72
    11
 73
     7
 74
     0
 42
0.00000001
 43
0.00000001
 12
1.0
 22
0.0
 32
0.0
 13
1.0
 23
0.0
 33
0.0
 40
0.0
 40
0.0
 40
0.0
 40
0.0
 40
0.166661947106035
 40
0.3910211976019889
 40
0.6666761057879146
 40
1.0
 40
1.0
 40
1.0
 40
1.0
 10
30.2287175925926
 20
-16.80629321337063
 30
0.0
 10
30.23026132173504
 20
-16.8199867310453
 30
0.0
 10
30.23388320920566
 20
-16.85211437489865
 30
0.0
 10
30.238518779069
 20
-16.9070516284385
 30
0.0
 10
30.24748520365885
 20
-16.97538175890091
 30
0.0
 10
30.2526781059669
 20
-17.02546587866129
 30
0.0
 10
30.25552043547454
 20
-17.05287936788452
 30
0.0
  0
SPLINE
  5
B7
330
1F
100
AcDbEntity
  8
0
  6
Continuous
 62
     7
370
    15
100
AcDbSpline
210
0.0
220
0.0
230
1.0
 70
     8
 71
     3
 72
     9
 73
     5
 74
     0
 42
0.00000001
 43
0.00000001
 12
1.0
 22
0.0
 32
0.0
 13
1.0
 23
0.0
 33
0.0
 40
0.0
 40
0.0
 40
0.0
 40
0.0
 40
0.5012548561812868
 40
1.0
 40
1.0
 40
1.0
 40
1.0
 10
31.70287395109954
 20
-17.06717421742156
 30
0.0
 10
31.70986495753604
 20
-17.04010774372242
 30
0.0
 10
31.72381196742589
 20
-16.98611031434021
 30
0.0
 10
31.73607076938183
 20
-16.93170479333569
 30
0.0
 10
31.74218478732639
 20
-16.90457030393776
 30
0.0
  0
SPLINE
  5
B8
330
1F
100
AcDbEntity
  8
0
  6
Continuous
 62
     7
370
    15
100
AcDbSpline
210
0.0
220
0.0
230
1.0
 70
     8
 71
     3
 72
    11
 73
     7
 74
     0
 42
0.00000001
 43
0.00000001
 12
1.0
 22
0.0
 32
0.0
 13
1.0
 23
0.0
 33
0.0
 40
0.0
 40
0.0
 40
0.0
 40
0.0
 40
0.224651500451328
 40
0.4571039761843196
 40
0.7108050054034611
 40
0.9999999999999999
 40
0.9999999999999999
 40
0.9999999999999999
 40
0.9999999999999999
 10
31.74218478732639
 20
-16.90457030393776
 30
0.0
 10
31.75316277435887
 20
-16.88624750229083
 30
0.0
 10
31.77549995667445
 20
-16.84896564363052
 30
0.0
 10
31.82828127145732
 20
-16.8055166122055
 30
0.0
 10
31.89457828121455
 20
-16.77317656317294
 30
0.0
 10
31.94437577787185
 20
-16.76039145055379
 30
0.0
 10
31.97090237991898
 20
-16.75358095570281
 30
0.0
  0
CIRCLE
  5
BB
330
1F
100
AcDbEntity
  8
0
  6
Continuous
 62
     7
370
    15
100
AcDbCircle
 10
103.0
 20
-23.2289929927
 30
0.0
 40
1.700000000000017
  0
CIRCLE
  5
BC
330
1F
100
AcDbEntity
  8
0
  6
Continuous
 62
     7
370
    15
100
AcDbCircle
 10
7.0
 20
-23.2289929927
 30
0.0
 40
1.7
  0
SPLINE
  5
BE
330
1F
100
AcDbEntity
  8
0
  6
Continuous
 62
     7
370
    15
100
AcDbSpline
210
0.0
220
0.0
230
1.0
 70
     8
 71
     3
 72
    15
 73
    11
 74
     0
 42
0.00000001
 43
0.00000001
 12
1.0
 22
0.0
 32
0.0
 13
1.0
 23
0.0
 33
0.0
 40
0.0
 40
0.0
 40
0.0
 40
0.0
 40
0.121198006662959
 40
0.2424108529896717
 40
0.3633711774366321
 40
0.4865709705108883
 40
0.6113951913771194
 40
0.7379841030784383
 40
0.8675733569322178
 40
1.0
 40
1.0
 40
1.0
 40
1.0
 10
30.73529132306135
 20
-18.86921868718429
 30
0.0
 10
30.74517345953747
 20
-18.90068717068955
 30
0.0
 10
30.76493894247316
 20
-18.96362799074788
 30
0.0
 10
30.80430325116017
 20
-19.05440454992956
 30
0.0
 10
30.84778753749941
 20
-19.14381829313893
 30
0.0
 10
30.89931019507871
 20
-19.23003611923866
 30
0.0
 10
30.95528386227894
 20
-19.3152041538982
 30
0.0
 10
31.01803955311831
 20
-19.39778528961569
 30
0.0
 10
31.088027932896
 20
-19.47708338588454
 30
0.0
 10
31.13799121301754
 20
-19.52790076610538
 30
0.0
 10
31.16324338107639
 20
-19.55358460876993
 30
0.0
  0
SPLINE
  5
BF
330
1F
100
AcDbEntity
  8
0
  6
Continuous
 62
     7
370
    15
100
AcDbSpline
210
0.0
220
0.0
230
1.0
 70
     8
 71
     3
 72
    15
 73
    11
 74
     0
 42
0.00000001
 43
0.00000001
 12
1.0
 22
0.0
 32
0.0
 13
1.0
 23
0.0
 33
0.0
 40
0.0
 40
0.0
 40
0.0
 40
0.0
 40
0.1438802801033716
 40
0.2809271154982881
 40
0.4106744872766492
 40
0.536241127253684
 40
0.6548650356186156
 40
0.7712648559194479
 40
0.8858270773685976
 40
0.9999999999999999
 40
0.9999999999999999
 40
0.9999999999999999
 40
0.9999999999999999
 10
31.16324338107639
 20
-19.55358460876993
 30
0.0
 10
31.19236575101014
 20
-19.58079237225328
 30
0.0
 10
31.24922735411574
 20
-19.63391569470614
 30
0.0
 10
31.33838222549771
 20
-19.70480438314985
 30
0.0
 10
31.42951754574024
 20
-19.76422504955184
 30
0.0
 10
31.52081533030406
 20
-19.81338108573418
 30
0.0
 10
31.6132353664229
 20
-19.85176341669759
 30
0.0
 10
31.70645010835806
 20
-19.8784796930878
 30
0.0
 10
31.80083724878509
 20
-19.89535685864695
 30
0.0
 10
31.86421798672442
 20
-19.89741869183775
 30
0.0
 10
31.89585441984954
 20
-19.89844785385095
 30
0.0
  0
SPLINE
  5
D7
330
1F
100
AcDbEntity
  8
0
  6
Continuous
 62
     7
370
    15
100
AcDbSpline
210
0.0
220
0.0
230
1.0
 70
     8
 71
     3
 72
    15
 73
    11
 74
     0
 42
0.00000001
 43
0.00000001
 12
1.0
 22
0.0
 32
0.0
 13
1.0
 23
0.0
 33
0.0
 40
0.0
 40
0.0
 40
0.0
 40
0.0
 40
0.1195262093877591
 40
0.239296609014592
 40
0.3594967224382374
 40
0.4830575883141942
 40
0.6072427949067964
 40
0.7349755644647584
 40
0.8652397005144442
 40
1.0
 40
1.0
 40
1.0
 40
1.0
 10
56.11490324797454
 20
-18.86921868718429
 30
0.0
 10
56.12570693100645
 20
-18.90068848738277
 30
0.0
 10
56.14733636883144
 20
-18.96369238010588
 30
0.0
 10
56.18909881733826
 20
-19.05473390842319
 30
0.0
 10
56.23681724286384
 20
-19.14395853496223
 30
0.0
 10
56.29086856572312
 20
-19.23100146427572
 30
0.0
 10
56.35227273040597
 20
-19.31562139954751
 30
0.0
 10
56.42015793688019
 20
-19.39753164520221
 30
0.0
 10
56.49456307269749
 20
-19.47768481547037
 30
0.0
 10
56.54849082486976
 20
-19.52800014298134
 30
0.0
 10
56.57591214554399
 20
-19.55358460876993
 30
0.0
  0
SPLINE
  5
D8
330
1F
100
AcDbEntity
  8
0
  6
Continuous
 62
     7
370
    15
100
AcDbSpline
210
0.0
220
0.0
230
1.0
 70
     8
 71
     3
 72
    15
 73
    11
 74
     0
 42
0.00000001
 43
0.00000001
 12
1.0
 22
0.0
 32
0.0
 13
1.0
 23
0.0
 33
0.0
 40
0.0
 40
0.0
 40
0.0
 40
0.0
 40
0.1424504440019289
 40
0.2787795844779173
 40
0.4077329822538853
 40
0.5330324498275194
 40
0.6529950329597196
 40
0.7701427114249064
 40
0.88471008331975
 40
0.9999999999999999
 40
0.9999999999999999
 40
0.9999999999999999
 40
0.9999999999999999
 10
56.57591214554399
 20
-19.55358460876993
 30
0.0
 10
56.60741799019178
 20
-19.5808260864311
 30
0.0
 10
56.66907582735105
 20
-19.63413843569157
 30
0.0
 10
56.76529997144654
 20
-19.70474003754873
 30
0.0
 10
56.86282044583242
 20
-19.76432581004916
 30
0.0
 10
56.96058388103295
 20
-19.81373040556186
 30
0.0
 10
57.05972646527543
 20
-19.85163346450808
 30
0.0
 10
57.15910307299463
 20
-19.87841812721414
 30
0.0
 10
57.25939687713076
 20
-19.89541938475498
 30
0.0
 10
57.32662319412471
 20
-19.89743625084671
 30
0.0
 10
57.3603420138889
 20
-19.89844785385096
 30
0.0
  0
SPLINE
  5
DD
330
1F
100
AcDbEntity
  8
0
  6
Continuous
 62
     7
370
    15
100
AcDbSpline
210
0.0
220
0.0
230
1.0
 70
     8
 71
     3
 72
    11
 73
     7
 74
     0
 42
0.00000001
 43
0.00000001
 12
1.0
 22
0.0
 32
0.0
 13
1.0
 23
0.0
 33
0.0
 40
0.0
 40
0.0
 40
0.0
 40
0.0
 40
0.2283954419752473
 40
0.4671115596802846
 40
0.7244179581333069
 40
0.9999999999999999
 40
0.9999999999999999
 40
0.9999999999999999
 40
0.9999999999999999
 10
66.55907769097222
 20
-19.89844785385095
 30
0.0
 10
66.58304449639452
 20
-19.89728550235066
 30
0.0
 10
66.63206111320851
 20
-19.8949082753031
 30
0.0
 10
66.70531382440328
 20
-19.87327277856181
 30
0.0
 10
66.77988331982546
 20
-19.84156689730804
 30
0.0
 10
66.82690929997536
 20
-19.81133696392497
 30
0.0
 10
66.85122867838541
 20
-19.7957036228035
 30
0.0
  0
SPLINE
  5
DE
330
1F
100
AcDbEntity
  8
0
  6
Continuous
 62
     7
370
    15
100
AcDbSpline
210
0.0
220
0.0
230
1.0
 70
     8
 71
     3
 72
    11
 73
     7
 74
     0
 42
0.00000001
 43
0.00000001
 12
1.0
 22
0.0
 32
0.0
 13
1.0
 23
0.0
 33
0.0
 40
0.0
 40
0.0
 40
0.0
 40
0.0
 40
0.2648958411738013
 40
0.5174911528565083
 40
0.7612447442384614
 40
1.0
 40
1.0
 40
1.0
 40
1.0
 10
66.85122867838541
 20
-19.7957036228035
 30
0.0
 10
66.873991441362
 20
-19.77925007460157
 30
0.0
 10
66.9184599705875
 20
-19.74710700436735
 30
0.0
 10
66.97668185871564
 20
-19.69103896323671
 30
0.0
 10
67.02690293307762
 20
-19.63116591338435
 30
0.0
 10
67.05282476722054
 20
-19.58703570472306
 30
0.0
 10
67.06565142144098
 20
-19.56519917401878
 30
0.0
  0
SPLINE
  5
DF
330
1F
100
AcDbEntity
  8
0
  6
Continuous
 62
     7
370
    15
100
AcDbSpline
210
0.0
220
0.0
230
1.0
 70
     8
 71
     3
 72
    15
 73
    11
 74
     0
 42
0.00000001
 43
0.00000001
 12
1.0
 22
0.0
 32
0.0
 13
1.0
 23
0.0
 33
0.0
 40
0.0
 40
0.0
 40
0.0
 40
0.0
 40
0.0860165100326773
 40
0.1833995945071855
 40
0.2897735031960876
 40
0.408814307930677
 40
0.5380332366822295
 40
0.6793420547264065
 40
0.8340983154364866
 40
0.9999999999999999
 40
0.9999999999999999
 40
0.9999999999999999
 40
0.9999999999999999
 10
67.06565142144098
 20
-19.56519917401878
 30
0.0
 10
67.07463983665954
 20
-19.54688926709361
 30
0.0
 10
67.09380443315065
 20
-19.50784990704212
 30
0.0
 10
67.116500904077
 20
-19.44284291264127
 30
0.0
 10
67.13480183497828
 20
-19.36853042791109
 30
0.0
 10
67.15115117764086
 20
-19.28603234497561
 30
0.0
 10
67.16195663161885
 20
-19.19429077431796
 30
0.0
 10
67.1711821786612
 20
-19.09392417351138
 30
0.0
 10
67.17635430178693
 20
-18.98452440768494
 30
0.0
 10
67.17699727342892
 20
-18.9085343477895
 30
0.0
 10
67.17732993344907
 20
-18.86921868718429
 30
0.0
  0
SPLINE
  5
F1
330
1F
100
AcDbEntity
  8
0
  6
Continuous
 62
     7
370
    15
100
AcDbSpline
210
0.0
220
0.0
230
1.0
 70
     8
 71
     3
 72
    15
 73
    11
 74
     0
 42
0.00000001
 43
0.00000001
 12
1.0
 22
0.0
 32
0.0
 13
1.0
 23
0.0
 33
0.0
 40
0.0
 40
0.0
 40
0.0
 40
0.0
 40
0.1195262093877592
 40
0.2392966090145923
 40
0.3594967224382417
 40
0.4830575883141942
 40
0.6072427949068014
 40
0.7349755644647582
 40
0.8652397005144442
 40
1.0
 40
1.0
 40
1.0
 40
1.0
 10
79.2153800998264
 20
-18.86921868718429
 30
0.0
 10
79.22618378285831
 20
-18.90068848738279
 30
0.0
 10
79.24781322068333
 20
-18.96369238010588
 30
0.0
 10
79.28957566919011
 20
-19.05473390842319
 30
0.0
 10
79.33729409471567
 20
-19.14395853496222
 30
0.0
 10
79.39134541757501
 20
-19.23100146427574
 30
0.0
 10
79.4527495822578
 20
-19.3156213995475
 30
0.0
 10
79.52063478873205
 20
-19.39753164520222
 30
0.0
 10
79.59503992454933
 20
-19.47768481547036
 30
0.0
 10
79.6489676767216
 20
-19.52800014298134
 30
0.0
 10
79.67638899739583
 20
-19.55358460876993
 30
0.0
  0
SPLINE
  5
F2
330
1F
100
AcDbEntity
  8
0
  6
Continuous
 62
     7
370
    15
100
AcDbSpline
210
0.0
220
0.0
230
1.0
 70
     8
 71
     3
 72
    15
 73
    11
 74
     0
 42
0.00000001
 43
0.00000001
 12
1.0
 22
0.0
 32
0.0
 13
1.0
 23
0.0
 33
0.0
 40
0.0
 40
0.0
 40
0.0
 40
0.0
 40
0.142450444001928
 40
0.2787795844779156
 40
0.4077329822538964
 40
0.5330324498275296
 40
0.6529950329597143
 40
0.7701427114249156
 40
0.8847100833197507
 40
0.9999999999999999
 40
0.9999999999999999
 40
0.9999999999999999
 40
0.9999999999999999
 10
79.67638899739583
 20
-19.55358460876993
 30
0.0
 10
79.70789484204364
 20
-19.5808260864311
 30
0.0
 10
79.76955267920292
 20
-19.63413843569158
 30
0.0
 10
79.86577682329836
 20
-19.70474003754873
 30
0.0
 10
79.96329729768428
 20
-19.76432581004916
 30
0.0
 10
80.06106073288483
 20
-19.81373040556186
 30
0.0
 10
80.16020331712728
 20
-19.85163346450808
 30
0.0
 10
80.2595799248465
 20
-19.87841812721414
 30
0.0
 10
80.3598737289826
 20
-19.89541938475497
 30
0.0
 10
80.42710004597653
 20
-19.8974362508467
 30
0.0
 10
80.46081886574075
 20
-19.89844785385095
 30
0.0
  0
CIRCLE
  5
F5
330
1F
100
AcDbEntity
  8
0
  6
Continuous
 62
     7
370
    15
100
AcDbCircle
 10
132.3189929927
 20
-3.6469929927
 30
0.0
 40
1.699999999999994
  0
CIRCLE
  5
F6
330
1F
100
AcDbEntity
  8
0
  6
Continuous
 62
     7
370
    15
100
AcDbCircle
 10
-22.3189929927
 20
-3.6469929927
 30
0.0
 40
1.7
  0
CIRCLE
  5
F7
330
1F
100
AcDbEntity
  8
0
  6
Continuous
 62
     7
370
    15
100
AcDbCircle
 10
102.238
 20
7.762
 30
0.0
 40
1.700000000000015
  0
CIRCLE
  5
F8
330
1F
100
AcDbEntity
  8
0
  6
Continuous
 62
     7
370
    15
100
AcDbCircle
 10
102.238
 20
62.238
 30
0.0
 40
1.700000000000017
  0
CIRCLE
  5
F9
330
1F
100
AcDbEntity
  8
0
  6
Continuous
 62
     7
370
    15
100
AcDbCircle
 10
7.762
 20
7.762
 30
0.0
 40
1.699999999999987
  0
CIRCLE
  5
11C
330
1F
100
AcDbEntity
  8
0
  6
Continuous
 62
     7
370
    15
100
AcDbCircle
 10
7.762
 20
62.238
 30
0.0
 40
1.699999999999982
  0
LINE
  5
13D
330
1F
100
AcDbEntity
  8
0
  6
Continuous
 62
     7
370
    15
100
AcDbLine
 10
81.6767745045
 20
-15.6099929927
 30
0.0
 11
78.3165914352
 21
-15.6189272737
 31
0.0
  0
LINE
  5
13E
330
1F
100
AcDbEntity
  8
0
  6
Continuous
 62
     7
370
    15
100
AcDbLine
 10
78.3165914352
 20
-15.6189272737
 30
0.0
 11
78.6462664026
 21
-16.7893180795
 31
0.0
  0
LINE
  5
13F
330
1F
100
AcDbEntity
  8
0
  6
Continuous
 62
     7
370
    15
100
AcDbLine
 10
78.6462664026
 20
-16.7893180795
 30
0.0
 11
80.9870480143
 21
-16.7535809557
 31
0.0
  0
LINE
  5
140
330
1F
100
AcDbEntity
  8
0
  6
Continuous
 62
     7
370
    15
100
AcDbLine
 10
81.0594156901
 20
-17.3825543353
 30
0.0
 11
79.8631154695
 21
-17.3825543353
 31
0.0
  0
LINE
  5
141
330
1F
100
AcDbEntity
  8
0
  6
Continuous
 62
     7
370
    15
100
AcDbLine
 10
79.1090621564
 20
-18.411783502
 30
0.0
 11
81.8277638527
 21
-18.411783502
 31
0.0
  0
LINE
  5
142
330
1F
100
AcDbEntity
  8
0
  6
Continuous
 62
     7
370
    15
100
AcDbLine
 10
77.6206109484
 20
-15.6099929927
 30
0.0
 11
76.0705132017
 21
-15.6099929927
 31
0.0
  0
LINE
  5
143
330
1F
100
AcDbEntity
  8
0
  6
Continuous
 62
     7
370
    15
100
AcDbLine
 10
76.0705132017
 20
-15.6099929927
 30
0.0
 11
76.5467103769
 21
-17.3226946529
 31
0.0
  0
LINE
  5
144
330
1F
100
AcDbEntity
  8
0
  6
Continuous
 62
     7
370
    15
100
AcDbLine
 10
76.5467103769
 20
-17.3226946529
 30
0.0
 11
75.6425611437
 21
-18.1455419294
 31
0.0
  0
LINE
  5
145
330
1F
100
AcDbEntity
  8
0
  6
Continuous
 62
     7
370
    15
100
AcDbLine
 10
75.6425611437
 20
-18.1455419294
 30
0.0
 11
74.9242449544
 21
-15.6099929927
 31
0.0
  0
LINE
  5
146
330
1F
100
AcDbEntity
  8
0
  6
Continuous
 62
     7
370
    15
100
AcDbLine
 10
74.9242449544
 20
-15.6099929927
 30
0.0
 11
73.5135219907
 21
-15.6099929927
 31
0.0
  0
LINE
  5
147
330
1F
100
AcDbEntity
  8
0
  6
Continuous
 62
     7
370
    15
100
AcDbLine
 10
73.5135219907
 20
-15.6099929927
 30
0.0
 11
74.2854438657
 21
-18.4323323482
 31
0.0
  0
LINE
  5
148
330
1F
100
AcDbEntity
  8
0
  6
Continuous
 62
     7
370
    15
100
AcDbLine
 10
74.2854438657
 20
-18.4323323482
 30
0.0
 11
78.371090549
 21
-18.4323323482
 31
0.0
  0
LINE
  5
149
330
1F
100
AcDbEntity
  8
0
  6
Continuous
 62
     7
370
    15
100
AcDbLine
 10
78.371090549
 20
-18.4323323482
 30
0.0
 11
77.6206109484
 21
-15.6099929927
 31
0.0
  0
LINE
  5
14A
330
1F
100
AcDbEntity
  8
0
  6
Continuous
 62
     7
370
    15
100
AcDbLine
 10
72.7281986943
 20
-15.6099929927
 30
0.0
 11
71.2263460648
 21
-15.6099929927
 31
0.0
  0
LINE
  5
14B
330
1F
100
AcDbEntity
  8
0
  6
Continuous
 62
     7
370
    15
100
AcDbLine
 10
71.2263460648
 20
-15.6099929927
 30
0.0
 11
72.0098825051
 21
-18.4323323482
 31
0.0
  0
LINE
  5
14C
330
1F
100
AcDbEntity
  8
0
  6
Continuous
 62
     7
370
    15
100
AcDbLine
 10
72.0098825051
 20
-18.4323323482
 30
0.0
 11
73.5028008536
 21
-18.4323323482
 31
0.0
  0
LINE
  5
14D
330
1F
100
AcDbEntity
  8
0
  6
Continuous
 62
     7
370
    15
100
AcDbLine
 10
73.5028008536
 20
-18.4323323482
 30
0.0
 11
72.7281986943
 21
-15.6099929927
 31
0.0
  0
LINE
  5
14E
330
1F
100
AcDbEntity
  8
0
  6
Continuous
 62
     7
370
    15
100
AcDbLine
 10
70.8636142578
 20
-17.268195539
 30
0.0
 11
68.8623353226
 21
-17.268195539
 31
0.0
  0
LINE
  5
14F
330
1F
100
AcDbEntity
  8
0
  6
Continuous
 62
     7
370
    15
100
AcDbLine
 10
68.8623353226
 20
-17.268195539
 30
0.0
 11
68.6961576968
 21
-16.6964015576
 31
0.0
  0
LINE
  5
150
330
1F
100
AcDbEntity
  8
0
  6
Continuous
 62
     7
370
    15
100
AcDbLine
 10
68.6961576968
 20
-16.6964015576
 30
0.0
 11
70.688502351
 21
-16.6964015576
 31
0.0
  0
LINE
  5
151
330
1F
100
AcDbEntity
  8
0
  6
Continuous
 62
     7
370
    15
100
AcDbLine
 10
70.688502351
 20
-16.6964015576
 30
0.0
 11
70.3900973669
 21
-15.6099929927
 31
0.0
  0
LINE
  5
152
330
1F
100
AcDbEntity
  8
0
  6
Continuous
 62
     7
370
    15
100
AcDbLine
 10
70.3900973669
 20
-15.6099929927
 30
0.0
 11
66.7663530093
 21
-15.6099929927
 31
0.0
  0
LINE
  5
153
330
1F
100
AcDbEntity
  8
0
  6
Continuous
 62
     7
370
    15
100
AcDbLine
 10
66.7663530093
 20
-15.6099929927
 30
0.0
 11
67.5204063223
 21
-18.411783502
 31
0.0
  0
LINE
  5
154
330
1F
100
AcDbEntity
  8
0
  6
Continuous
 62
     7
370
    15
100
AcDbLine
 10
67.5204063223
 20
-18.411783502
 30
0.0
 11
71.1620192419
 21
-18.411783502
 31
0.0
  0
LINE
  5
155
330
1F
100
AcDbEntity
  8
0
  6
Continuous
 62
     7
370
    15
100
AcDbLine
 10
71.1620192419
 20
-18.411783502
 30
0.0
 11
70.8636142578
 21
-17.268195539
 31
0.0
  0
LINE
  5
156
330
1F
100
AcDbEntity
  8
0
  6
Continuous
 62
     7
370
    15
100
AcDbLine
 10
66.1579284758
 20
-15.6099929927
 30
0.0
 11
64.774008355
 21
-15.6099929927
 31
0.0
  0
LINE
  5
157
330
1F
100
AcDbEntity
  8
0
  6
Continuous
 62
     7
370
    15
100
AcDbLine
 10
64.774008355
 20
-15.6099929927
 30
0.0
 11
65.2680740922
 21
-17.268195539
 31
0.0
  0
LINE
  5
158
330
1F
100
AcDbEntity
  8
0
  6
Continuous
 62
     7
370
    15
100
AcDbLine
 10
65.2680740922
 20
-17.268195539
 30
0.0
 11
63.8117862956
 21
-17.268195539
 31
0.0
  0
LINE
  5
159
330
1F
100
AcDbEntity
  8
0
  6
Continuous
 62
     7
370
    15
100
AcDbLine
 10
63.8117862956
 20
-17.268195539
 30
0.0
 11
63.2873440032
 21
-15.6099929927
 31
0.0
  0
LINE
  5
15A
330
1F
100
AcDbEntity
  8
0
  6
Continuous
 62
     7
370
    15
100
AcDbLine
 10
63.2873440032
 20
-15.6099929927
 30
0.0
 11
61.8489247685
 21
-15.6099929927
 31
0.0
  0
LINE
  5
15B
330
1F
100
AcDbEntity
  8
0
  6
Continuous
 62
     7
370
    15
100
AcDbLine
 10
61.8489247685
 20
-15.6099929927
 30
0.0
 11
62.6780260417
 21
-18.411783502
 31
0.0
  0
LINE
  5
15C
330
1F
100
AcDbEntity
  8
0
  6
Continuous
 62
     7
370
    15
100
AcDbLine
 10
62.6780260417
 20
-18.411783502
 30
0.0
 11
67.1049622577
 21
-18.411783502
 31
0.0
  0
LINE
  5
15D
330
1F
100
AcDbEntity
  8
0
  6
Continuous
 62
     7
370
    15
100
AcDbLine
 10
58.5762976526
 20
-15.6099929927
 30
0.0
 11
55.2161145833
 21
-15.6189272737
 31
0.0
  0
LINE
  5
15E
330
1F
100
AcDbEntity
  8
0
  6
Continuous
 62
     7
370
    15
100
AcDbLine
 10
55.2161145833
 20
-15.6189272737
 30
0.0
 11
55.5457895508
 21
-16.7893180795
 31
0.0
  0
LINE
  5
15F
330
1F
100
AcDbEntity
  8
0
  6
Continuous
 62
     7
370
    15
100
AcDbLine
 10
55.5457895508
 20
-16.7893180795
 30
0.0
 11
57.8865711625
 21
-16.7535809557
 31
0.0
  0
LINE
  5
160
330
1F
100
AcDbEntity
  8
0
  6
Continuous
 62
     7
370
    15
100
AcDbLine
 10
57.9589388383
 20
-17.3825543353
 30
0.0
 11
56.7626386176
 21
-17.3825543353
 31
0.0
  0
LINE
  5
161
330
1F
100
AcDbEntity
  8
0
  6
Continuous
 62
     7
370
    15
100
AcDbLine
 10
56.0085853045
 20
-18.411783502
 30
0.0
 11
58.7272870009
 21
-18.411783502
 31
0.0
  0
LINE
  5
162
330
1F
100
AcDbEntity
  8
0
  6
Continuous
 62
     7
370
    15
100
AcDbLine
 10
55.5323881293
 20
-19.955627252
 30
0.0
 11
54.8775053349
 21
-18.2402453076
 31
0.0
  0
LINE
  5
163
330
1F
100
AcDbEntity
  8
0
  6
Continuous
 62
     7
370
    15
100
AcDbLine
 10
54.8775053349
 20
-18.2402453076
 30
0.0
 11
53.7750150644
 21
-18.2402453076
 31
0.0
  0
LINE
  5
164
330
1F
100
AcDbEntity
  8
0
  6
Continuous
 62
     7
370
    15
100
AcDbLine
 10
53.7750150644
 20
-18.2402453076
 30
0.0
 11
54.4298978588
 21
-19.955627252
 31
0.0
  0
LINE
  5
165
330
1F
100
AcDbEntity
  8
0
  6
Continuous
 62
     7
370
    15
100
AcDbLine
 10
54.4298978588
 20
-19.955627252
 30
0.0
 11
55.5323881293
 21
-19.955627252
 31
0.0
  0
LINE
  5
166
330
1F
100
AcDbEntity
  8
0
  6
Continuous
 62
     7
370
    15
100
AcDbLine
 10
50.4058977141
 20
-18.8692186872
 30
0.0
 11
48.9406756366
 21
-18.8692186872
 31
0.0
  0
LINE
  5
167
330
1F
100
AcDbEntity
  8
0
  6
Continuous
 62
     7
370
    15
100
AcDbLine
 10
48.9406756366
 20
-18.8692186872
 30
0.0
 11
49.2364003364
 21
-19.8984478539
 31
0.0
  0
LINE
  5
168
330
1F
100
AcDbEntity
  8
0
  6
Continuous
 62
     7
370
    15
100
AcDbLine
 10
49.2364003364
 20
-19.8984478539
 30
0.0
 11
50.7016224139
 21
-19.8984478539
 31
0.0
  0
LINE
  5
169
330
1F
100
AcDbEntity
  8
0
  6
Continuous
 62
     7
370
    15
100
AcDbLine
 10
50.7016224139
 20
-19.8984478539
 30
0.0
 11
50.4058977141
 21
-18.8692186872
 31
0.0
  0
LINE
  5
16A
330
1F
100
AcDbEntity
  8
0
  6
Continuous
 62
     7
370
    15
100
AcDbLine
 10
43.4648548358
 20
-18.8692186872
 30
0.0
 11
44.1188442021
 21
-19.8984478539
 31
0.0
  0
LINE
  5
16B
330
1F
100
AcDbEntity
  8
0
  6
Continuous
 62
     7
370
    15
100
AcDbLine
 10
44.1188442021
 20
-19.8984478539
 30
0.0
 11
47.6326969039
 21
-19.8984478539
 31
0.0
  0
LINE
  5
16C
330
1F
100
AcDbEntity
  8
0
  6
Continuous
 62
     7
370
    15
100
AcDbLine
 10
48.2509491464
 20
-18.8692186872
 30
0.0
 11
43.4648548358
 21
-18.8692186872
 31
0.0
  0
LINE
  5
16D
330
1F
100
AcDbEntity
  8
0
  6
Continuous
 62
     7
370
    15
100
AcDbLine
 10
37.4628048864
 20
-15.6099929927
 30
0.0
 11
34.4599930556
 21
-15.6099929927
 31
0.0
  0
LINE
  5
16E
330
1F
100
AcDbEntity
  8
0
  6
Continuous
 62
     7
370
    15
100
AcDbLine
 10
34.4599930556
 20
-15.6099929927
 30
0.0
 11
35.2560374891
 21
-18.4323323482
 31
0.0
  0
LINE
  5
16F
330
1F
100
AcDbEntity
  8
0
  6
Continuous
 62
     7
370
    15
100
AcDbLine
 10
35.2560374891
 20
-18.4323323482
 30
0.0
 11
36.7543164062
 21
-18.4323323482
 31
0.0
  0
LINE
  5
170
330
1F
100
AcDbEntity
  8
0
  6
Continuous
 62
     7
370
    15
100
AcDbLine
 10
36.7543164062
 20
-18.4323323482
 30
0.0
 11
36.259357241
 21
-16.6392221594
 31
0.0
  0
LINE
  5
171
330
1F
100
AcDbEntity
  8
0
  6
Continuous
 62
     7
370
    15
100
AcDbLine
 10
36.259357241
 20
-16.6392221594
 30
0.0
 11
38.1133583133
 21
-16.6392221594
 31
0.0
  0
LINE
  5
172
330
1F
100
AcDbEntity
  8
0
  6
Continuous
 62
     7
370
    15
100
AcDbLine
 10
38.1133583133
 20
-16.6392221594
 30
0.0
 11
39.5293040726
 21
-18.4689629001
 31
0.0
  0
LINE
  5
173
330
1F
100
AcDbEntity
  8
0
  6
Continuous
 62
     7
370
    15
100
AcDbLine
 10
39.5293040726
 20
-18.4689629001
 30
0.0
 11
42.610737576
 21
-18.4689629001
 31
0.0
  0
LINE
  5
174
330
1F
100
AcDbEntity
  8
0
  6
Continuous
 62
     7
370
    15
100
AcDbLine
 10
42.610737576
 20
-18.4689629001
 30
0.0
 11
43.0925892882
 21
-16.1846288569
 31
0.0
  0
LINE
  5
175
330
1F
100
AcDbEntity
  8
0
  6
Continuous
 62
     7
370
    15
100
AcDbLine
 10
43.0925892882
 20
-16.1846288569
 30
0.0
 11
43.7516452546
 21
-18.411783502
 31
0.0
  0
LINE
  5
176
330
1F
100
AcDbEntity
  8
0
  6
Continuous
 62
     7
370
    15
100
AcDbLine
 10
43.7516452546
 20
-18.411783502
 30
0.0
 11
48.1785814706
 21
-18.411783502
 31
0.0
  0
LINE
  5
177
330
1F
100
AcDbEntity
  8
0
  6
Continuous
 62
     7
370
    15
100
AcDbLine
 10
47.2315476888
 20
-15.6099929927
 30
0.0
 11
45.847627568
 21
-15.6099929927
 31
0.0
  0
LINE
  5
178
330
1F
100
AcDbEntity
  8
0
  6
Continuous
 62
     7
370
    15
100
AcDbLine
 10
45.847627568
 20
-15.6099929927
 30
0.0
 11
46.3416933051
 21
-17.268195539
 31
0.0
  0
LINE
  5
179
330
1F
100
AcDbEntity
  8
0
  6
Continuous
 62
     7
370
    15
100
AcDbLine
 10
46.3416933051
 20
-17.268195539
 30
0.0
 11
44.8854055085
 21
-17.268195539
 31
0.0
  0
LINE
  5
17A
330
1F
100
AcDbEntity
  8
0
  6
Continuous
 62
     7
370
    15
100
AcDbLine
 10
44.8854055085
 20
-17.268195539
 30
0.0
 11
44.3609632161
 21
-15.6099929927
 31
0.0
  0
LINE
  5
17B
330
1F
100
AcDbEntity
  8
0
  6
Continuous
 62
     7
370
    15
100
AcDbLine
 10
44.3609632161
 20
-15.6099929927
 30
0.0
 11
41.6637037941
 21
-15.6099929927
 31
0.0
  0
LINE
  5
17C
330
1F
100
AcDbEntity
  8
0
  6
Continuous
 62
     7
370
    15
100
AcDbLine
 10
41.6637037941
 20
-15.6099929927
 30
0.0
 11
41.2446860171
 21
-17.3253749372
 31
0.0
  0
LINE
  5
17D
330
1F
100
AcDbEntity
  8
0
  6
Continuous
 62
     7
370
    15
100
AcDbLine
 10
41.2446860171
 20
-17.3253749372
 30
0.0
 11
40.370019911
 21
-17.3253749372
 31
0.0
  0
LINE
  5
17E
330
1F
100
AcDbEntity
  8
0
  6
Continuous
 62
     7
370
    15
100
AcDbLine
 10
40.370019911
 20
-17.3253749372
 30
0.0
 11
39.1281548575
 21
-15.6099929927
 31
0.0
  0
LINE
  5
17F
330
1F
100
AcDbEntity
  8
0
  6
Continuous
 62
     7
370
    15
100
AcDbLine
 10
39.1281548575
 20
-15.6099929927
 30
0.0
 11
37.4648690207
 21
-15.6124571199
 31
0.0
  0
LINE
  5
180
330
1F
100
AcDbEntity
  8
0
  6
Continuous
 62
     7
370
    15
100
AcDbLine
 10
37.4648690207
 20
-15.6124571199
 30
0.0
 11
37.4628048864
 21
-15.6099929927
 31
0.0
  0
LINE
  5
181
330
1F
100
AcDbEntity
  8
0
  6
Continuous
 62
     7
370
    15
100
AcDbLine
 10
33.5388686885
 20
-15.6099929927
 30
0.0
 11
31.5822611581
 21
-15.6099929927
 31
0.0
  0
LINE
  5
182
330
1F
100
AcDbEntity
  8
0
  6
Continuous
 62
     7
370
    15
100
AcDbLine
 10
30.2555204355
 20
-17.0528793679
 30
0.0
 11
30.6146785301
 21
-18.4233980672
 31
0.0
  0
LINE
  5
183
330
1F
100
AcDbEntity
  8
0
  6
Continuous
 62
     7
370
    15
100
AcDbLine
 10
30.6146785301
 20
-18.4233980672
 30
0.0
 11
32.1460142867
 21
-18.4323323482
 31
0.0
  0
LINE
  5
184
330
1F
100
AcDbEntity
  8
0
  6
Continuous
 62
     7
370
    15
100
AcDbLine
 10
32.1460142867
 20
-18.4323323482
 30
0.0
 11
31.7028739511
 21
-17.0671742174
 31
0.0
  0
LINE
  5
185
330
1F
100
AcDbEntity
  8
0
  6
Continuous
 62
     7
370
    15
100
AcDbLine
 10
31.9709023799
 20
-16.7535809557
 30
0.0
 11
33.8613962312
 21
-16.7535809557
 31
0.0
  0
LINE
  5
186
330
1F
100
AcDbEntity
  8
0
  6
Continuous
 62
     7
370
    15
100
AcDbLine
 10
33.8613962312
 20
-16.7535809557
 30
0.0
 11
33.5388686885
 21
-15.6099929927
 31
0.0
  0
LINE
  5
187
330
1F
100
AcDbEntity
  8
0
  6
Continuous
 62
     7
370
    15
100
AcDbLine
 10
34.4314033565
 20
-18.8692186872
 30
0.0
 11
30.7352913231
 21
-18.8692186872
 31
0.0
  0
LINE
  5
188
330
1F
100
AcDbEntity
  8
0
  6
Continuous
 62
     7
370
    15
100
AcDbLine
 10
31.8958544198
 20
-19.8984478539
 30
0.0
 11
34.7360623372
 21
-19.8984478539
 31
0.0
  0
LINE
  5
189
330
1F
100
AcDbEntity
  8
0
  6
Continuous
 62
     7
370
    15
100
AcDbLine
 10
34.7360623372
 20
-19.8984478539
 30
0.0
 11
34.4314033565
 21
-18.8692186872
 31
0.0
  0
LINE
  5
18A
330
1F
100
AcDbEntity
  8
0
  6
Continuous
 62
     7
370
    15
100
AcDbLine
 10
36.8570606373
 20
-18.8692186872
 30
0.0
 11
35.3614620045
 21
-18.8692186872
 31
0.0
  0
LINE
  5
18B
330
1F
100
AcDbEntity
  8
0
  6
Continuous
 62
     7
370
    15
100
AcDbLine
 10
35.3614620045
 20
-18.8692186872
 30
0.0
 11
35.6446787109
 21
-19.8895135729
 31
0.0
  0
LINE
  5
18C
330
1F
100
AcDbEntity
  8
0
  6
Continuous
 62
     7
370
    15
100
AcDbLine
 10
35.6446787109
 20
-19.8895135729
 30
0.0
 11
37.1617196181
 21
-19.8984478539
 31
0.0
  0
LINE
  5
18D
330
1F
100
AcDbEntity
  8
0
  6
Continuous
 62
     7
370
    15
100
AcDbLine
 10
37.1617196181
 20
-19.8984478539
 30
0.0
 11
36.8570606373
 21
-18.8692186872
 31
0.0
  0
LINE
  5
18E
330
1F
100
AcDbEntity
  8
0
  6
Continuous
 62
     7
370
    15
100
AcDbLine
 10
39.8607658963
 20
-18.8692186872
 30
0.0
 11
40.7470465676
 21
-19.8984478539
 31
0.0
  0
LINE
  5
18F
330
1F
100
AcDbEntity
  8
0
  6
Continuous
 62
     7
370
    15
100
AcDbLine
 10
40.7470465676
 20
-19.8984478539
 30
0.0
 11
42.3060785952
 21
-19.8984478539
 31
0.0
  0
LINE
  5
190
330
1F
100
AcDbEntity
  8
0
  6
Continuous
 62
     7
370
    15
100
AcDbLine
 10
42.3060785952
 20
-19.8984478539
 30
0.0
 11
42.5258619068
 21
-18.8692186872
 31
0.0
  0
LINE
  5
191
330
1F
100
AcDbEntity
  8
0
  6
Continuous
 62
     7
370
    15
100
AcDbLine
 10
42.5258619068
 20
-18.8692186872
 30
0.0
 11
39.8607658963
 21
-18.8692186872
 31
0.0
  0
LINE
  5
192
330
1F
100
AcDbEntity
  8
0
  6
Continuous
 62
     7
370
    15
100
AcDbLine
 10
52.5921162652
 20
-18.8692186872
 30
0.0
 11
50.804366645
 21
-18.8692186872
 31
0.0
  0
LINE
  5
193
330
1F
100
AcDbEntity
  8
0
  6
Continuous
 62
     7
370
    15
100
AcDbLine
 10
50.804366645
 20
-18.8692186872
 30
0.0
 11
51.8085798249
 21
-19.8984478539
 31
0.0
  0
LINE
  5
194
330
1F
100
AcDbEntity
  8
0
  6
Continuous
 62
     7
370
    15
100
AcDbLine
 10
51.8085798249
 20
-19.8984478539
 30
0.0
 11
53.5784608832
 21
-19.8984478539
 31
0.0
  0
LINE
  5
195
330
1F
100
AcDbEntity
  8
0
  6
Continuous
 62
     7
370
    15
100
AcDbLine
 10
53.5784608832
 20
-19.8984478539
 30
0.0
 11
52.5921162652
 21
-18.8692186872
 31
0.0
  0
LINE
  5
196
330
1F
100
AcDbEntity
  8
0
  6
Continuous
 62
     7
370
    15
100
AcDbLine
 10
50.869586896
 20
-15.6099929927
 30
0.0
 11
49.9984945023
 21
-17.3352026462
 31
0.0
  0
LINE
  5
197
330
1F
100
AcDbEntity
  8
0
  6
Continuous
 62
     7
370
    15
100
AcDbLine
 10
49.9984945023
 20
-17.3352026462
 30
0.0
 11
49.5044287652
 21
-15.6099929927
 31
0.0
  0
LINE
  5
198
330
1F
100
AcDbEntity
  8
0
  6
Continuous
 62
     7
370
    15
100
AcDbLine
 10
49.5044287652
 20
-15.6099929927
 30
0.0
 11
48.0115104167
 21
-15.6099929927
 31
0.0
  0
LINE
  5
199
330
1F
100
AcDbEntity
  8
0
  6
Continuous
 62
     7
370
    15
100
AcDbLine
 10
48.0115104167
 20
-15.6099929927
 30
0.0
 11
48.8254234122
 21
-18.4323323482
 31
0.0
  0
LINE
  5
19A
330
1F
100
AcDbEntity
  8
0
  6
Continuous
 62
     7
370
    15
100
AcDbLine
 10
48.8254234122
 20
-18.4323323482
 30
0.0
 11
52.2177698929
 21
-18.4323323482
 31
0.0
  0
LINE
  5
19B
330
1F
100
AcDbEntity
  8
0
  6
Continuous
 62
     7
370
    15
100
AcDbLine
 10
52.2177698929
 20
-18.4323323482
 30
0.0
 11
51.3922423322
 21
-17.5978705065
 31
0.0
  0
LINE
  5
19C
330
1F
100
AcDbEntity
  8
0
  6
Continuous
 62
     7
370
    15
100
AcDbLine
 10
51.3922423322
 20
-17.5978705065
 30
0.0
 11
52.4107503617
 21
-15.6099929927
 31
0.0
  0
LINE
  5
19D
330
1F
100
AcDbEntity
  8
0
  6
Continuous
 62
     7
370
    15
100
AcDbLine
 10
52.4107503617
 20
-15.6099929927
 30
0.0
 11
50.869586896
 21
-15.6099929927
 31
0.0
  0
LINE
  5
19E
330
1F
100
AcDbEntity
  8
0
  6
Continuous
 62
     7
370
    15
100
AcDbLine
 10
60.1192479745
 20
-18.8692186872
 30
0.0
 11
56.114903248
 21
-18.8692186872
 31
0.0
  0
LINE
  5
19F
330
1F
100
AcDbEntity
  8
0
  6
Continuous
 62
     7
370
    15
100
AcDbLine
 10
57.3603420139
 20
-19.8984478539
 30
0.0
 11
60.3935304
 21
-19.8984478539
 31
0.0
  0
LINE
  5
1A0
330
1F
100
AcDbEntity
  8
0
  6
Continuous
 62
     7
370
    15
100
AcDbLine
 10
60.3935304
 20
-19.8984478539
 30
0.0
 11
60.1192479745
 21
-18.8692186872
 31
0.0
  0
LINE
  5
1A1
330
1F
100
AcDbEntity
  8
0
  6
Continuous
 62
     7
370
    15
100
AcDbLine
 10
62.3912356228
 20
-18.8692186872
 30
0.0
 11
63.0452249891
 21
-19.8984478539
 31
0.0
  0
LINE
  5
1A2
330
1F
100
AcDbEntity
  8
0
  6
Continuous
 62
     7
370
    15
100
AcDbLine
 10
63.0452249891
 20
-19.8984478539
 30
0.0
 11
66.559077691
 21
-19.8984478539
 31
0.0
  0
LINE
  5
1A3
330
1F
100
AcDbEntity
  8
0
  6
Continuous
 62
     7
370
    15
100
AcDbLine
 10
67.1773299334
 20
-18.8692186872
 30
0.0
 11
62.3912356228
 21
-18.8692186872
 31
0.0
  0
LINE
  5
1A4
330
1F
100
AcDbEntity
  8
0
  6
Continuous
 62
     7
370
    15
100
AcDbLine
 10
71.2888860315
 20
-18.8692186872
 30
0.0
 11
67.2666727431
 21
-18.8692186872
 31
0.0
  0
LINE
  5
1A5
330
1F
100
AcDbEntity
  8
0
  6
Continuous
 62
     7
370
    15
100
AcDbLine
 10
67.2666727431
 20
-18.8692186872
 30
0.0
 11
67.9295963903
 21
-19.8984478539
 31
0.0
  0
LINE
  5
1A6
330
1F
100
AcDbEntity
  8
0
  6
Continuous
 62
     7
370
    15
100
AcDbLine
 10
67.9295963903
 20
-19.8984478539
 30
0.0
 11
71.563168457
 21
-19.8984478539
 31
0.0
  0
LINE
  5
1A7
330
1F
100
AcDbEntity
  8
0
  6
Continuous
 62
     7
370
    15
100
AcDbLine
 10
71.563168457
 20
-19.8984478539
 30
0.0
 11
71.2888860315
 21
-18.8692186872
 31
0.0
  0
LINE
  5
1A8
330
1F
100
AcDbEntity
  8
0
  6
Continuous
 62
     7
370
    15
100
AcDbLine
 10
73.5939305194
 20
-18.8692186872
 30
0.0
 11
72.1072661675
 21
-18.8692186872
 31
0.0
  0
LINE
  5
1A9
330
1F
100
AcDbEntity
  8
0
  6
Continuous
 62
     7
370
    15
100
AcDbLine
 10
72.1072661675
 20
-18.8692186872
 30
0.0
 11
72.4029908673
 21
-19.8984478539
 31
0.0
  0
LINE
  5
1AA
330
1F
100
AcDbEntity
  8
0
  6
Continuous
 62
     7
370
    15
100
AcDbLine
 10
72.4029908673
 20
-19.8984478539
 30
0.0
 11
73.8771472258
 21
-19.8984478539
 31
0.0
  0
LINE
  5
1AB
330
1F
100
AcDbEntity
  8
0
  6
Continuous
 62
     7
370
    15
100
AcDbLine
 10
73.8771472258
 20
-19.8984478539
 30
0.0
 11
73.5939305194
 21
-18.8692186872
 31
0.0
  0
LINE
  5
1AC
330
1F
100
AcDbEntity
  8
0
  6
Continuous
 62
     7
370
    15
100
AcDbLine
 10
78.4550727901
 20
-18.8692186872
 30
0.0
 11
74.408736943
 21
-18.8692186872
 31
0.0
  0
LINE
  5
1AD
330
1F
100
AcDbEntity
  8
0
  6
Continuous
 62
     7
370
    15
100
AcDbLine
 10
74.408736943
 20
-18.8692186872
 30
0.0
 11
74.7008879304
 21
-19.8984478539
 31
0.0
  0
LINE
  5
1AE
330
1F
100
AcDbEntity
  8
0
  6
Continuous
 62
     7
370
    15
100
AcDbLine
 10
74.7008879304
 20
-19.8984478539
 30
0.0
 11
76.1035700412
 21
-19.8984478539
 31
0.0
  0
LINE
  5
1AF
330
1F
100
AcDbEntity
  8
0
  6
Continuous
 62
     7
370
    15
100
AcDbLine
 10
76.1035700412
 20
-19.8984478539
 30
0.0
 11
77.0166535554
 21
-19.0023394735
 31
0.0
  0
LINE
  5
1B0
330
1F
100
AcDbEntity
  8
0
  6
Continuous
 62
     7
370
    15
100
AcDbLine
 10
77.0166535554
 20
-19.0023394735
 30
0.0
 11
77.2373302951
 21
-19.8984478539
 31
0.0
  0
LINE
  5
1B1
330
1F
100
AcDbEntity
  8
0
  6
Continuous
 62
     7
370
    15
100
AcDbLine
 10
77.2373302951
 20
-19.8984478539
 30
0.0
 11
78.7597317708
 21
-19.8984478539
 31
0.0
  0
LINE
  5
1B2
330
1F
100
AcDbEntity
  8
0
  6
Continuous
 62
     7
370
    15
100
AcDbLine
 10
78.7597317708
 20
-19.8984478539
 30
0.0
 11
78.4550727901
 21
-18.8692186872
 31
0.0
  0
LINE
  5
1B3
330
1F
100
AcDbEntity
  8
0
  6
Continuous
 62
     7
370
    15
100
AcDbLine
 10
83.2197248264
 20
-18.8692186872
 30
0.0
 11
79.2153800998
 21
-18.8692186872
 31
0.0
  0
LINE
  5
1B4
330
1F
100
AcDbEntity
  8
0
  6
Continuous
 62
     7
370
    15
100
AcDbLine
 10
80.4608188657
 20
-19.8984478539
 30
0.0
 11
83.4940072519
 21
-19.8984478539
 31
0.0
  0
LINE
  5
1B5
330
1F
100
AcDbEntity
  8
0
  6
Continuous
 62
     7
370
    15
100
AcDbLine
 10
83.4940072519
 20
-19.8984478539
 30
0.0
 11
83.2197248264
 21
-18.8692186872
 31
0.0
  0
LINE
  5
1B6
330
1F
100
AcDbEntity
  8
0
  6
Continuous
 62
     7
370
    15
100
AcDbLine
 10
110.0
 20
42.217
 30
0.0
 11
110.0
 21
68.0
 31
0.0
  0
LINE
  5
1B7
330
1F
100
AcDbEntity
  8
0
  6
Continuous
 62
     7
370
    15
100
AcDbLine
 10
110.0
 20
42.217
 30
0.0
 11
107.873
 21
42.217
 31
0.0
  0
LINE
  5
1B8
330
1F
100
AcDbEntity
  8
0
  6
Continuous
 62
     7
370
    15
100
AcDbLine
 10
107.873
 20
42.217
 30
0.0
 11
107.873
 21
41.762
 31
0.0
  0
LINE
  5
1B9
330
1F
100
AcDbEntity
  8
0
  6
Continuous
 62
     7
370
    15
100
AcDbLine
 10
107.873
 20
41.762
 30
0.0
 11
137.3189929927
 21
41.762
 31
0.0
  0
LINE
  5
1BA
330
1F
100
AcDbEntity
  8
0
  6
Continuous
 62
     7
370
    15
100
AcDbLine
 10
139.3189929927
 20
39.762
 30
0.0
 11
139.3189929927
 21
-10.5569929927
 31
0.0
  0
LINE
  5
1BB
330
1F
100
AcDbEntity
  8
0
  6
Continuous
 62
     7
370
    15
100
AcDbLine
 10
137.3189929927
 20
-12.5569929927
 30
0.0
 11
112.0809929927
 21
-12.5569929927
 31
0.0
  0
LINE
  5
1BC
330
1F
100
AcDbEntity
  8
0
  6
Continuous
 62
     7
370
    15
100
AcDbLine
 10
110.0809929927
 20
-10.5569929927
 30
0.0
 11
110.0809929927
 21
1.762
 31
0.0
  0
LINE
  5
1BD
330
1F
100
AcDbEntity
  8
0
  6
Continuous
 62
     7
370
    15
100
AcDbLine
 10
110.0809929927
 20
1.762
 30
0.0
 11
107.873
 21
1.762
 31
0.0
  0
LINE
  5
1BE
330
1F
100
AcDbEntity
  8
0
  6
Continuous
 62
     7
370
    15
100
AcDbLine
 10
107.873
 20
1.762
 30
0.0
 11
107.873
 21
1.307
 31
0.0
  0
LINE
  5
1BF
330
1F
100
AcDbEntity
  8
0
  6
Continuous
 62
     7
370
    15
100
AcDbLine
 10
107.873
 20
1.307
 30
0.0
 11
110.0
 21
1.307
 31
0.0
  0
LINE
  5
1C0
330
1F
100
AcDbEntity
  8
0
  6
Continuous
 62
     7
370
    15
100
AcDbLine
 10
110.0
 20
-28.2289929927
 30
0.0
 11
110.0
 21
1.307
 31
0.0
  0
LINE
  5
1C1
330
1F
100
AcDbEntity
  8
0
  6
Continuous
 62
     7
370
    15
100
AcDbLine
 10
108.0
 20
-30.2289929927
 30
0.0
 11
2.0
 21
-30.2289929927
 31
0.0
  0
LINE
  5
1C2
330
1F
100
AcDbEntity
  8
0
  6
Continuous
 62
     7
370
    15
100
AcDbLine
 10
0.0
 20
1.307
 30
0.0
 11
0.0
 21
-28.2289929927
 31
0.0
  0
LINE
  5
1C3
330
1F
100
AcDbEntity
  8
0
  6
Continuous
 62
     7
370
    15
100
AcDbLine
 10
0.0
 20
1.307
 30
0.0
 11
2.127
 21
1.307
 31
0.0
  0
LINE
  5
1C4
330
1F
100
AcDbEntity
  8
0
  6
Continuous
 62
     7
370
    15
100
AcDbLine
 10
2.127
 20
1.307
 30
0.0
 11
2.127
 21
1.762
 31
0.0
  0
LINE
  5
1C5
330
1F
100
AcDbEntity
  8
0
  6
Continuous
 62
     7
370
    15
100
AcDbLine
 10
2.127
 20
1.762
 30
0.0
 11
-0.0809929927
 21
1.762
 31
0.0
  0
LINE
  5
1C6
330
1F
100
AcDbEntity
  8
0
  6
Continuous
 62
     7
370
    15
100
AcDbLine
 10
-0.0809929927
 20
1.762
 30
0.0
 11
-0.0809929927
 21
-10.5569929927
 31
0.0
  0
LINE
  5
1C7
330
1F
100
AcDbEntity
  8
0
  6
Continuous
 62
     7
370
    15
100
AcDbLine
 10
-27.3189929927
 20
-12.5569929927
 30
0.0
 11
-2.0809929927
 21
-12.5569929927
 31
0.0
  0
LINE
  5
1C8
330
1F
100
AcDbEntity
  8
0
  6
Continuous
 62
     7
370
    15
100
AcDbLine
 10
-29.3189929927
 20
39.762
 30
0.0
 11
-29.3189929927
 21
-10.5569929927
 31
0.0
  0
LINE
  5
1C9
330
1F
100
AcDbEntity
  8
0
  6
Continuous
 62
     7
370
    15
100
AcDbLine
 10
-27.3189929927
 20
41.762
 30
0.0
 11
2.127
 21
41.762
 31
0.0
  0
LINE
  5
1CA
330
1F
100
AcDbEntity
  8
0
  6
Continuous
 62
     7
370
    15
100
AcDbLine
 10
2.127
 20
41.762
 30
0.0
 11
2.127
 21
42.217
 31
0.0
  0
LINE
  5
1CB
330
1F
100
AcDbEntity
  8
0
  6
Continuous
 62
     7
370
    15
100
AcDbLine
 10
2.127
 20
42.217
 30
0.0
 11
0.0
 21
42.217
 31
0.0
  0
LINE
  5
1CC
330
1F
100
AcDbEntity
  8
0
  6
Continuous
 62
     7
370
    15
100
AcDbLine
 10
0.0
 20
68.0
 30
0.0
 11
0.0
 21
42.217
 31
0.0
  0
LINE
  5
1CD
330
1F
100
AcDbEntity
  8
0
  6
Continuous
 62
     7
370
    15
100
AcDbLine
 10
108.0
 20
70.0
 30
0.0
 11
2.0
 21
70.0
 31
0.0
  0
LINE
  5
1CE
330
1F
100
AcDbEntity
  8
0
  6
Continuous
 62
     7
370
    15
100
AcDbLine
 10
76.7
 20
42.0
 30
0.0
 11
76.7
 21
47.0
 31
0.0
  0
LINE
  5
1CF
330
1F
100
AcDbEntity
  8
0
  6
Continuous
 62
     7
370
    15
100
AcDbLine
 10
73.3
 20
47.0
 30
0.0
 11
73.3
 21
42.0
 31
0.0
  0
LINE
  5
1D0
330
1F
100
AcDbEntity
  8
0
  6
Continuous
 62
     7
370
    15
100
AcDbLine
 10
36.7
 20
42.0
 30
0.0
 11
36.7
 21
47.0
 31
0.0
  0
LINE
  5
1D1
330
1F
100
AcDbEntity
  8
0
  6
Continuous
 62
     7
370
    15
100
AcDbLine
 10
33.3
 20
47.0
 30
0.0
 11
33.3
 21
42.0
 31
0.0
  0
LINE
  5
1D2
330
1F
100
AcDbEntity
  8
0
  6
Continuous
 62
     7
370
    15
100
AcDbLine
 10
66.7
 20
59.0
 30
0.0
 11
66.7
 21
64.0
 31
0.0
  0
LINE
  5
1D3
330
1F
100
AcDbEntity
  8
0
  6
Continuous
 62
     7
370
    15
100
AcDbLine
 10
63.3
 20
64.0
 30
0.0
 11
63.3
 21
59.0
 31
0.0
  0
LINE
  5
1D4
330
1F
100
AcDbEntity
  8
0
  6
Continuous
 62
     7
370
    15
100
AcDbLine
 10
46.7
 20
59.0
 30
0.0
 11
46.7
 21
64.0
 31
0.0
  0
LINE
  5
1D5
330
1F
100
AcDbEntity
  8
0
  6
Continuous
 62
     7
370
    15
100
AcDbLine
 10
43.3
 20
64.0
 30
0.0
 11
43.3
 21
59.0
 31
0.0
  0
LINE
  5
1D6
330
1F
100
AcDbEntity
  8
0
  6
Continuous
 62
     7
370
    15
100
AcDbLine
 10
18.919
 20
26.6693376102
 30
0.0
 11
13.919
 21
26.6693376102
 31
0.0
  0
LINE
  5
1D7
330
1F
100
AcDbEntity
  8
0
  6
Continuous
 62
     7
370
    15
100
AcDbLine
 10
13.919
 20
23.2693376102
 30
0.0
 11
18.919
 21
23.2693376102
 31
0.0
  0
LINE
  5
1D8
330
1F
100
AcDbEntity
  8
0
  6
Continuous
 62
     7
370
    15
100
AcDbLine
 10
18.919
 20
16.6693376102
 30
0.0
 11
13.919
 21
16.6693376102
 31
0.0
  0
LINE
  5
1D9
330
1F
100
AcDbEntity
  8
0
  6
Continuous
 62
     7
370
    15
100
AcDbLine
 10
13.919
 20
13.2693376102
 30
0.0
 11
18.919
 21
13.2693376102
 31
0.0
  0
LINE
  5
1DA
330
1F
100
AcDbEntity
  8
0
  6
Continuous
 62
     7
370
    15
100
AcDbLine
 10
77.081
 20
16.6693376102
 30
0.0
 11
72.081
 21
16.6693376102
 31
0.0
  0
LINE
  5
1DB
330
1F
100
AcDbEntity
  8
0
  6
Continuous
 62
     7
370
    15
100
AcDbLine
 10
72.081
 20
13.2693376102
 30
0.0
 11
77.081
 21
13.2693376102
 31
0.0
  0
LINE
  5
1DC
330
1F
100
AcDbEntity
  8
0
  6
Continuous
 62
     7
370
    15
100
AcDbLine
 10
77.081
 20
26.6693376102
 30
0.0
 11
72.081
 21
26.6693376102
 31
0.0
  0
LINE
  5
1DD
330
1F
100
AcDbEntity
  8
0
  6
Continuous
 62
     7
370
    15
100
AcDbLine
 10
72.081
 20
23.2693376102
 30
0.0
 11
77.081
 21
23.2693376102
 31
0.0
  0
ARC
  5
1DE
330
1F
100
AcDbEntity
  8
0
  6
Continuous
 62
     7
370
    15
100
AcDbCircle
 10
108.0
 20
68.0
 30
0.0
 40
1.999999999999986
100
AcDbArc
 50
0.0
 51
90.0
  0
ARC
  5
1DF
330
1F
100
AcDbEntity
  8
0
  6
Continuous
 62
     7
370
    15
100
AcDbCircle
 10
137.3189929927
 20
39.762
 30
0.0
 40
2.000000000000057
100
AcDbArc
 50
0.0
 51
90.0
  0
ARC
  5
1E0
330
1F
100
AcDbEntity
  8
0
  6
Continuous
 62
     7
370
    15
100
AcDbCircle
 10
137.3189929927
 20
-10.5569929927
 30
0.0
 40
2.0
100
AcDbArc
 50
270.0
 51
0.0
  0
ARC
  5
1E1
330
1F
100
AcDbEntity
  8
0
  6
Continuous
 62
     7
370
    15
100
AcDbCircle
 10
112.0809929927
 20
-10.5569929927
 30
0.0
 40
1.999999999999986
100
AcDbArc
 50
180.0
 51
270.0
  0
ARC
  5
1E2
330
1F
100
AcDbEntity
  8
0
  6
Continuous
 62
     7
370
    15
100
AcDbCircle
 10
108.0
 20
-28.2289929927
 30
0.0
 40
2.0
100
AcDbArc
 50
270.0
 51
0.0
  0
ARC
  5
1E3
330
1F
100
AcDbEntity
  8
0
  6
Continuous
 62
     7
370
    15
100
AcDbCircle
 10
2.0
 20
-28.2289929927
 30
0.0
 40
2.000000000000004
100
AcDbArc
 50
180.0
 51
270.0
  0
ARC
  5
1E4
330
1F
100
AcDbEntity
  8
0
  6
Continuous
 62
     7
370
    15
100
AcDbCircle
 10
-2.0809929927
 20
-10.5569929927
 30
0.0
 40
2.0
100
AcDbArc
 50
270.0
 51
0.0
  0
ARC
  5
1E5
330
1F
100
AcDbEntity
  8
0
  6
Continuous
 62
     7
370
    15
100
AcDbCircle
 10
-27.3189929927
 20
-10.5569929927
 30
0.0
 40
1.999999999999996
100
AcDbArc
 50
180.0
 51
270.0
  0
ARC
  5
1E6
330
1F
100
AcDbEntity
  8
0
  6
Continuous
 62
     7
370
    15
100
AcDbCircle
 10
-27.3189929927
 20
39.762
 30
0.0
 40
2.0
100
AcDbArc
 50
90.0
 51
180.0
  0
ARC
  5
1E7
330
1F
100
AcDbEntity
  8
0
  6
Continuous
 62
     7
370
    15
100
AcDbCircle
 10
2.0
 20
68.0
 30
0.0
 40
1.999999999999988
100
AcDbArc
 50
90.0
 51
180.0
  0
ARC
  5
1E8
330
1F
100
AcDbEntity
  8
0
  6
Continuous
 62
     7
370
    15
100
AcDbCircle
 10
75.0
 20
42.0
 30
0.0
 40
1.700000000000003
100
AcDbArc
 50
180.0
 51
0.0
  0
ARC
  5
1E9
330
1F
100
AcDbEntity
  8
0
  6
Continuous
 62
     7
370
    15
100
AcDbCircle
 10
75.0
 20
47.0
 30
0.0
 40
1.700000000000003
100
AcDbArc
 50
0.0
 51
180.0
  0
ARC
  5
1EA
330
1F
100
AcDbEntity
  8
0
  6
Continuous
 62
     7
370
    15
100
AcDbCircle
 10
35.0
 20
42.0
 30
0.0
 40
1.700000000000017
100
AcDbArc
 50
180.0
 51
0.0
  0
ARC
  5
1EB
330
1F
100
AcDbEntity
  8
0
  6
Continuous
 62
     7
370
    15
100
AcDbCircle
 10
35.0
 20
47.0
 30
0.0
 40
1.700000000000017
100
AcDbArc
 50
0.0
 51
180.0
  0
ARC
  5
1EC
330
1F
100
AcDbEntity
  8
0
  6
Continuous
 62
     7
370
    15
100
AcDbCircle
 10
65.0
 20
59.0
 30
0.0
 40
1.700000000000017
100
AcDbArc
 50
180.0
 51
0.0
  0
ARC
  5
1ED
330
1F
100
AcDbEntity
  8
0
  6
Continuous
 62
     7
370
    15
100
AcDbCircle
 10
65.0
 20
64.0
 30
0.0
 40
1.700000000000017
100
AcDbArc
 50
0.0
 51
180.0
  0
ARC
  5
1EE
330
1F
100
AcDbEntity
  8
0
  6
Continuous
 62
     7
370
    15
100
AcDbCircle
 10
45.0
 20
59.0
 30
0.0
 40
1.70000000000001
100
AcDbArc
 50
180.0
 51
0.0
  0
ARC
  5
1EF
330
1F
100
AcDbEntity
  8
0
  6
Continuous
 62
     7
370
    15
100
AcDbCircle
 10
45.0
 20
64.0
 30
0.0
 40
1.70000000000001
100
AcDbArc
 50
0.0
 51
180.0
  0
ARC
  5
1F0
330
1F
100
AcDbEntity
  8
0
  6
Continuous
 62
     7
370
    15
100
AcDbCircle
 10
18.919
 20
24.9693376102
 30
0.0
 40
1.70000000000001
100
AcDbArc
 50
270.0
 51
90.0
  0
ARC
  5
1F1
330
1F
100
AcDbEntity
  8
0
  6
Continuous
 62
     7
370
    15
100
AcDbCircle
 10
13.919
 20
24.9693376102
 30
0.0
 40
1.70000000000001
100
AcDbArc
 50
90.0
 51
270.0
  0
ARC
  5
1F2
330
1F
100
AcDbEntity
  8
0
  6
Continuous
 62
     7
370
    15
100
AcDbCircle
 10
18.919
 20
14.9693376102
 30
0.0
 40
1.700000000000001
100
AcDbArc
 50
270.0
 51
90.0
  0
ARC
  5
1F3
330
1F
100
AcDbEntity
  8
0
  6
Continuous
 62
     7
370
    15
100
AcDbCircle
 10
13.919
 20
14.9693376102
 30
0.0
 40
1.700000000000003
100
AcDbArc
 50
90.0
 51
270.0
  0
ARC
  5
1F4
330
1F
100
AcDbEntity
  8
0
  6
Continuous
 62
     7
370
    15
100
AcDbCircle
 10
77.081
 20
14.9693376102
 30
0.0
 40
1.700000000000001
100
AcDbArc
 50
270.0
 51
90.0
  0
ARC
  5
1F5
330
1F
100
AcDbEntity
  8
0
  6
Continuous
 62
     7
370
    15
100
AcDbCircle
 10
72.081
 20
14.9693376102
 30
0.0
 40
1.700000000000003
100
AcDbArc
 50
90.0
 51
270.0
  0
ARC
  5
1F6
330
1F
100
AcDbEntity
  8
0
  6
Continuous
 62
     7
370
    15
100
AcDbCircle
 10
77.081
 20
24.9693376102
 30
0.0
 40
1.700000000000006
100
AcDbArc
 50
270.0
 51
90.0
  0
ARC
  5
1F7
330
1F
100
AcDbEntity
  8
0
  6
Continuous
 62
     7
370
    15
100
AcDbCircle
 10
72.081
 20
24.9693376102
 30
0.0
 40
1.700000000000006
100
AcDbArc
 50
90.0
 51
270.0
  0
MTEXT
  5
21B
330
1F
100
AcDbEntity
  8
0
  6
Continuous
 62
     7
100
AcDbMText
 10
-29.3189929927
 20
-31.2485593844
 30
0.0
 40
4.83362
 41
0.0
 71
     1
 72
     1
  1
SolidWorks Student Edition.
  7
SLDTEXTSTYLE0
 73
     1
 44
1.0
  0
MTEXT
  5
21C
330
1F
100
AcDbEntity
  8
0
  6
Continuous
 62
     7
100
AcDbMText
 10
-29.3189929927
 20
-38.4989893844
 30
0.0
 40
4.83362
 41
0.0
 71
     1
 72
     1
  1
For Academic Use Only.
  7
SLDTEXTSTYLE0
 73
     1
 44
1.0
  0
ENDSEC
  0
SECTION
  2
OBJECTS
  0
DICTIONARY
  5
C
330
0
100
AcDbDictionary
281
     1
  3
ACAD_GROUP
350
D
  3
ACAD_LAYOUT
350
1A
  3
ACAD_MLINESTYLE
350
17
  3
ACAD_PLOTSETTINGS
350
19
  3
ACAD_PLOTSTYLENAME
350
E
  3
ACAD_SCALELIST
350
1F8
  3
AcDbVariableDictionary
350
21D
  0
DICTIONARY
  5
D
102
{ACAD_REACTORS
330
C
102
}
330
C
100
AcDbDictionary
281
     1
  0
DICTIONARY
  5
1A
102
{ACAD_REACTORS
330
C
102
}
330
C
100
AcDbDictionary
281
     1
  3
Layout1
350
1E
  3
Layout2
350
26
  3
Model
350
22
  0
DICTIONARY
  5
17
102
{ACAD_REACTORS
330
C
102
}
330
C
100
AcDbDictionary
281
     1
  3
Standard
350
18
  0
DICTIONARY
  5
19
102
{ACAD_REACTORS
330
C
102
}
330
C
100
AcDbDictionary
281
     1
  0
ACDBDICTIONARYWDFLT
  5
E
102
{ACAD_REACTORS
330
C
102
}
330
C
100
AcDbDictionary
281
     1
  3
Normal
350
F
100
AcDbDictionaryWithDefault
340
F
  0
DICTIONARY
  5
1F8
102
{ACAD_REACTORS
330
C
102
}
330
C
100
AcDbDictionary
281
     1
  3
A0
350
1F9
  3
A1
350
1FA
  3
A2
350
1FB
  3
A3
350
1FC
  3
A4
350
1FD
  3
A5
350
1FE
  3
A6
350
1FF
  3
A7
350
200
  3
A8
350
201
  3
A9
350
202
  3
B0
350
203
  3
B1
350
204
  3
B2
350
205
  3
B3
350
206
  3
B4
350
207
  3
B5
350
208
  3
B6
350
209
  3
B7
350
20A
  3
B8
350
20B
  3
B9
350
20C
  3
C0
350
20D
  3
C1
350
20E
  3
C2
350
20F
  3
C3
350
210
  3
C4
350
211
  3
C5
350
212
  3
C6
350
213
  3
C7
350
214
  3
C8
350
215
  3
C9
350
216
  3
D0
350
217
  3
D1
350
218
  3
D2
350
219
  0
DICTIONARY
  5
21D
102
{ACAD_REACTORS
330
C
102
}
330
C
100
AcDbDictionary
281
     1
  3
CANNOSCALE
350
21E
  0
LAYOUT
  5
1E
102
{ACAD_REACTORS
330
1A
102
}
330
1A
100
AcDbPlotSettings
  1

  2
none_device
  4

  6

 40
0.0
 41
0.0
 42
0.0
 43
0.0
 44
0.0
 45
0.0
 46
0.0
 47
0.0
 48
0.0
 49
0.0
140
0.0
141
0.0
142
1.0
143
1.0
 70
   688
 72
     0
 73
     0
 74
     5
  7

 75
    16
147
1.0
148
0.0
149
0.0
100
AcDbLayout
  1
Layout1
 70
     1
 71
     1
 10
0.0
 20
0.0
 11
420.0
 21
297.0
 12
0.0
 22
0.0
 32
0.0
 14
1.0000000000E+20
 24
1.0000000000E+20
 34
1.0000000000E+20
 15
-1.0000000000E+20
 25
-1.0000000000E+20
 35
-1.0000000000E+20
146
0.0
 13
0.0
 23
0.0
 33
0.0
 16
1.0
 26
0.0
 36
0.0
 17
0.0
 27
1.0
 37
0.0
 76
     0
330
1B
  0
LAYOUT
  5
26
102
{ACAD_REACTORS
330
1A
102
}
330
1A
100
AcDbPlotSettings
  1

  2
none_device
  4

  6

 40
0.0
 41
0.0
 42
0.0
 43
0.0
 44
0.0
 45
0.0
 46
0.0
 47
0.0
 48
0.0
 49
0.0
140
0.0
141
0.0
142
1.0
143
1.0
 70
   688
 72
     0
 73
     0
 74
     5
  7

 75
    16
147
1.0
148
0.0
149
0.0
100
AcDbLayout
  1
Layout2
 70
     1
 71
     2
 10
0.0
 20
0.0
 11
0.0
 21
0.0
 12
0.0
 22
0.0
 32
0.0
 14
0.0
 24
0.0
 34
0.0
 15
0.0
 25
0.0
 35
0.0
146
0.0
 13
0.0
 23
0.0
 33
0.0
 16
1.0
 26
0.0
 36
0.0
 17
0.0
 27
1.0
 37
0.0
 76
     0
330
23
  0
LAYOUT
  5
22
102
{ACAD_REACTORS
330
1A
102
}
330
1A
100
AcDbPlotSettings
  1

  2
none_device
  4
ANSI_A_(11.00_x_8.50_Inches)
  6

 40
6.35
 41
19.05
 42
6.35000508
 43
19.05000254
 44
279.4
 45
215.9
 46
43.137048633
 47
56.283091276
 48
0.0
 49
0.0
140
0.0
141
0.0
142
0.0645761982
143
1.0
 70
  1696
 72
     0
 73
     0
 74
     0
  7

 75
     0
147
0.0179189148
148
0.0
149
0.0
100
AcDbLayout
  1
Model
 70
     1
 71
     0
 10
0.0
 20
0.0
 11
420.0
 21
297.0
 12
0.0
 22
0.0
 32
0.0
 14
-29.3189929927
 24
-30.2289929927
 34
0.0
 15
139.3189929927
 25
70.0
 35
0.0
146
0.0
 13
0.0
 23
0.0
 33
0.0
 16
1.0
 26
0.0
 36
0.0
 17
0.0
 27
1.0
 37
0.0
 76
     0
330
1F
331
29
  0
MLINESTYLE
  5
18
102
{ACAD_REACTORS
330
17
102
}
330
17
100
AcDbMlineStyle
  2
Standard
 70
     0
  3

 62
   256
 51
90.0
 52
90.0
 71
     2
 49
0.5
 62
   256
  6
BYLAYER
 49
-0.5
 62
   256
  6
BYLAYER
  0
ACDBPLACEHOLDER
  5
F
102
{ACAD_REACTORS
330
E
102
}
330
E
  0
SCALE
  5
1F9
102
{ACAD_REACTORS
330
1F8
102
}
330
1F8
100
AcDbScale
 70
     0
300
1:1
140
1.0
141
1.0
290
     1
  0
SCALE
  5
1FA
102
{ACAD_REACTORS
330
1F8
102
}
330
1F8
100
AcDbScale
 70
     0
300
1:2
140
1.0
141
2.0
290
     0
  0
SCALE
  5
1FB
102
{ACAD_REACTORS
330
1F8
102
}
330
1F8
100
AcDbScale
 70
     0
300
1:4
140
1.0
141
4.0
290
     0
  0
SCALE
  5
1FC
102
{ACAD_REACTORS
330
1F8
102
}
330
1F8
100
AcDbScale
 70
     0
300
1:5
140
1.0
141
5.0
290
     0
  0
SCALE
  5
1FD
102
{ACAD_REACTORS
330
1F8
102
}
330
1F8
100
AcDbScale
 70
     0
300
1:8
140
1.0
141
8.0
290
     0
  0
SCALE
  5
1FE
102
{ACAD_REACTORS
330
1F8
102
}
330
1F8
100
AcDbScale
 70
     0
300
1:10
140
1.0
141
10.0
290
     0
  0
SCALE
  5
1FF
102
{ACAD_REACTORS
330
1F8
102
}
330
1F8
100
AcDbScale
 70
     0
300
1:16
140
1.0
141
16.0
290
     0
  0
SCALE
  5
200
102
{ACAD_REACTORS
330
1F8
102
}
330
1F8
100
AcDbScale
 70
     0
300
1:20
140
1.0
141
20.0
290
     0
  0
SCALE
  5
201
102
{ACAD_REACTORS
330
1F8
102
}
330
1F8
100
AcDbScale
 70
     0
300
1:30
140
1.0
141
30.0
290
     0
  0
SCALE
  5
202
102
{ACAD_REACTORS
330
1F8
102
}
330
1F8
100
AcDbScale
 70
     0
300
1:40
140
1.0
141
40.0
290
     0
  0
SCALE
  5
203
102
{ACAD_REACTORS
330
1F8
102
}
330
1F8
100
AcDbScale
 70
     0
300
1:50
140
1.0
141
50.0
290
     0
  0
SCALE
  5
204
102
{ACAD_REACTORS
330
1F8
102
}
330
1F8
100
AcDbScale
 70
     0
300
1:100
140
1.0
141
100.0
290
     0
  0
SCALE
  5
205
102
{ACAD_REACTORS
330
1F8
102
}
330
1F8
100
AcDbScale
 70
     0
300
2:1
140
2.0
141
1.0
290
     0
  0
SCALE
  5
206
102
{ACAD_REACTORS
330
1F8
102
}
330
1F8
100
AcDbScale
 70
     0
300
4:1
140
4.0
141
1.0
290
     0
  0
SCALE
  5
207
102
{ACAD_REACTORS
330
1F8
102
}
330
1F8
100
AcDbScale
 70
     0
300
8:1
140
8.0
141
1.0
290
     0
  0
SCALE
  5
208
102
{ACAD_REACTORS
330
1F8
102
}
330
1F8
100
AcDbScale
 70
     0
300
10:1
140
10.0
141
1.0
290
     0
  0
SCALE
  5
209
102
{ACAD_REACTORS
330
1F8
102
}
330
1F8
100
AcDbScale
 70
     0
300
100:1
140
100.0
141
1.0
290
     0
  0
SCALE
  5
20A
102
{ACAD_REACTORS
330
1F8
102
}
330
1F8
100
AcDbScale
 70
     0
300
1/128" = 1'-0"
140
0.0078125
141
12.0
290
     0
  0
SCALE
  5
20B
102
{ACAD_REACTORS
330
1F8
102
}
330
1F8
100
AcDbScale
 70
     0
300
1/64" = 1'-0"
140
0.015625
141
12.0
290
     0
  0
SCALE
  5
20C
102
{ACAD_REACTORS
330
1F8
102
}
330
1F8
100
AcDbScale
 70
     0
300
1/32" = 1'-0"
140
0.03125
141
12.0
290
     0
  0
SCALE
  5
20D
102
{ACAD_REACTORS
330
1F8
102
}
330
1F8
100
AcDbScale
 70
     0
300
1/16" = 1'-0"
140
0.0625
141
12.0
290
     0
  0
SCALE
  5
20E
102
{ACAD_REACTORS
330
1F8
102
}
330
1F8
100
AcDbScale
 70
     0
300
3/32" = 1'-0"
140
0.09375
141
12.0
290
     0
  0
SCALE
  5
20F
102
{ACAD_REACTORS
330
1F8
102
}
330
1F8
100
AcDbScale
 70
     0
300
1/8" = 1'-0"
140
0.125
141
12.0
290
     0
  0
SCALE
  5
210
102
{ACAD_REACTORS
330
1F8
102
}
330
1F8
100
AcDbScale
 70
     0
300
3/16" = 1'-0"
140
0.1875
141
12.0
290
     0
  0
SCALE
  5
211
102
{ACAD_REACTORS
330
1F8
102
}
330
1F8
100
AcDbScale
 70
     0
300
1/4" = 1'-0"
140
0.25
141
12.0
290
     0
  0
SCALE
  5
212
102
{ACAD_REACTORS
330
1F8
102
}
330
1F8
100
AcDbScale
 70
     0
300
3/8" = 1'-0"
140
0.375
141
12.0
290
     0
  0
SCALE
  5
213
102
{ACAD_REACTORS
330
1F8
102
}
330
1F8
100
AcDbScale
 70
     0
300
1/2" = 1'-0"
140
0.5
141
12.0
290
     0
  0
SCALE
  5
214
102
{ACAD_REACTORS
330
1F8
102
}
330
1F8
100
AcDbScale
 70
     0
300
3/4" = 1'-0"
140
0.75
141
12.0
290
     0
  0
SCALE
  5
215
102
{ACAD_REACTORS
330
1F8
102
}
330
1F8
100
AcDbScale
 70
     0
300
1" = 1'-0"
140
1.0
141
12.0
290
     0
  0
SCALE
  5
216
102
{ACAD_REACTORS
330
1F8
102
}
330
1F8
100
AcDbScale
 70
     0
300
1-1/2" = 1'-0"
140
1.5
141
12.0
290
     0
  0
SCALE
  5
217
102
{ACAD_REACTORS
330
1F8
102
}
330
1F8
100
AcDbScale
 70
     0
300
3" = 1'-0"
140
3.0
141
12.0
290
     0
  0
SCALE
  5
218
102
{ACAD_REACTORS
330
1F8
102
}
330
1F8
100
AcDbScale
 70
     0
300
6" = 1'-0"
140
6.0
141
12.0
290
     0
  0
SCALE
  5
219
102
{ACAD_REACTORS
330
1F8
102
}
330
1F8
100
AcDbScale
 70
     0
300
1'-0" = 1'-0"
140
12.0
141
12.0
290
     0
  0
DICTIONARYVAR
  5
21E
102
{ACAD_REACTORS
330
21D
102
}
330
21D
100
DictionaryVariables
280
     0
  1
1:1
  0
ENDSEC
  0
EOF
